<svg xmlns="http://www.w3.org/2000/svg" viewBox="0 0 1706.395132 1871.324680">
<g transform="translate(-3.092063,2496.895475) scale(0.100000,-0.100000)" fill="#000000" stroke="none">
<path d="M8524 24941 c-32 -31 -31 -29 -99 -173 -25 -54 -49 -98 -54 -98 -5 0&#xA;-38 19 -73 42 -34 23 -84 50 -110 60 -49 18 -99 24 -96 11 1 -5 -2 -20 -6 -34&#xA;-5 -19 -1 -40 17 -75 69 -139 91 -290 53 -364 -34 -65 -70 -91 -251 -179 -212&#xA;-104 -309 -177 -420 -317 -89 -112 -117 -156 -139 -219 -10 -27 -22 -59 -27&#xA;-70 -9 -23 -31 -114 -54 -225 -47 -232 11 -643 118 -833 71 -128 257 -341 350&#xA;-403 23 -15 54 -35 69 -45 69 -47 322 -160 413 -185 94 -26 114 -28 357 -32&#xA;l256 -3 122 30 c83 21 160 49 243 89 213 103 309 180 440 354 110 147 127 176&#xA;170 283 58 147 77 275 77 512 0 265 -28 411 -112 577 -121 240 -292 392 -571&#xA;506 -137 57 -181 87 -217 151 -20 36 -24 57 -24 120 0 73 3 83 63 207 35 72&#xA;61 139 59 149 -7 37 -93 23 -169 -28 -62 -43 -139 -76 -147 -65 -5 6 -37 69&#xA;-71 139 -47 97 -68 130 -87 138 -38 14 -48 12 -80 -20z m-361 -948 c-35 -13&#xA;-137 -88 -205 -152 -186 -174 -293 -367 -344 -621 -21 -106 -24 -386 -5 -475&#xA;37 -169 53 -221 97 -312 51 -101 50 -100 30 -84 -25 21 -120 186 -156 269&#xA;-101 238 -125 512 -65 749 61 241 232 458 441 562 72 36 206 82 214 74 3 -3 0&#xA;-8 -7 -10z"></path>
<path d="M7050 24510 c-261 -157 -382 -255 -453 -366 -38 -60 -120 -215 -137&#xA;-259 -40 -101 -53 -188 -54 -350 0 -161 6 -204 46 -337 18 -63 22 -68 47 -68&#xA;39 0 49 28 61 168 14 150 26 220 55 307 45 136 151 382 161 372 3 -3 -6 -43&#xA;-21 -89 -57 -180 -107 -393 -112 -485 l-6 -92 27 -7 c14 -3 26 -13 26 -21 0&#xA;-24 55 14 137 97 84 83 122 144 175 275 76 187 105 317 119 525 4 74 11 169&#xA;15 210 8 95 -4 130 -43 129 -16 0 -35 -4 -43 -9z"></path>
<path d="M10028 24491 c-15 -15 -18 -38 -18 -159 0 -127 6 -188 41 -401 10&#xA;-67 66 -240 105 -328 66 -151 211 -314 279 -313 25 1 75 44 75 65 0 54 -76&#xA;383 -103 445 -42 98 -66 170 -57 170 5 0 18 -17 29 -37 31 -62 113 -255 128&#xA;-303 25 -82 51 -184 58 -232 4 -26 19 -82 34 -125 25 -73 28 -78 58 -81 34 -3&#xA;33 -5 52 83 35 162 40 230 25 347 -22 173 -41 239 -112 381 -64 128 -69 135&#xA;-191 257 -99 98 -147 137 -222 182 -110 65 -155 77 -181 49z"></path>
<path d="M5045 23844 c-44 -8 -95 -22 -114 -30 -29 -14 -32 -19 -27 -45 5 -28&#xA;91 -149 157 -222 15 -18 61 -72 102 -122 40 -49 98 -111 128 -136 100 -85 252&#xA;-190 326 -225 107 -50 292 -97 496 -124 37 -5 83 -17 102 -26 44 -21 136 -113&#xA;193 -194 25 -36 65 -90 88 -120 52 -67 148 -234 250 -434 86 -170 107 -196&#xA;159 -196 29 0 37 5 46 27 12 33 6 59 -30 138 -29 63 -157 278 -195 330 -50 66&#xA;-123 232 -159 360 -10 33 -22 74 -27 91 -6 17 -10 40 -10 52 0 11 -11 33 -25&#xA;48 -14 15 -25 23 -25 18 0 -5 -5 -2 -10 6 -7 11 -10 7 -12 -20 -1 -19 -1 -50&#xA;1 -67 1 -18 0 -33 -3 -33 -9 0 -70 101 -139 227 -97 178 -141 238 -253 350&#xA;-196 196 -407 298 -707 342 -159 24 -200 24 -312 5z m528 -331 c107 -48 227&#xA;-111 252 -132 11 -10 38 -29 60 -45 116 -79 148 -106 242 -198 93 -91 183&#xA;-204 183 -231 0 -6 -2 -8 -5 -6 -2 2 -56 54 -118 114 -153 147 -188 177 -377&#xA;321 -67 50 -253 165 -297 183 -18 7 -33 17 -33 22 0 13 4 12 93 -28z"></path>
<path d="M11780 23840 c-240 -42 -403 -101 -537 -197 -180 -128 -281 -247&#xA;-398 -467 -32 -59 -82 -142 -111 -183 -54 -75 -54 -75 -54 -41 0 48 -8 52 -44&#xA;22 -32 -27 -50 -68 -62 -138 -7 -44 -55 -188 -81 -245 -8 -19 -47 -81 -85&#xA;-138 -39 -57 -106 -163 -149 -235 -65 -109 -79 -139 -79 -174 0 -45 10 -54 59&#xA;-54 37 0 75 39 113 115 17 32 41 76 53 95 13 20 42 72 66 116 23 43 50 90 59&#xA;104 10 14 29 48 44 75 15 28 51 82 80 120 29 39 74 100 99 137 61 86 142 153&#xA;210 172 95 27 132 35 187 41 124 14 262 53 378 106 169 78 379 259 561 484&#xA;152 188 164 211 133 252 -39 51 -249 66 -442 33z m-110 -279 c0 -5 -39 -31&#xA;-87 -57 -119 -65 -224 -138 -373 -260 -146 -120 -200 -170 -297 -279 -39 -44&#xA;-74 -77 -78 -73 -10 10 39 96 87 152 72 84 257 243 373 321 91 61 350 205 370&#xA;205 3 0 5 -4 5 -9z"></path>
<path d="M12212 23018 c2 -8 -5 -12 -18 -11 -20 2 -22 -3 -27 -95 -8 -153 -54&#xA;-254 -131 -292 -37 -17 -62 -20 -187 -20 -140 0 -175 -5 -374 -50 -124 -29&#xA;-332 -169 -438 -295 -169 -201 -247 -374 -293 -646 -17 -101 -17 -111 0 -205&#xA;34 -199 48 -244 112 -372 62 -127 77 -146 251 -334 53 -58 180 -158 265 -209&#xA;109 -66 223 -100 484 -144 218 -36 446 -10 633 72 191 85 402 296 485 486 69&#xA;156 146 452 146 558 0 61 -25 185 -57 279 -39 116 -97 219 -164 290 -149 159&#xA;-163 186 -157 289 6 100 31 148 125 236 54 51 75 79 79 102 3 19 0 34 -8 39&#xA;-7 5 -61 9 -120 9 -59 1 -110 4 -113 7 -3 3 -10 51 -14 106 -16 177 -69 214&#xA;-171 120 -70 -63 -160 -108 -160 -80 0 5 -8 18 -17 30 -10 11 -36 44 -58 72&#xA;-41 53 -78 82 -73 58z m-364 -594 c28 -4 52 -10 52 -14 0 -4 -30 -13 -67 -20&#xA;-217 -41 -379 -131 -533 -298 -186 -201 -288 -425 -313 -689 -6 -68 -14 -123&#xA;-18 -123 -11 0 -22 121 -23 235 0 271 160 589 374 745 135 97 242 145 360 159&#xA;89 11 107 12 168 5z"></path>
<path d="M4826 22921 c-37 -39 -73 -71 -78 -71 -15 0 -76 38 -127 79 -35 28&#xA;-53 35 -88 35 -43 1 -45 0 -58 -39 -7 -22 -15 -69 -18 -105 -3 -36 -10 -78&#xA;-16 -93 -10 -27 -11 -27 -110 -27 -90 0 -102 -2 -121 -22 -29 -32 -25 -44 27&#xA;-91 122 -108 162 -169 170 -258 7 -74 -14 -120 -107 -229 -133 -157 -210 -292&#xA;-244 -428 -24 -95 -22 -352 3 -463 48 -206 94 -322 174 -435 121 -172 268&#xA;-298 424 -363 67 -28 92 -35 242 -66 228 -47 620 12 848 129 69 35 200 135&#xA;298 228 158 149 228 264 306 503 38 118 43 141 47 255 3 91 0 147 -12 205 -22&#xA;106 -69 258 -105 337 -65 142 -263 362 -404 446 -129 77 -160 91 -285 122&#xA;-107 27 -132 30 -285 30 -120 0 -177 4 -201 14 -74 31 -128 141 -142 289 -4&#xA;43 -11 74 -18 75 -6 0 -20 3 -31 7 -16 5 -35 -9 -89 -64z m740 -532 c365 -111&#xA;645 -526 619 -919 -8 -135 -16 -190 -25 -190 -4 0 -11 37 -15 83 -14 159 -65&#xA;358 -121 468 -106 211 -358 448 -545 515 -24 8 -80 22 -124 30 -44 8 -89 18&#xA;-100 21 -17 6 -16 8 10 14 53 14 227 1 301 -22z"></path>
<path d="M13641 22464 c-13 -9 -61 -93 -112 -196 -139 -281 -189 -470 -189&#xA;-715 0 -163 27 -323 78 -463 30 -85 45 -103 80 -104 27 -1 36 5 51 29 31 53&#xA;91 282 91 349 0 33 6 82 14 107 8 25 20 114 27 197 6 84 15 152 19 152 3 0 14&#xA;-42 23 -92 20 -114 24 -292 8 -373 -15 -75 -11 -329 6 -346 28 -28 120 79 169&#xA;197 37 87 84 338 84 445 0 151 -52 382 -121 536 -62 138 -166 293 -197 293 -4&#xA;0 -18 -7 -31 -16z m56 -621 c-3 -10 -5 -4 -5 12 0 17 2 24 5 18 2 -7 2 -21 0&#xA;-30z"></path>
<path d="M3421 22443 c-66 -61 -182 -304 -230 -485 -18 -67 -21 -107 -21 -285&#xA;0 -196 2 -215 29 -325 32 -129 69 -212 109 -245 34 -28 42 -28 73 1 l26 24 7&#xA;308 c6 306 15 422 28 361 3 -16 6 -71 7 -122 2 -91 7 -129 31 -260 18 -93 70&#xA;-297 85 -330 7 -16 15 -38 19 -47 3 -10 15 -18 27 -18 15 0 19 -5 15 -15 -10&#xA;-27 24 -16 54 16 18 20 38 63 53 113 45 147 57 241 57 443 0 175 -2 196 -29&#xA;303 -43 168 -179 488 -237 557 -31 37 -67 39 -103 6z"></path>
<path d="M15020 22075 c-30 -6 -82 -22 -115 -34 -33 -13 -76 -28 -95 -34 -58&#xA;-19 -241 -127 -313 -185 -93 -75 -210 -202 -251 -272 -36 -62 -141 -315 -161&#xA;-390 -15 -57 -49 -124 -86 -171 -16 -20 -29 -41 -29 -46 0 -5 -43 -52 -96&#xA;-104 -52 -52 -110 -116 -128 -144 -35 -52 -158 -172 -243 -237 -26 -20 -87&#xA;-70 -135 -110 -170 -145 -508 -327 -773 -416 -156 -53 -471 -135 -578 -152&#xA;-71 -11 -215 -34 -299 -49 -56 -10 -263 -17 -263 -10 0 14 127 156 193 216 50&#xA;45 87 89 101 117 20 44 20 47 4 66 -28 33 -63 25 -134 -32 -35 -28 -66 -54&#xA;-69 -58 -14 -19 -285 -213 -336 -241 -32 -18 -87 -49 -121 -70 -75 -45 -277&#xA;-145 -388 -193 -279 -119 -448 -201 -573 -279 -46 -29 -122 -76 -169 -105 -48&#xA;-28 -127 -85 -177 -126 -98 -79 -192 -134 -206 -120 -23 25 -30 135 -30 485 0&#xA;402 1 411 70 759 15 80 31 156 33 170 3 14 12 58 21 99 13 54 14 77 5 87 -6 7&#xA;-8 18 -4 24 9 14 -30 13 -58 -2 -74 -42 -105 -93 -143 -235 -73 -275 -109&#xA;-475 -123 -693 -6 -80 -15 -172 -20 -205 -17 -93 -13 -404 5 -535 18 -126 14&#xA;-212 -12 -263 -9 -17 -54 -84 -100 -147 -81 -114 -158 -234 -230 -360 -21 -36&#xA;-66 -107 -101 -157 -35 -51 -68 -105 -73 -119 -6 -15 -13 -24 -16 -21 -11 11&#xA;-34 196 -34 277 0 47 -7 121 -15 165 -21 116 -21 890 0 1025 8 52 15 142 15&#xA;200 1 58 5 125 9 150 5 25 14 79 21 120 6 41 23 118 37 170 14 52 36 134 48&#xA;182 35 132 129 304 207 381 38 38 204 135 292 172 56 23 122 53 146 65 139 69&#xA;436 342 527 482 24 36 43 69 43 72 0 3 21 40 46 83 26 43 64 112 87 153 22 41&#xA;45 82 52 90 26 33 52 88 59 123 6 33 4 37 -23 52 -59 30 -252 18 -406 -26&#xA;-177 -51 -219 -66 -355 -135 -129 -64 -157 -83 -238 -159 -50 -47 -114 -116&#xA;-142 -153 -89 -117 -190 -349 -190 -436 0 -19 4 -21 37 -18 32 4 54 23 177&#xA;150 163 168 227 214 545 394 49 28 47 17 -5 -22 -101 -78 -172 -142 -214 -192&#xA;-25 -29 -88 -98 -140 -153 -53 -55 -115 -125 -137 -155 -23 -30 -54 -69 -70&#xA;-87 -26 -30 -79 -105 -177 -253 -43 -65 -109 -190 -141 -265 -10 -24 -33 -51&#xA;-56 -68 -22 -15 -45 -41 -51 -57 -15 -43 -24 -37 -32 20 -4 27 -14 68 -24 92&#xA;-15 38 -17 111 -22 668 -4 564 -7 628 -22 656 -21 39 -66 58 -114 50 -64 -13&#xA;-64 -12 -64 -578 -1 -284 -5 -523 -11 -548 -5 -25 -13 -102 -19 -173 -9 -126&#xA;-28 -237 -41 -237 -4 0 -19 24 -34 53 -15 28 -32 58 -38 66 -14 16 -25 35 -57&#xA;98 -14 26 -37 62 -53 78 -15 17 -25 35 -23 42 3 6 -14 29 -37 50 -23 20 -41&#xA;41 -39 46 1 5 -14 34 -35 65 -101 154 -218 300 -342 427 -75 77 -157 165 -182&#xA;195 -55 67 -133 138 -189 170 -8 5 -12 12 -8 15 7 7 190 -91 243 -130 17 -12&#xA;46 -30 65 -40 19 -10 109 -91 201 -181 218 -214 276 -241 267 -125 -3 45 -17&#xA;84 -62 177 -99 201 -172 293 -321 405 -223 166 -517 275 -776 286 -85 4 -138&#xA;2 -162 -7 -34 -11 -37 -14 -37 -52 0 -32 11 -56 59 -126 57 -86 104 -165 186&#xA;-313 94 -171 234 -328 414 -462 121 -92 175 -123 296 -172 91 -38 183 -84 255&#xA;-130 22 -14 44 -25 49 -25 13 0 101 -99 101 -114 0 -7 6 -26 14 -42 101 -209&#xA;134 -311 175 -544 40 -229 51 -321 51 -427 0 -59 7 -144 15 -188 20 -113 20&#xA;-653 0 -785 -8 -52 -15 -169 -15 -260 -1 -170 -17 -321 -35 -326 -12 -4 -77&#xA;92 -135 201 -47 89 -203 329 -284 439 -29 39 -68 98 -87 131 l-34 60 -6 545&#xA;c-5 432 -10 563 -22 630 -9 47 -22 121 -31 165 -25 137 -85 366 -110 421 -38&#xA;82 -146 189 -146 144 0 -7 -6 -7 -19 0 -31 16 -33 -2 -12 -92 44 -186 111&#xA;-550 111 -605 0 -32 7 -93 15 -136 22 -113 21 -624 -1 -682 -8 -22 -20 -55&#xA;-25 -72 -12 -38 -22 -41 -51 -13 -12 11 -30 20 -39 20 -10 0 -52 28 -95 61&#xA;-85 68 -333 232 -404 268 -25 13 -67 38 -95 56 -72 47 -144 82 -365 175 -374&#xA;158 -725 351 -870 477 -57 50 -158 126 -187 141 -12 7 -35 9 -52 6 -57 -12&#xA;-39 -65 54 -159 6 -6 41 -37 79 -70 64 -56 160 -168 151 -177 -14 -13 -232 4&#xA;-386 31 -495 86 -833 188 -1152 348 -251 125 -370 216 -626 473 -196 198 -337&#xA;324 -352 314 -12 -7 -11 -64 1 -64 6 0 10 -6 10 -13 0 -8 30 -56 67 -108 80&#xA;-111 255 -294 355 -370 39 -30 105 -85 146 -122 70 -64 98 -86 193 -147 22&#xA;-14 87 -56 146 -94 102 -66 171 -99 433 -206 227 -92 805 -240 939 -240 52 0&#xA;128 -13 449 -76 257 -51 357 -86 624 -220 198 -99 394 -217 522 -314 139 -105&#xA;435 -410 553 -570 55 -74 120 -166 143 -205 24 -38 60 -95 80 -125 47 -69 90&#xA;-155 122 -245 14 -38 53 -144 87 -235 66 -179 68 -185 112 -340 70 -245 71&#xA;-249 99 -450 6 -47 18 -123 26 -170 8 -47 14 -123 14 -170 0 -47 7 -120 15&#xA;-163 22 -113 21 -1252 0 -1372 -11 -60 -15 -173 -15 -455 0 -272 -4 -405 -15&#xA;-485 -9 -70 -15 -195 -15 -340 0 -159 -5 -256 -15 -315 -8 -47 -15 -137 -15&#xA;-200 0 -63 -5 -133 -11 -155 -6 -22 -13 -52 -16 -67 -3 -16 -9 -28 -13 -28&#xA;-23 0 -97 97 -140 182 -60 120 -257 415 -378 565 -257 320 -367 537 -403 793&#xA;-10 75 -2 370 12 415 5 17 13 71 18 120 13 119 139 525 174 560 10 11 10 5&#xA;-18 -120 -27 -126 -36 -188 -45 -315 -5 -69 -14 -147 -20 -175 -13 -57 -5&#xA;-268 10 -273 6 -2 10 -10 10 -17 0 -8 8 -16 19 -20 92 -29 251 234 351 580 43&#xA;151 21 802 -32 912 -17 36 -54 41 -107 14 -52 -27 -267 -235 -331 -320 -61&#xA;-82 -160 -271 -193 -371 -50 -149 -60 -220 -55 -394 5 -153 8 -170 53 -341 29&#xA;-111 51 -219 57 -280 5 -55 13 -112 18 -127 11 -36 -2 -36 -25 -1 -10 15 -31&#xA;38 -47 51 -142 120 -230 231 -401 513 -138 227 -273 568 -313 794 -24 136 -38&#xA;165 -92 184 -41 15 -45 14 -80 -4 -36 -19 -37 -22 -40 -82 -4 -75 33 -262 82&#xA;-419 19 -60 41 -134 50 -163 9 -30 34 -104 56 -163 22 -59 40 -117 40 -128 0&#xA;-12 7 -35 16 -51 19 -37 13 -45 -18 -26 -12 8 -45 20 -72 26 -58 14 -155 58&#xA;-209 95 -21 15 -55 35 -76 46 -71 35 -444 262 -550 333 -138 91 -326 243 -372&#xA;299 -346 420 -484 645 -583 950 -88 268 -133 476 -146 673 -5 77 -14 160 -20&#xA;184 -27 112 -9 323 45 541 8 30 21 89 31 130 9 41 20 80 24 85 4 6 25 51 46&#xA;100 21 50 56 119 79 155 115 180 134 208 144 214 18 11 14 1 -33 -87 -52 -96&#xA;-113 -266 -156 -431 -36 -141 -36 -147 -7 -174 29 -27 42 -27 92 -1 167 89&#xA;369 389 430 639 14 58 29 119 34 135 18 60 40 182 52 291 19 171 0 198 -111&#xA;157 -48 -18 -208 -107 -275 -153 -122 -84 -301 -280 -361 -396 -94 -181 -154&#xA;-428 -134 -561 12 -86 12 -223 -1 -288 -5 -27 -15 -187 -20 -355 -6 -168 -11&#xA;-329 -12 -357 -1 -29 -4 -53 -7 -53 -3 0 -12 13 -21 29 -9 15 -34 41 -55 57&#xA;-22 16 -70 56 -109 88 -85 73 -233 146 -294 146 -36 0 -43 -4 -52 -27 -24 -63&#xA;23 -201 108 -321 81 -114 124 -155 268 -252 204 -138 249 -185 288 -300 54&#xA;-157 101 -268 187 -440 15 -30 59 -105 98 -166 38 -61 77 -126 85 -145 7 -19&#xA;26 -49 41 -66 31 -37 28 -39 -29 -19 -22 8 -71 24 -110 36 -78 24 -343 134&#xA;-450 188 -146 72 -306 188 -417 300 -172 175 -345 454 -438 707 -58 157 -93&#xA;269 -114 371 -30 137 -45 169 -86 177 -46 10 -80 -7 -81 -40 -3 -95 25 -261&#xA;71 -418 12 -38 28 -95 37 -125 38 -135 79 -244 133 -355 33 -66 62 -133 66&#xA;-150 4 -16 15 -41 26 -54 28 -36 22 -44 -19 -22 -21 11 -59 27 -84 36 -90 31&#xA;-390 248 -624 450 -193 168 -416 438 -632 765 -123 187 -140 214 -175 281 -36&#xA;70 -68 121 -81 130 -4 3 -17 23 -29 45 -11 21 -27 43 -34 47 -8 5 -12 12 -9&#xA;16 2 5 -15 28 -40 52 -24 24 -41 47 -39 51 3 4 0 8 -5 8 -6 0 -10 4 -8 9 1 4&#xA;-37 57 -84 117 -76 97 -111 150 -184 282 -47 84 -79 177 -126 361 -27 107 -45&#xA;199 -41 203 5 5 16 -16 26 -47 9 -30 44 -111 76 -180 33 -69 60 -129 60 -134&#xA;0 -4 19 -37 42 -72 43 -66 57 -89 95 -156 28 -50 116 -133 142 -133 39 0 51&#xA;47 51 199 0 162 -10 217 -77 409 -50 146 -105 266 -155 340 -89 128 -294 382&#xA;-343 424 -53 45 -111 -1 -147 -117 -29 -92 -78 -365 -78 -433 0 -40 32 -221&#xA;51 -287 23 -82 72 -222 95 -269 82 -166 314 -421 483 -530 l98 -64 158 -318&#xA;c153 -310 225 -440 328 -594 240 -358 637 -767 988 -1017 41 -29 104 -77 142&#xA;-106 37 -30 109 -75 160 -102 50 -26 124 -67 163 -91 93 -55 574 -296 678&#xA;-339 45 -18 166 -70 269 -114 104 -45 190 -81 193 -81 21 0 391 -164 562 -248&#xA;119 -60 235 -116 257 -125 60 -25 215 -117 265 -158 25 -20 60 -44 78 -53 17&#xA;-9 32 -18 32 -19 0 -2 -36 -1 -405 9 -174 5 -216 3 -320 -15 -252 -44 -339&#xA;-63 -490 -110 -225 -71 -250 -79 -350 -115 -110 -40 -225 -70 -325 -86 -36 -6&#xA;-93 -16 -127 -21 -80 -13 -492 -6 -603 10 -308 46 -610 156 -872 319 -144 89&#xA;-149 92 -175 92 -62 0 -99 -39 -89 -94 10 -53 226 -212 404 -297 45 -21 86&#xA;-39 91 -39 5 0 35 -12 67 -26 53 -23 144 -52 355 -113 125 -36 318 -61 469&#xA;-61 130 0 244 -13 264 -31 20 -18 -60 -104 -214 -232 -118 -98 -180 -158 -268&#xA;-262 -42 -49 -84 -96 -94 -103 -10 -8 -45 -50 -78 -95 -33 -45 -63 -86 -67&#xA;-92 -5 -5 -44 -59 -88 -120 -90 -126 -139 -181 -176 -200 -14 -8 -81 -32 -148&#xA;-55 -338 -113 -514 -247 -694 -528 -104 -163 -167 -375 -122 -412 32 -27 188&#xA;15 395 104 161 70 252 130 360 236 119 116 155 172 225 345 97 239 144 322&#xA;297 515 62 79 400 422 483 489 39 32 108 84 155 116 47 32 108 75 136 96 81&#xA;59 401 249 499 295 79 37 151 63 260 94 17 4 75 22 130 39 89 27 116 31 243&#xA;33 78 2 142 0 142 -4 0 -4 -9 -12 -19 -18 -11 -5 -27 -17 -36 -26 -26 -26 -76&#xA;-58 -115 -73 -116 -46 -281 -153 -347 -224 -113 -124 -222 -419 -199 -541 6&#xA;-31 11 -36 42 -42 31 -6 53 2 152 51 107 53 123 65 229 171 107 109 116 121&#xA;173 238 33 68 73 160 89 204 37 105 61 145 113 182 132 97 313 139 473 110 28&#xA;-5 84 -14 125 -20 149 -22 393 -102 565 -184 61 -29 179 -100 263 -157 212&#xA;-144 205 -139 243 -189 18 -25 45 -55 59 -67 l25 -22 -65 5 c-36 2 -122 12&#xA;-192 21 -119 16 -134 16 -232 0 -57 -9 -114 -17 -127 -17 -99 0 -391 -130&#xA;-539 -240 -205 -152 -289 -287 -209 -332 58 -34 88 -22 198 77 105 94 226 163&#xA;396 226 l90 34 225 0 225 0 95 -33 c52 -18 151 -60 219 -93 120 -59 127 -64&#xA;262 -196 138 -135 211 -228 269 -343 46 -91 117 -279 157 -414 55 -188 114&#xA;-525 113 -656 0 -41 7 -113 15 -160 12 -68 15 -189 15 -615 0 -426 -3 -547&#xA;-15 -615 -8 -47 -15 -145 -15 -220 0 -74 -7 -175 -15 -225 -8 -50 -15 -159&#xA;-15 -245 -1 -85 -5 -177 -10 -205 -28 -150 -25 -199 15 -217 21 -9 29 -8 46 8&#xA;46 42 208 293 275 427 20 40 58 108 85 152 46 76 139 284 198 445 16 41 45&#xA;120 66 175 21 55 50 145 65 200 16 55 42 148 58 206 16 58 33 130 37 160 8 62&#xA;39 196 60 254 8 22 16 51 17 65 6 49 22 24 42 -65 41 -186 7 -542 -89 -925 -9&#xA;-36 -20 -81 -25 -101 -27 -104 -252 -630 -345 -804 -39 -71 -77 -148 -86 -170&#xA;-8 -22 -68 -131 -132 -241 -63 -111 -128 -226 -143 -255 -15 -30 -66 -119&#xA;-114 -199 -48 -80 -102 -175 -120 -210 -18 -36 -56 -105 -85 -155 -29 -49 -78&#xA;-135 -111 -190 -162 -278 -287 -446 -466 -621 -125 -124 -338 -293 -453 -361&#xA;-27 -17 -89 -55 -137 -86 -112 -73 -333 -183 -484 -242 -65 -25 -128 -50 -139&#xA;-55 -92 -41 -524 -151 -740 -188 -33 -5 -71 -31 -70 -47 3 -57 99 -75 413 -75&#xA;163 0 270 5 342 15 519 77 779 141 1135 280 88 34 189 68 225 75 36 6 73 16&#xA;83 22 25 13 34 2 15 -19 -8 -10 -22 -39 -31 -64 -10 -25 -36 -74 -60 -109 -23&#xA;-34 -55 -82 -70 -106 l-29 -44 24 -20 c40 -34 94 -16 278 93 131 78 207 128&#xA;305 204 311 241 697 733 904 1152 198 403 219 454 311 751 22 74 50 162 60&#xA;195 33 104 115 460 145 630 9 50 22 126 30 170 8 44 15 96 15 115 0 36 18 184&#xA;45 365 8 55 15 147 15 205 0 58 7 148 15 200 11 74 15 208 15 600 0 392 4 526&#xA;15 600 8 52 15 122 15 155 1 33 5 80 10 105 5 25 14 83 20 130 11 93 41 223&#xA;96 420 48 171 174 428 277 566 84 112 147 173 252 244 114 76 153 96 300 152&#xA;l140 53 215 0 215 0 115 -38 c63 -21 128 -46 145 -54 53 -28 218 -138 293&#xA;-196 89 -69 104 -74 153 -52 34 16 39 22 39 50 0 80 -229 299 -410 394 -133&#xA;70 -279 116 -447 142 -141 22 -144 22 -280 5 -76 -9 -159 -20 -185 -25 -34 -5&#xA;-48 -4 -48 4 0 23 99 132 170 187 156 120 312 207 524 293 196 78 389 135 462&#xA;135 16 0 64 7 107 15 100 19 139 19 234 -1 90 -18 136 -39 220 -103 55 -40 68&#xA;-57 108 -137 25 -50 45 -98 45 -107 0 -9 5 -19 10 -22 6 -3 10 -14 10 -23 0&#xA;-29 65 -152 124 -236 72 -103 202 -209 340 -277 104 -51 124 -56 157 -39 27&#xA;15 25 92 -7 215 -29 114 -64 195 -130 301 -54 87 -93 123 -177 165 -34 18 -91&#xA;50 -127 73 -36 23 -78 48 -95 54 -36 16 -165 103 -165 112 0 6 104 4 235 -4&#xA;106 -7 322 -69 490 -140 124 -52 156 -68 310 -155 166 -95 416 -269 498 -348&#xA;29 -28 84 -75 122 -105 85 -67 296 -277 375 -373 126 -153 224 -323 300 -520&#xA;69 -177 105 -231 240 -365 112 -113 135 -131 225 -177 164 -84 298 -135 418&#xA;-159 84 -18 90 -18 102 -1 7 9 17 17 24 17 42 0 -39 252 -119 369 -9 14 -41&#xA;64 -71 110 -64 100 -124 161 -237 243 -113 82 -328 178 -452 203 -55 11 -101&#xA;39 -151 92 -59 61 -144 171 -194 248 -76 120 -91 140 -180 239 -131 146 -183&#xA;197 -352 345 -84 74 -153 136 -153 140 0 3 -16 24 -35 46 l-36 40 68 11 c37 7&#xA;137 13 222 13 278 2 565 66 857 194 209 91 463 258 500 328 13 26 13 32 -1 59&#xA;-30 57 -78 65 -146 22 -94 -60 -296 -180 -334 -200 -116 -58 -362 -134 -549&#xA;-169 -44 -8 -101 -19 -126 -23 -25 -5 -154 -9 -286 -9 -341 -1 -429 16 -889&#xA;170 -376 125 -381 127 -685 175 -107 17 -288 16 -595 -5 -60 -4 -114 -4 -119&#xA;0 -4 4 9 16 31 27 22 12 64 40 94 64 30 24 68 52 84 64 45 31 239 127 338 168&#xA;49 20 123 54 165 75 74 37 288 130 532 231 63 27 183 78 265 115 83 37 201 89&#xA;264 116 63 27 148 68 190 91 42 23 103 56 136 74 33 17 93 50 134 73 41 22 76&#xA;41 78 41 3 0 28 15 56 33 29 19 97 60 152 93 110 65 471 331 550 405 28 26 81&#xA;72 118 101 73 59 187 184 337 373 165 207 270 361 362 534 23 42 55 99 73 126&#xA;42 67 148 285 175 360 33 93 79 180 108 208 15 14 48 38 73 54 118 72 168 111&#xA;263 206 97 96 195 227 245 325 55 108 121 331 122 413 0 30 4 77 9 104 24 137&#xA;-49 521 -113 593 -28 31 -74 28 -113 -6 -85 -75 -337 -427 -409 -572 -43 -88&#xA;-79 -185 -111 -305 -23 -83 -28 -127 -32 -261 -3 -135 -1 -166 12 -193 17 -32&#xA;30 -39 41 -21 3 6 15 10 26 10 27 0 84 66 135 155 6 11 28 52 49 90 21 39 57&#xA;104 81 147 46 81 124 275 124 308 0 11 5 20 11 20 16 0 3 -109 -25 -205 -13&#xA;-44 -31 -107 -41 -140 -10 -33 -26 -78 -36 -100 -10 -22 -29 -69 -42 -105 -36&#xA;-97 -73 -165 -138 -258 -33 -45 -59 -84 -59 -87 0 -8 -31 -45 -115 -134 -44&#xA;-48 -92 -109 -106 -136 -80 -151 -266 -443 -415 -650 -170 -238 -381 -473&#xA;-549 -612 -49 -41 -110 -94 -135 -117 -121 -113 -411 -306 -460 -306 -6 0 -28&#xA;-12 -50 -26 -48 -32 -60 -26 -30 14 12 16 26 47 31 70 5 22 40 105 78 184 80&#xA;164 122 285 179 518 74 297 77 366 18 381 -38 10 -81 -7 -95 -38 -7 -14 -23&#xA;-83 -37 -152 -30 -149 -50 -214 -115 -379 -78 -196 -129 -287 -257 -457 -150&#xA;-202 -298 -347 -458 -452 -63 -40 -133 -82 -157 -92 -23 -10 -98 -46 -167 -79&#xA;-153 -73 -270 -118 -330 -127 -25 -3 -56 -9 -70 -12 l-25 -6 22 24 c12 14 29&#xA;43 36 65 8 22 54 99 101 171 82 124 134 228 246 498 100 240 110 253 295 373&#xA;138 89 289 242 338 344 51 105 85 248 58 248 -5 0 -11 10 -14 21 -5 19 -11 21&#xA;-44 15 -81 -14 -168 -64 -273 -155 -36 -32 -84 -72 -106 -90 -23 -18 -50 -48&#xA;-60 -67 -10 -19 -21 -34 -24 -34 -4 0 -7 123 -9 273 -1 198 -6 298 -18 367&#xA;-13 72 -17 152 -15 329 1 195 -2 248 -18 320 -59 275 -140 434 -303 594 -135&#xA;134 -429 317 -509 317 -59 0 -73 -107 -38 -291 39 -205 89 -393 125 -476 45&#xA;-102 173 -282 264 -373 102 -101 144 -126 183 -111 40 15 44 60 18 183 -38&#xA;178 -87 306 -178 466 -59 105 -29 84 50 -33 127 -190 236 -419 263 -555 4 -19&#xA;13 -44 20 -55 10 -16 13 -106 14 -381 l2 -359 -36 -180 c-62 -308 -133 -531&#xA;-227 -720 -148 -293 -316 -522 -554 -756 -142 -139 -250 -218 -499 -366 -55&#xA;-33 -132 -81 -172 -106 -39 -26 -75 -47 -79 -47 -4 0 -46 -23 -93 -52 -108&#xA;-65 -291 -158 -312 -158 -9 0 -33 -11 -54 -25 -42 -29 -54 -26 -36 8 6 12 31&#xA;78 55 147 24 69 63 179 86 245 24 66 49 142 56 170 7 27 20 75 29 105 53 176&#xA;67 322 34 356 -28 27 -74 34 -111 16 -37 -19 -56 -52 -74 -132 -41 -183 -108&#xA;-380 -196 -575 -90 -201 -165 -324 -341 -560 -105 -141 -122 -160 -207 -242&#xA;l-65 -61 2 88 c1 49 6 97 11 107 5 10 13 36 17 58 4 22 17 72 30 112 39 118&#xA;85 360 85 443 -1 88 -39 282 -84 425 -16 53 -86 180 -164 299 -53 80 -255 290&#xA;-319 330 -25 15 -57 26 -78 26 -43 0 -49 -13 -72 -140 -21 -114 -30 -680 -13&#xA;-760 50 -230 206 -551 288 -594 25 -13 30 -12 56 11 l29 25 5 151 c3 107 0&#xA;182 -11 252 -8 55 -21 145 -27 200 -7 55 -18 127 -26 161 -25 108 -11 113 26&#xA;9 124 -347 154 -504 164 -870 2 -88 5 -164 7 -170 5 -20 -51 -206 -93 -308&#xA;-38 -93 -120 -215 -349 -522 -107 -143 -223 -309 -257 -368 -34 -60 -62 -111&#xA;-62 -114 0 -2 -14 -32 -30 -65 -30 -60 -96 -143 -113 -143 -19 0 -38 86 -47&#xA;210 -5 72 -14 154 -19 184 -6 29 -11 162 -11 295 0 161 -5 273 -15 336 -11 69&#xA;-15 187 -15 425 0 243 -4 354 -15 420 -22 134 -22 1520 0 1645 8 47 15 114 15&#xA;149 0 140 63 487 126 701 72 239 92 298 155 455 121 300 200 442 372 675 120&#xA;163 433 485 579 596 205 156 417 276 698 394 167 70 208 84 325 114 193 48&#xA;282 66 525 101 238 35 309 48 453 85 165 42 173 44 402 115 130 41 319 119&#xA;450 188 37 19 285 184 420 280 78 55 440 417 510 510 30 40 68 88 84 107 17&#xA;19 31 40 31 45 0 16 91 101 125 118 17 8 57 22 90 32 108 33 399 145 445 172&#xA;63 37 264 242 337 343 69 97 109 172 147 280 65 178 66 254 6 285 -33 17 -44&#xA;17 -120 0z"></path>
<path d="M1965 22060 c-25 -28 -15 -123 26 -243 64 -186 161 -339 314 -493&#xA;138 -139 205 -180 406 -249 90 -31 216 -74 279 -95 105 -36 116 -38 127 -23 8&#xA;10 9 20 3 28 -12 14 -95 230 -121 315 -34 108 -91 230 -136 291 -24 31 -95&#xA;106 -158 167 -102 98 -129 119 -240 177 -223 119 -454 176 -500 125z"></path>
<path d="M2095 20810 c-166 -38 -257 -71 -425 -155 -175 -87 -270 -161 -270&#xA;-210 0 -24 32 -55 80 -77 25 -11 97 -44 160 -73 175 -79 319 -126 496 -160&#xA;114 -21 478 -21 589 1 315 63 399 98 377 162 -8 25 -130 73 -232 91 -30 5&#xA;-113 21 -183 35 -71 14 -141 26 -157 26 -15 0 -47 7 -71 16 -32 12 -90 18&#xA;-211 22 -236 6 -223 19 45 42 59 5 111 11 115 14 4 2 41 9 82 14 78 11 128 7&#xA;315 -23 55 -9 128 -19 161 -22 l62 -5 12 36 c14 43 12 46 -53 95 -92 67 -264&#xA;140 -407 172 -116 25 -370 25 -485 -1z"></path>
<path d="M14575 20810 c-171 -38 -277 -81 -410 -169 -61 -40 -77 -57 -91 -97&#xA;l-12 -36 66 5 c37 3 114 14 172 24 138 24 386 24 570 -1 198 -26 201 -26 195&#xA;-37 -4 -5 -70 -9 -148 -9 -85 -1 -174 -7 -222 -16 -44 -9 -116 -22 -160 -29&#xA;-228 -37 -365 -71 -451 -110 -49 -23 -55 -28 -52 -53 3 -30 42 -54 126 -77 26&#xA;-7 79 -22 117 -33 150 -42 237 -52 437 -52 206 0 268 8 479 60 155 39 518 200&#xA;542 241 28 45 -29 102 -203 201 -142 81 -342 156 -518 193 -102 21 -331 19&#xA;-437 -5z"></path>
<path d="M10485 20541 c-146 -53 -255 -112 -372 -200 -181 -136 -322 -336&#xA;-348 -493 -7 -47 3 -94 18 -79 6 6 19 11 29 11 28 0 93 51 117 92 11 20 60 70&#xA;109 110 48 40 111 95 140 122 63 60 69 43 8 -25 -25 -27 -65 -80 -90 -118 -24&#xA;-37 -51 -74 -58 -82 -37 -37 -183 -258 -178 -269 27 -57 31 -61 63 -55 106 22&#xA;280 122 377 215 133 128 259 366 299 567 27 130 27 177 1 203 -24 24 -49 24&#xA;-115 1z"></path>
<path d="M6536 20537 c-17 -12 -18 -22 -12 -98 9 -115 48 -266 88 -341 49 -95&#xA;154 -255 200 -304 40 -44 198 -154 273 -191 62 -31 136 -46 168 -34 38 15 35&#xA;54 -8 121 -19 30 -35 59 -35 63 0 24 -101 158 -192 257 -56 61 -107 118 -111&#xA;126 -18 32 14 8 108 -81 230 -219 259 -244 290 -243 17 0 37 -1 45 -3 12 -3&#xA;15 7 14 56 -3 109 -87 257 -210 368 -167 149 -254 208 -401 268 -111 46 -188&#xA;59 -217 36z"></path>
<path d="M2524 19820 c-15 -6 -26 -26 -38 -72 -9 -34 -24 -80 -33 -100 l-16&#xA;-38 -82 0 c-67 0 -85 -3 -98 -18 -25 -28 -21 -41 34 -114 57 -76 69 -109 69&#xA;-188 0 -73 -19 -101 -123 -189 -171 -144 -235 -260 -283 -514 -22 -116 -7&#xA;-270 47 -486 66 -266 272 -492 519 -571 111 -36 343 -80 419 -80 65 0 240 30&#xA;351 61 41 11 116 42 166 68 103 54 269 176 330 243 48 52 113 160 144 238 12&#xA;30 28 69 35 85 30 70 37 141 33 310 -7 247 -39 355 -170 575 -121 204 -326&#xA;337 -554 360 -112 12 -218 38 -257 64 -61 42 -72 76 -70 218 1 70 -1 127 -5&#xA;126 -4 -1 -15 2 -25 7 -23 10 -73 -17 -129 -67 -40 -36 -43 -37 -62 -20 -12 9&#xA;-23 20 -26 23 -3 3 -12 8 -20 12 -8 4 -37 23 -64 42 -51 37 -58 39 -92 25z&#xA;m712 -581 c32 -5 101 -31 153 -56 82 -39 108 -59 191 -142 133 -132 190 -240&#xA;225 -426 17 -88 16 -259 -2 -348 -5 -27 -7 -28 -14 -12 -4 11 -8 48 -8 83 -2&#xA;160 -86 407 -191 562 -79 116 -258 258 -391 310 -38 15 -72 30 -76 33 -10 10&#xA;45 8 113 -4z"></path>
<path d="M14563 19817 c-11 -6 -48 -33 -81 -59 -33 -27 -69 -48 -80 -48 -10 0&#xA;-43 23 -73 50 -65 60 -80 66 -113 44 -23 -15 -25 -20 -18 -58 4 -22 7 -75 7&#xA;-116 -1 -86 -20 -128 -76 -169 -38 -28 -147 -58 -244 -66 -124 -11 -274 -69&#xA;-361 -141 -204 -166 -287 -306 -364 -609 -36 -143 -38 -219 -10 -363 36 -183&#xA;72 -269 168 -397 66 -89 114 -132 249 -223 117 -80 196 -115 339 -152 108 -28&#xA;127 -30 307 -30 257 0 383 25 530 102 90 48 271 230 319 323 88 170 128 345&#xA;128 560 -1 292 -74 447 -303 641 -104 89 -122 121 -114 205 6 64 21 97 84 183&#xA;29 41 43 69 41 86 -3 24 -6 25 -78 28 -41 1 -85 4 -97 7 -27 6 -60 65 -69 124&#xA;-7 44 -37 91 -57 91 -7 0 -22 -6 -34 -13z m-519 -566 c4 -5 -24 -19 -61 -31&#xA;-124 -40 -261 -126 -350 -219 -88 -91 -181 -253 -221 -382 -30 -99 -55 -274&#xA;-48 -341 3 -32 2 -58 -3 -58 -15 0 -22 31 -33 148 -17 171 4 312 69 451 76&#xA;165 199 294 358 374 71 35 138 51 272 66 6 0 14 -3 17 -8z"></path>
<path d="M6108 18872 c-22 -32 -69 -134 -109 -239 -9 -23 -11 -24 -27 -11 -9&#xA;8 -60 36 -113 61 -99 48 -164 62 -152 31 3 -9 1 -19 -5 -23 -7 -4 -2 -22 14&#xA;-51 82 -151 102 -223 89 -313 -12 -77 -56 -117 -187 -172 -161 -67 -204 -90&#xA;-280 -152 -138 -112 -245 -256 -302 -407 -57 -150 -102 -389 -93 -498 16 -210&#xA;69 -402 157 -578 121 -241 334 -405 669 -514 247 -81 454 -105 608 -71 448&#xA;100 723 265 897 539 76 117 106 195 157 396 25 100 27 399 3 516 -40 196 -114&#xA;365 -210 478 -120 141 -248 233 -402 291 -155 58 -175 68 -215 104 -97 87&#xA;-104 209 -22 376 14 28 26 61 27 74 3 22 -1 25 -39 28 -32 2 -58 -6 -118 -37&#xA;-43 -22 -86 -40 -96 -40 -12 0 -35 31 -73 101 -31 56 -56 104 -56 106 0 3 -10&#xA;13 -22 24 -37 30 -69 24 -100 -19z m-358 -879 c-67 -50 -235 -229 -281 -298&#xA;-69 -105 -74 -115 -109 -195 -73 -170 -110 -463 -81 -633 30 -171 77 -312 131&#xA;-387 12 -17 17 -30 12 -30 -12 0 -63 72 -120 171 -105 184 -127 273 -127 519&#xA;0 151 3 187 24 265 21 84 35 114 121 270 31 56 131 163 209 223 46 36 211 121&#xA;236 121 16 0 13 -5 -15 -26z"></path>
<path d="M10938 18885 c-16 -14 -46 -63 -69 -108 -78 -152 -69 -140 -89 -122&#xA;-9 8 -54 34 -99 56 -67 33 -87 39 -109 31 -39 -12 -39 -41 0 -124 31 -68 33&#xA;-79 33 -184 0 -110 -1 -113 -30 -151 -32 -40 -128 -94 -200 -113 -22 -6 -86&#xA;-34 -143 -62 -92 -45 -115 -61 -210 -157 -197 -195 -274 -347 -327 -643 -26&#xA;-148 -18 -289 27 -493 27 -121 121 -297 236 -442 23 -29 80 -85 126 -125 79&#xA;-69 124 -97 241 -149 28 -12 83 -37 124 -56 131 -60 412 -123 546 -123 89 1&#xA;224 31 425 95 184 59 306 137 465 300 131 134 204 266 251 455 45 178 54 245&#xA;54 384 0 124 -4 156 -30 261 -51 201 -85 277 -180 403 -94 125 -225 228 -396&#xA;313 -210 104 -241 143 -231 293 5 70 11 92 52 173 54 106 56 136 9 141 -31 3&#xA;-188 -64 -227 -96 -9 -8 -18 -13 -20 -11 -20 35 -43 79 -77 149 -65 133 -97&#xA;156 -152 105z m-369 -858 c-2 -2 -36 -22 -75 -45 -78 -45 -217 -183 -283 -280&#xA;-222 -328 -270 -779 -121 -1131 17 -38 30 -74 30 -78 -1 -27 -148 251 -168&#xA;317 -30 98 -45 244 -39 384 9 208 44 323 145 481 68 106 226 250 322 292 61&#xA;27 185 71 189 67 2 -2 2 -5 0 -7z"></path>
<path d="M16310 18015 c-92 -12 -151 -24 -266 -54 -113 -30 -336 -192 -379&#xA;-275 -25 -48 -20 -63 23 -68 41 -5 88 6 212 51 120 45 298 91 345 91 30 0 36&#xA;-3 25 -10 -8 -5 -23 -10 -33 -10 -30 0 -176 -61 -262 -109 -44 -25 -95 -52&#xA;-112 -60 -18 -8 -33 -19 -33 -23 0 -4 -6 -8 -14 -8 -7 0 -42 -22 -77 -48 -62&#xA;-46 -64 -49 -61 -87 2 -22 6 -42 9 -45 10 -11 268 1 336 16 197 40 407 150&#xA;672 350 118 89 155 132 155 181 0 54 -79 88 -241 103 -53 5 -118 11 -145 14&#xA;-27 2 -96 -2 -154 -9z"></path>
<path d="M535 18014 c-62 -9 -181 -38 -212 -51 -60 -25 -66 -74 -17 -133 15&#xA;-17 83 -76 151 -130 106 -85 152 -113 306 -190 150 -74 204 -96 307 -121 109&#xA;-27 137 -31 236 -27 118 3 144 13 144 52 0 42 -165 166 -312 236 -105 49 -215&#xA;90 -243 90 -8 0 -15 5 -15 10 0 6 7 10 16 10 21 0 165 -41 314 -90 146 -48&#xA;207 -57 233 -36 28 22 12 58 -54 123 -102 100 -286 194 -452 232 -80 18 -337&#xA;34 -402 25z"></path>
<path d="M16355 17170 c-4 -6 -10 -8 -15 -5 -17 10 -30 -34 -30 -98 0 -67 -27&#xA;-172 -61 -238 -38 -75 -165 -100 -334 -64 -119 25 -281 20 -415 -14 -184 -47&#xA;-243 -79 -433 -238 -81 -68 -188 -216 -263 -364 -76 -153 -99 -219 -124 -358&#xA;-24 -129 -25 -199 -5 -305 40 -206 65 -265 201 -471 114 -172 212 -279 324&#xA;-350 118 -76 324 -170 450 -206 104 -30 130 -34 275 -37 148 -3 169 -1 270 23&#xA;115 28 238 75 340 129 76 40 293 253 356 351 65 99 166 308 186 385 14 51 18&#xA;107 18 255 0 169 -3 200 -24 280 -29 110 -40 131 -141 286 -97 148 -119 209&#xA;-102 275 17 61 62 115 152 181 71 52 99 83 100 110 0 22 -63 47 -150 57 l-85&#xA;11 -5 131 c-7 184 -26 210 -120 159 -25 -14 -73 -39 -107 -56 -35 -17 -63 -35&#xA;-63 -40 0 -21 -20 -7 -26 19 -4 15 -20 46 -36 69 -15 23 -28 46 -28 52 0 5&#xA;-15 26 -34 45 -33 36 -59 45 -71 26z m449 -1235 c68 -136 80 -193 80 -370 -1&#xA;-136 -3 -158 -29 -235 -103 -317 -303 -523 -617 -639 -32 -11 -58 -17 -58 -13&#xA;0 4 38 27 85 51 131 68 252 188 358 353 174 273 219 671 106 936 -49 113 9 49&#xA;75 -83z"></path>
<path d="M739 17153 c-24 -15 -45 -44 -77 -104 -7 -14 -26 -41 -41 -60 l-28&#xA;-33 -103 52 c-125 63 -162 67 -186 20 -13 -25 -15 -44 -8 -92 9 -65 9 -174 1&#xA;-182 -3 -3 -45 -7 -94 -9 -107 -4 -157 -19 -150 -46 3 -11 0 -19 -5 -19 -21 0&#xA;26 -40 102 -90 120 -76 164 -139 164 -230 -1 -64 -14 -91 -110 -230 -106 -154&#xA;-131 -217 -159 -400 -35 -234 -4 -437 97 -632 53 -103 85 -145 211 -287 147&#xA;-165 241 -233 420 -306 175 -70 244 -85 402 -85 156 0 228 11 389 61 259 80&#xA;438 200 610 410 145 176 199 268 253 427 35 102 37 115 41 266 5 175 -3 229&#xA;-50 371 -53 157 -131 288 -280 470 -160 195 -314 286 -571 336 -118 23 -232&#xA;24 -347 4 -106 -19 -201 -19 -243 -1 -49 21 -104 83 -127 143 -11 29 -24 93&#xA;-30 142 -5 49 -13 97 -16 105 -8 20 -31 19 -65 -1z m-330 -1132 c-45 -93 -60&#xA;-164 -66 -318 -7 -163 0 -208 57 -385 46 -143 118 -269 226 -393 73 -83 111&#xA;-114 249 -202 60 -38 65 -44 37 -39 -56 10 -178 72 -266 136 -93 68 -202 182&#xA;-264 279 -119 184 -171 462 -122 657 29 114 135 324 164 324 10 0 6 -15 -15&#xA;-59z"></path>
<path d="M2826 15335 c-14 -33 -14 -44 -1 -100 13 -56 51 -153 117 -293 44&#xA;-94 211 -276 321 -350 166 -112 602 -214 638 -149 5 9 16 14 24 11 30 -12 19&#xA;10 -90 176 -33 50 -95 145 -138 212 -43 66 -104 146 -135 177 -149 149 -507&#xA;338 -659 349 l-62 4 -15 -37z"></path>
<path d="M14215 15354 c-140 -41 -189 -58 -261 -93 -85 -41 -242 -141 -313&#xA;-199 -63 -52 -150 -163 -242 -309 -45 -70 -98 -153 -118 -183 -48 -71 -74&#xA;-129 -52 -116 4 3 19 -3 31 -14 29 -25 69 -25 180 -1 47 11 117 26 155 35 95&#xA;21 134 35 242 89 170 86 326 271 419 497 40 98 62 169 70 227 6 50 6 52 -24&#xA;67 -17 9 -32 16 -34 15 -2 -1 -25 -8 -53 -15z"></path>
<path d="M2005 13756 c-96 -20 -205 -50 -270 -76 -11 -4 -64 -24 -118 -45 -93&#xA;-35 -280 -132 -360 -187 -22 -14 -45 -37 -52 -51 -11 -22 -10 -29 5 -55 10&#xA;-16 31 -38 47 -49 116 -83 553 -253 649 -253 17 0 73 -7 125 -16 88 -16 101&#xA;-16 204 0 167 26 239 45 365 95 150 60 272 130 340 194 30 28 58 52 62 52 11&#xA;0 22 15 11 15 -6 0 -14 11 -17 25 -8 30 -41 33 -120 11 -79 -23 -207 -46 -251&#xA;-46 -22 0 -78 -7 -125 -15 -109 -18 -617 -9 -597 11 2 2 62 9 133 14 190 16&#xA;382 52 629 120 160 44 181 53 208 83 37 43 16 70 -85 109 -228 88 -540 114&#xA;-783 64z"></path>
<path d="M14655 13767 c-178 -35 -323 -82 -361 -118 -39 -37 -32 -62 29 -92&#xA;60 -30 87 -37 297 -83 85 -18 198 -45 250 -59 81 -21 288 -44 398 -45 13 0 21&#xA;-4 18 -8 -8 -14 -612 -25 -671 -13 -27 6 -102 20 -165 31 -63 12 -145 30 -182&#xA;40 -76 21 -153 17 -144 -7 4 -8 6 -18 6 -22 0 -25 166 -154 255 -198 61 -31&#xA;232 -98 309 -122 62 -19 173 -40 302 -58 39 -5 138 8 319 43 213 41 580 207&#xA;638 289 28 38 15 68 -45 108 -84 55 -252 139 -393 194 -165 66 -195 75 -336&#xA;107 -104 23 -136 26 -295 25 -99 -1 -201 -6 -229 -12z"></path>
<path d="M3715 13100 c-47 -19 -85 -84 -155 -260 -22 -58 -47 -118 -55 -135&#xA;-7 -16 -25 -59 -38 -95 -71 -187 -86 -228 -92 -255 -4 -16 -30 -100 -58 -185&#xA;-49 -153 -76 -211 -63 -140 3 19 10 98 15 175 13 191 82 498 157 698 8 20 14&#xA;48 14 62 0 13 5 27 10 30 6 3 10 18 10 33 0 21 -2 24 -10 12 -8 -12 -13 -13&#xA;-30 -2 -26 16 -42 8 -107 -60 -99 -102 -164 -194 -232 -328 -122 -239 -142&#xA;-321 -148 -593 -4 -182 -2 -209 21 -328 29 -146 70 -271 117 -360 73 -136 116&#xA;-121 282 97 296 391 403 593 451 854 44 241 48 293 31 418 -37 282 -59 373&#xA;-87 371 -7 0 -22 -4 -33 -9z"></path>
<path d="M13401 13081 c-20 -20 -28 -46 -50 -151 -56 -281 -56 -351 5 -620 33&#xA;-147 52 -204 110 -328 24 -51 44 -95 44 -98 0 -27 380 -542 428 -581 26 -21&#xA;76 -16 98 10 92 107 194 486 194 721 0 229 -56 437 -181 675 -80 153 -139 226&#xA;-261 324 -42 34 -49 37 -68 25 -11 -7 -23 -23 -26 -35 -4 -14 22 -107 66 -239&#xA;79 -239 101 -351 120 -599 6 -82 13 -156 15 -162 3 -7 0 -13 -5 -13 -5 0 -14&#xA;19 -21 43 -30 116 -123 412 -154 492 -19 50 -44 121 -56 159 -11 38 -30 86&#xA;-40 105 -10 20 -19 39 -19 43 0 4 -20 41 -45 81 -25 41 -45 80 -45 86 0 6 -4&#xA;11 -10 11 -5 0 -10 6 -10 14 0 15 -45 56 -61 56 -5 0 -18 -9 -28 -19z"></path>
<path d="M5089 12891 c-143 -28 -196 -45 -315 -105 -183 -91 -272 -166 -428&#xA;-362 -47 -59 -118 -207 -140 -289 -37 -145 -46 -223 -46 -408 0 -223 17 -313&#xA;85 -454 88 -181 211 -315 415 -453 182 -123 210 -156 210 -239 0 -71 -38 -157&#xA;-117 -260 -22 -30 -33 -55 -33 -77 0 -30 3 -34 28 -35 56 -2 89 3 145 22 33&#xA;11 78 22 100 25 l42 5 22 -53 c13 -29 30 -76 38 -104 20 -67 49 -104 83 -104&#xA;21 0 47 21 117 96 l90 96 106 -62 c111 -64 184 -84 196 -55 3 8 -8 54 -23 102&#xA;-51 164 -46 265 18 338 48 55 86 75 193 105 159 43 395 172 489 266 105 104&#xA;237 340 279 499 54 201 67 347 42 484 -52 285 -121 441 -260 588 -83 89 -166&#xA;159 -228 194 -112 62 -258 131 -315 148 -351 106 -328 101 -527 106 -137 4&#xA;-189 1 -266 -14z m-58 -256 c-33 -18 -75 -45 -93 -59 -18 -15 -50 -40 -71 -56&#xA;-55 -42 -179 -178 -221 -244 -94 -147 -158 -325 -177 -492 -16 -144 -4 -329&#xA;27 -423 31 -92 26 -113 -10 -43 -79 156 -110 293 -109 487 0 108 5 147 27 230&#xA;48 178 103 272 240 409 70 70 111 101 176 135 86 45 248 103 264 93 4 -2 -19&#xA;-19 -53 -37z"></path>
<path d="M11650 12895 c-204 -31 -406 -97 -600 -196 -125 -63 -149 -80 -241&#xA;-167 -124 -118 -165 -172 -229 -304 -76 -155 -120 -334 -120 -487 0 -85 36&#xA;-280 72 -386 30 -89 120 -274 168 -344 112 -166 308 -301 555 -381 182 -59&#xA;231 -95 260 -192 20 -69 19 -83 -11 -205 -14 -57 -24 -116 -22 -131 3 -24 8&#xA;-27 45 -30 36 -3 55 5 134 52 51 31 99 56 108 56 9 0 54 -41 100 -90 90 -96&#xA;120 -110 154 -72 14 15 70 155 94 235 3 9 7 17 9 17 10 0 145 -39 153 -44 19&#xA;-12 107 -24 134 -19 25 5 27 9 24 42 -2 24 -18 57 -45 92 -89 118 -122 241&#xA;-86 320 15 35 41 56 168 142 113 75 178 128 257 207 95 95 111 116 163 220 89&#xA;175 106 256 106 505 0 334 -48 496 -215 720 -95 128 -148 177 -285 263 -253&#xA;160 -552 222 -850 177z m494 -246 c186 -55 262 -98 368 -206 90 -91 112 -121&#xA;167 -229 103 -206 121 -529 41 -770 -26 -80 -83 -185 -88 -161 -2 10 3 28 12&#xA;41 54 83 61 415 13 599 -34 126 -113 301 -176 386 -101 136 -264 277 -378 326&#xA;-24 11 -43 22 -43 27 0 11 5 11 84 -13z"></path>
<path d="M9334 8913 c-27 -18 -45 -71 -94 -273 -61 -248 -245 -726 -382 -990&#xA;-127 -246 -128 -243 55 -487 173 -231 283 -359 379 -440 50 -43 116 -100 147&#xA;-127 92 -80 257 -184 416 -262 82 -41 154 -74 160 -74 18 0 42 23 49 46 5 16&#xA;-11 44 -64 115 -38 52 -77 117 -86 144 -9 28 -23 58 -32 68 -21 24 -9 31 29&#xA;18 18 -6 43 -11 55 -11 13 0 144 -40 291 -89 376 -126 752 -231 827 -231 31 0&#xA;152 -18 311 -47 124 -23 551 -23 642 0 78 19 101 39 83 72 -10 19 -30 27 -109&#xA;45 -53 12 -139 32 -191 45 -52 13 -113 26 -135 30 -58 9 -464 146 -596 201&#xA;-221 91 -517 255 -699 387 -192 140 -415 366 -516 525 -21 31 -72 127 -114&#xA;212 -102 209 -187 463 -299 901 -21 80 -46 163 -57 185 -19 38 -46 53 -70 37z"></path>
</g>
</svg>