<?xml version="1.0" encoding="utf-8"?>
<!-- Generator: Adobe Illustrator 16.0.0, SVG Export Plug-In . SVG Version: 6.00 Build 0)  -->
<!DOCTYPE svg PUBLIC "-//W3C//DTD SVG 1.1//EN" "http://www.w3.org/Graphics/SVG/1.1/DTD/svg11.dtd">
<svg version="1.1" id="Layer_1" xmlns="http://www.w3.org/2000/svg" xmlns:xlink="http://www.w3.org/1999/xlink" x="0px" y="0px"
	 width="595px" height="841px" viewBox="0 0 595 841" enable-background="new 0 0 595 841" xml:space="preserve">
<path d="M295.25,253c-104.902,0-189.75,83.153-189.75,185.5S190.348,624,295.25,624C400.152,624,485,540.847,485,438.5
	S400.152,253,295.25,253z M295.25,243C405.466,243,495,330.424,495,438.5S405.466,634,295.25,634S95.5,546.576,95.5,438.5
	S185.034,243,295.25,243z"/>
<path fill="none" stroke="#000000" stroke-width="1.0001" stroke-miterlimit="3.8636" d="M295.25,253
	c-104.902,0-189.75,83.153-189.75,185.5S190.348,624,295.25,624C400.152,624,485,540.847,485,438.5S400.152,253,295.25,253z
	 M295.25,243C405.466,243,495,330.424,495,438.5S405.466,634,295.25,634S95.5,546.576,95.5,438.5S185.034,243,295.25,243z"/>
<path fill-rule="evenodd" clip-rule="evenodd" d="M275,521.25c0,0,7.5-23,8.75-32.5s0.5-16.25-2-17.75s-8.5-9.5-3.75-14.75
	s16.25-6.5,21.75-3.25s6,13.75,2.25,25.75s-8.75,22.25-13.25,28.5S275,521.25,275,521.25z"/>
<path fill="none" stroke="#000000" stroke-width="1.0001" stroke-linejoin="round" stroke-miterlimit="3.8636" d="M275,521.25
	c0,0,7.5-23,8.75-32.5s0.5-16.25-2-17.75s-8.5-9.5-3.75-14.75s16.25-6.5,21.75-3.25s6,13.75,2.25,25.75s-8.75,22.25-13.25,28.5
	S275,521.25,275,521.25z"/>
<path fill-rule="evenodd" clip-rule="evenodd" d="M303.5,497c0,0,15-29.5,23.75-32.75s13,5,14.5,7.5s2,13.5-0.75,13.75
	s-8.5-3.75-19.25-1.25S303.5,497,303.5,497z"/>
<path fill="none" stroke="#000000" stroke-width="1.0001" stroke-linejoin="round" stroke-miterlimit="3.8636" d="M303.5,497
	c0,0,15-29.5,23.75-32.75s13,5,14.5,7.5s2,13.5-0.75,13.75s-8.5-3.75-19.25-1.25S303.5,497,303.5,497z"/>
<path fill-rule="evenodd" clip-rule="evenodd" d="M205.5,574.25c2-3.75,5.25-4.75,10.5-3.25s26.5,3.75,35.75-14.25
	S257.5,530,253,527s-6.75-9.5-2.25-13.75s13.5-2.5,15.5,4.75s1.5,16.75-0.75,25S253,563.75,253,563.75s17.25-11.25,24-24
	s8.75-22,14.5-25.25s8.5-1,8.25,3.25S288,538.5,288,538.5s15.5-11.75,17.5-18s1.75-15,1.75-15s9.25-9,12.25-8s4.25,10.75,2.75,13.5
	s-6.5,6-8.25,8.75s-4.25,7.75-5.75,10s12.5-7,13.5-4.5s0.75,7-6,13.75S300,554.25,286,559.5s-27.5,7-35.75,13.5s-20.75,6.5-24.25,7
	s-7,1.75,0.5,4.25s13.75,0.25,21.75-4.5s13.75-8.5,15-7s-6.5,13.75-17,16s-17.875,3.563-30.5-2.75
	C208.25,582.25,203.5,578,205.5,574.25z"/>
<path fill="none" stroke="#000000" stroke-width="1.0001" stroke-linejoin="round" stroke-miterlimit="3.8636" d="M205.5,574.25
	c2-3.75,5.25-4.75,10.5-3.25s26.5,3.75,35.75-14.25S257.5,530,253,527s-6.75-9.5-2.25-13.75s13.5-2.5,15.5,4.75s1.5,16.75-0.75,25
	S253,563.75,253,563.75s17.25-11.25,24-24s8.75-22,14.5-25.25s8.5-1,8.25,3.25S288,538.5,288,538.5s15.5-11.75,17.5-18
	s1.75-15,1.75-15s9.25-9,12.25-8s4.25,10.75,2.75,13.5s-6.5,6-8.25,8.75s-4.25,7.75-5.75,10s12.5-7,13.5-4.5s0.75,7-6,13.75
	S300,554.25,286,559.5s-27.5,7-35.75,13.5s-20.75,6.5-24.25,7s-7,1.75,0.5,4.25s13.75,0.25,21.75-4.5s13.75-8.5,15-7
	s-6.5,13.75-17,16s-17.875,3.563-30.5-2.75C208.25,582.25,203.5,578,205.5,574.25z"/>
<path fill-rule="evenodd" clip-rule="evenodd" d="M270.25,582.75c5-2.25,19.25-4.25,28.75-12.5s18.632-16.717,34-22
	c16-5.5,28.75-7.75,36.75-7.5s20,2.25,23.75,4.75s-1.5,7.75-7,8.75s-15-2.5-20.5-2.5s-10,1-10,1s14.25,6.5,20,8.75
	s9.75,4,17.25,2.25s13-8.75,13.5,1.25s-6.25,15.25-13,19s-9.5-1.75-11-5.5s-9.25-13.25-17.75-15.75s-20.5-6-34.25-1.5
	s-26.5,13.5-26.5,13.5s20.5-5.5,31-4.5s16.5,7.75,15,11s-8.25,4.25-12,2.5s-10.75-5-15.75-5s7.5,3.5,15,7s9.5,10,6,14.25
	s-15.25,9.5-17.25,4.75s1.25-8,3.75-9.25s-2.5-8-9.5-10s-15.75-2-25.25,0.75s-17.272,6.127-22,3.5
	C271,588.5,267.25,584.5,270.25,582.75z"/>
<path fill="none" stroke="#000000" stroke-width="1.0001" stroke-linejoin="round" stroke-miterlimit="3.8636" d="M270.25,582.75
	c5-2.25,19.25-4.25,28.75-12.5s18.632-16.717,34-22c16-5.5,28.75-7.75,36.75-7.5s20,2.25,23.75,4.75s-1.5,7.75-7,8.75
	s-15-2.5-20.5-2.5s-10,1-10,1s14.25,6.5,20,8.75s9.75,4,17.25,2.25s13-8.75,13.5,1.25s-6.25,15.25-13,19s-9.5-1.75-11-5.5
	s-9.25-13.25-17.75-15.75s-20.5-6-34.25-1.5s-26.5,13.5-26.5,13.5s20.5-5.5,31-4.5s16.5,7.75,15,11s-8.25,4.25-12,2.5
	s-10.75-5-15.75-5s7.5,3.5,15,7s9.5,10,6,14.25s-15.25,9.5-17.25,4.75s1.25-8,3.75-9.25s-2.5-8-9.5-10s-15.75-2-25.25,0.75
	s-17.272,6.127-22,3.5C271,588.5,267.25,584.5,270.25,582.75z"/>
<path fill-rule="evenodd" clip-rule="evenodd" d="M289.75,304.5c-0.906,1.812-2.411,5.421,3.431,5.386
	c1.218,0.682,3.363,1.904,6.157,3.583c6.701,6.077,16.593,15.901,26.243,26.976c1.075,5.979,2.082,12.245,2.883,18.444l-0.359,0.249
	l0.48,0.698c0.248,1.97,0.475,3.93,0.676,5.871c0.409,3.953,0.761,8.014,1.049,12.126l-0.761,0.47l0.89,1.442
	c0.299,4.614,0.517,9.28,0.641,13.915l-0.289-0.059c-3.061,14.998-10.521,39.045-20.144,51.784
	c-9.012-0.425-20.146-1.885-20.146-1.885s15.5-5,24.5-23s13.5-44.25,5-67s-19.5-31.25-25-33.5s-13.25-6.5-13.25-6.5
	s-1.25-7.75-0.25-10.5s13.75-7.5,16.75-11.5s7.75-14,16-16s16.25,2.5,16.25,7.5s-2.75,9.25-9,9.75s-10-3-17,3.5
	C297.241,302.99,290.75,302.5,289.75,304.5z M305.875,307.665c2.379-0.616,4.724-1.29,7.066-1.943
	c1.859,0.851,3.819,1.762,5.856,2.724c0.358,1.473,0.78,3.239,1.247,5.249C314.943,311.322,310.114,309.263,305.875,307.665z
	 M321.701,303.534c1.818-0.368,3.657-0.669,5.531-0.868c1.696,0.88,3.435,1.788,5.204,2.718c0.319,1.784,0.632,3.729,0.938,5.805
	c-4.058-2.048-7.837-3.897-11.128-5.477L321.701,303.534z M335.977,302.575c3.407,0.313,6.977,1.066,10.773,2.425
	c0.422,0.151,0.842,0.313,1.262,0.483l0.018,3.995l-0.894-0.503c-4.039-2.271-7.844-4.356-11.105-6.12L335.977,302.575z
	 M352.02,307.438c3.254,1.844,6.419,4.262,9.414,7.12l-0.063,2.673c-3.098-1.862-6.25-3.706-9.334-5.474L352.02,307.438z
	 M365.336,318.635c0.607,0.693,1.206,1.403,1.794,2.128l-1.819-1.132L365.336,318.635z M373.209,329.443
	c0.494,0.816,0.976,1.643,1.443,2.479l-0.323,2.95c-2.894-2.043-6.015-4.095-9.267-6.123l0.132-4.686
	C367.981,325.847,370.67,327.645,373.209,329.443z M380.428,344.671c1.554,4.406,2.69,8.888,3.318,13.292
	c-1.942-2.071-4.301-4.563-7.13-7.518l0.917-8.2C378.554,343.063,379.521,343.872,380.428,344.671z M384.295,364.425
	c0.029,1.205,0.016,2.398-0.045,3.575c-0.163,3.201-0.438,6.342-0.831,9.42c-2.099-3.749-4.833-8.061-8.394-12.965l1.006-8.831
	C379.648,359.423,382.35,362.315,384.295,364.425z M382.372,384.012c-0.65,3.404-1.464,6.724-2.452,9.956
	c-2.26-4.434-4.528-8.673-6.847-12.745l1.261-10.771C377.268,374.741,380.162,379.438,382.372,384.012z M378.109,399.267
	c-1.256,3.317-2.717,6.532-4.396,9.642c-0.923-1.985-1.989-4.228-3.197-6.685c0.569-4.508,1.158-9.309,1.75-14.229
	C374.229,391.612,376.168,395.363,378.109,399.267z M371.253,413.135c-0.638,1.02-1.302,2.028-1.993,3.023l-0.456-0.859
	c0.25-1.82,0.509-3.756,0.776-5.788C370.195,410.824,370.754,412.036,371.253,413.135z M363.599,423.354
	c-0.827,0.934-1.684,1.854-2.568,2.761l-2.248-5.204l1.193-7.601c0.208-1.326,0.409-2.788,0.604-4.368
	c1.525,2.563,2.91,4.966,4.094,7.127C364.288,418.834,363.927,421.29,363.599,423.354z M357.961,429.101l-0.547,0.501l0.205-1.296
	L357.961,429.101z M352.187,433.955c-1.188,0.902-2.362,1.734-3.52,2.502l0.643-8.637
	C350.361,429.928,351.331,431.986,352.187,433.955z M344.461,439.008c-1.117,0.616-2.218,1.174-3.301,1.679
	c0.351-2.293,0.654-4.789,0.918-7.413c0.921,1.819,1.743,3.592,2.42,5.263L344.461,439.008z M336.81,442.48l-0.783,0.273
	c-0.804-2.39-1.912-4.771-3.093-6.969c0.777-4.699,1.338-9.867,1.707-15.332c1.332,2.076,2.685,4.27,3.975,6.484
	C338.186,432.712,337.602,438.128,336.81,442.48z M332.181,443.891l-0.998,0.24c0.15-0.572,0.296-1.155,0.438-1.75
	C331.822,442.889,332.01,443.393,332.181,443.891z M326.806,444.931c-4.345,0.601-8.151,0.574-11.318,0.569
	c3.268-4.812,6.118-10.53,8.548-16.348c1.566,2.141,3.238,4.681,4.724,7.328C328.21,439.557,327.562,442.392,326.806,444.931z
	 M329.762,413.194l1.184,1.698c-0.24,5.458-0.653,10.663-1.26,15.453c-1.687-2.581-3.194-4.583-3.922-5.521
	c1.188-3.109,2.255-6.188,3.202-9.115C329.24,414.859,329.506,414.02,329.762,413.194z M334.994,413.763
	c0.133-3.414,0.201-6.911,0.209-10.452c1.376,2.164,2.813,4.472,4.26,6.862c-0.101,3.213-0.234,6.521-0.408,9.806
	C337.595,417.656,336.192,415.532,334.994,413.763z M342.691,426.016c0.219-3.113,0.395-6.304,0.535-9.467
	c0.867,1.511,1.723,3.031,2.554,4.549c-0.231,3.298-0.46,6.453-0.673,9.324C344.336,428.94,343.521,427.461,342.691,426.016z
	 M335.134,395.867c-0.061-2.969-0.159-5.95-0.294-8.923c1.472,2.421,3.149,5.196,4.899,8.117c-0.015,2.391-0.044,5.048-0.097,7.873
	C337.787,399.96,336.204,397.506,335.134,395.867z M343.494,409.233c0.077-2.623,0.133-5.167,0.172-7.567
	c1.042,1.768,2.072,3.528,3.064,5.242c-0.147,2.341-0.302,4.705-0.459,7.049c-0.583-1.01-1.164-2.003-1.737-2.974L343.494,409.233z
	 M349.844,420.329l0.485-7.106c1.888,3.38,3.422,6.27,4.319,8.227l-0.985,6.265C352.474,425.277,351.18,422.791,349.844,420.329z
	 M334.364,378.493c-0.266-3.935-0.589-7.818-0.963-11.597c1.657,2.445,3.616,5.353,5.752,8.55c0.248,4.611,0.424,8.629,0.518,11.75
	C337.461,383.546,335.571,380.458,334.364,378.493z M343.745,393.965l0.005-2.465c0-2.123-0.096-5.419-0.274-9.541l2.163,3.293
	l2.045,3.134c-0.054,1.955-0.113,3.646-0.182,5.016c-0.099,2.012-0.213,4.133-0.338,6.321c-0.984-1.669-1.974-3.336-2.947-4.966
	L343.745,393.965z M350.799,405.951c0.253-4.076,0.482-8.055,0.666-11.701c1.971,3.083,3.9,6.146,5.716,9.09
	c-0.359,3.562-0.745,6.724-1.156,9.35l-0.317,2.019C354.323,412.134,352.628,409.125,350.799,405.951z M332.43,358.367
	c-0.515-3.98-1.113-7.988-1.761-11.932c2.48,3.001,4.903,6.058,7.205,9.124c0.308,4.162,0.582,8.211,0.82,12.024
	C335.887,363.419,333.654,360.152,332.43,358.367z M343.086,374.134c-0.21-3.817-0.467-8.006-0.766-12.409l0.28,0.407
	c1.865,2.719,3.654,5.426,5.366,8.101c-0.035,3.973-0.079,7.712-0.134,11.071C346.2,378.819,344.604,376.41,343.086,374.134z
	 M351.714,387.248c0.075-3.077,0.136-6.708,0.186-10.707c2.361,3.886,4.547,7.664,6.553,11.266
	c-0.211,3.106-0.434,6.102-0.669,8.936C355.806,393.598,353.755,390.396,351.714,387.248z M361.289,402.385
	c0.244-2.529,0.475-5.236,0.694-8.077c1.632,3.079,3.108,5.974,4.427,8.634c-0.29,2.284-0.574,4.484-0.85,6.578
	C364.25,407.267,362.811,404.868,361.289,402.385z M367.298,395.837c-1.454-2.815-3.05-5.815-4.784-8.955
	c0.299-4.519,0.572-9.251,0.821-14.048c1.922,2.986,3.789,6.063,5.622,9.245C368.402,386.765,367.844,391.399,367.298,395.837z
	 M369.729,375.527c-1.965-3.24-3.977-6.375-6.061-9.42c0.146-3.082,0.281-6.162,0.408-9.202l1.123,1.357
	c1.611,1.979,3.588,4.49,5.68,7.328L369.729,375.527z M371.539,359.812c-1.023-1.32-2.102-2.678-3.238-4.075
	c-1.293-1.588-2.625-3.14-3.99-4.655l0.246-6.648c2.049,1.644,3.823,3.224,5.255,4.706l2.626,2.728L371.539,359.812z
	 M373.018,346.701l-0.329-0.34c-2.06-2.134-4.774-4.446-7.962-6.852l0.198-6.172c3.182,2.038,6.177,4.071,8.903,6.072
	L373.018,346.701z M358.912,380.521c-2.143-3.697-4.457-7.532-6.938-11.441c0.03-3.807,0.054-7.808,0.07-11.88
	c2.648,3.256,5.16,6.606,7.572,10.075C359.403,371.739,359.168,376.194,358.912,380.521z M359.914,360.825
	c-2.493-3.375-5.098-6.643-7.849-9.827l0.013-6.535c2.816,2.571,5.558,5.275,8.179,8.11
	C360.15,355.286,360.035,358.046,359.914,360.825z M360.469,346.997c-2.709-2.761-5.518-5.391-8.387-7.888v-3.452
	c3.085,1.963,5.978,3.915,8.582,5.811L360.469,346.997z M360.822,336.678c-2.704-1.891-5.646-3.818-8.742-5.742l-0.008-5.326
	c3.055,1.737,6.05,3.5,8.93,5.268L360.822,336.678z M361.133,326.345c-2.973-1.785-6.02-3.543-9.068-5.249l-0.014-4.976
	c3.118,1.793,6.207,3.623,9.211,5.474L361.133,326.345z M348.019,363c-0.695-1.042-1.401-2.085-2.119-3.132
	c-1.316-1.918-2.695-3.844-4.122-5.767c-0.224-2.981-0.463-6.015-0.717-9.057c2.445,2.439,4.773,4.918,7.003,7.45
	C348.053,356.042,348.038,359.57,348.019,363z M348.077,346.549c-2.397-2.575-4.906-5.101-7.546-7.59l-0.405-4.362
	c2.677,2.005,5.34,4.121,7.957,6.347L348.077,346.549z M348.084,335.741c-2.805-2.287-5.646-4.452-8.489-6.494l-0.114-1.095
	c2.94,1.648,5.828,3.33,8.603,5.018L348.084,335.741z M348.078,328.502c-2.961-1.765-6.025-3.515-9.127-5.218
	c-0.198-1.754-0.401-3.471-0.608-5.14c3.239,1.69,6.503,3.438,9.728,5.222L348.078,328.502z M348.06,318.884
	c-2.653-1.447-5.286-2.849-7.853-4.188l-2.482-1.288c-0.273-1.989-0.554-3.886-0.839-5.667c3.664,1.956,7.415,3.999,11.159,6.102
	L348.06,318.884z M334.031,315.921c0.214,1.629,0.424,3.316,0.629,5.049c-3.354-1.777-6.718-3.485-10.012-5.086
	c-0.432-1.909-0.838-3.66-1.207-5.22C326.847,312.311,330.406,314.073,334.031,315.921z M337.313,348.286
	c-2.591-3.271-5.28-6.501-7.994-9.638c-0.312-1.704-0.627-3.383-0.944-5.028c2.916,2.382,5.68,4.785,8.31,7.22
	C336.903,343.319,337.113,345.81,337.313,348.286z M336.144,334.962c-2.839-2.5-5.825-4.969-8.979-7.421l-0.431-2.08
	c2.984,1.855,6.022,3.854,9.067,5.996L336.144,334.962z M335.255,326.222c-1.025-0.694-2.049-1.372-3.067-2.034
	c1.009,0.532,2.017,1.07,3.021,1.613L335.255,326.222z M324.144,332.808c-2.599-2.865-5.176-5.614-7.669-8.198
	c2.45,1.727,4.804,3.456,7.069,5.191L324.144,332.808z M322.313,323.88c-2.25-1.65-4.581-3.295-7.002-4.94l-0.479-0.326
	c2.328,1.236,4.743,2.577,7.215,4.021L322.313,323.88z"/>
<path fill="none" stroke="#000000" stroke-width="1.0001" stroke-linejoin="round" stroke-miterlimit="3.8636" d="M289.75,304.5
	c-0.906,1.812-2.411,5.421,3.431,5.386c1.218,0.682,3.363,1.904,6.157,3.583c6.701,6.077,16.593,15.901,26.243,26.976
	c1.075,5.979,2.082,12.245,2.883,18.444l-0.359,0.249l0.48,0.698c0.248,1.97,0.475,3.93,0.676,5.871
	c0.409,3.953,0.761,8.014,1.049,12.126l-0.761,0.47l0.89,1.442c0.299,4.614,0.517,9.28,0.641,13.915l-0.289-0.059
	c-3.061,14.998-10.521,39.045-20.144,51.784c-9.012-0.425-20.146-1.885-20.146-1.885s15.5-5,24.5-23s13.5-44.25,5-67
	s-19.5-31.25-25-33.5s-13.25-6.5-13.25-6.5s-1.25-7.75-0.25-10.5s13.75-7.5,16.75-11.5s7.75-14,16-16s16.25,2.5,16.25,7.5
	s-2.75,9.25-9,9.75s-10-3-17,3.5C297.241,302.99,290.75,302.5,289.75,304.5z M305.875,307.665c2.379-0.616,4.724-1.29,7.066-1.943
	c1.859,0.851,3.819,1.762,5.856,2.724c0.358,1.473,0.78,3.239,1.247,5.249C314.943,311.322,310.114,309.263,305.875,307.665z
	 M321.701,303.534c1.818-0.368,3.657-0.669,5.531-0.868c1.696,0.88,3.435,1.788,5.204,2.718c0.319,1.784,0.632,3.729,0.938,5.805
	c-4.058-2.048-7.837-3.897-11.128-5.477L321.701,303.534z M335.977,302.575c3.407,0.313,6.977,1.066,10.773,2.425
	c0.422,0.151,0.842,0.313,1.262,0.483l0.018,3.995l-0.894-0.503c-4.039-2.271-7.844-4.356-11.105-6.12L335.977,302.575z
	 M352.02,307.438c3.254,1.844,6.419,4.262,9.414,7.12l-0.063,2.673c-3.098-1.862-6.25-3.706-9.334-5.474L352.02,307.438z
	 M365.336,318.635c0.607,0.693,1.206,1.403,1.794,2.128l-1.819-1.132L365.336,318.635z M373.209,329.443
	c0.494,0.816,0.976,1.643,1.443,2.479l-0.323,2.95c-2.894-2.043-6.015-4.095-9.267-6.123l0.132-4.686
	C367.981,325.847,370.67,327.645,373.209,329.443z M380.428,344.671c1.554,4.406,2.69,8.888,3.318,13.292
	c-1.942-2.071-4.301-4.563-7.13-7.518l0.917-8.2C378.554,343.063,379.521,343.872,380.428,344.671z M384.295,364.425
	c0.029,1.205,0.016,2.398-0.045,3.575c-0.163,3.201-0.438,6.342-0.831,9.42c-2.099-3.749-4.833-8.061-8.394-12.965l1.006-8.831
	C379.648,359.423,382.35,362.315,384.295,364.425z M382.372,384.012c-0.65,3.404-1.464,6.724-2.452,9.956
	c-2.26-4.434-4.528-8.673-6.847-12.745l1.261-10.771C377.268,374.741,380.162,379.438,382.372,384.012z M378.109,399.267
	c-1.256,3.317-2.717,6.532-4.396,9.642c-0.923-1.985-1.989-4.228-3.197-6.685c0.569-4.508,1.158-9.309,1.75-14.229
	C374.229,391.612,376.168,395.363,378.109,399.267z M371.253,413.135c-0.638,1.02-1.302,2.028-1.993,3.023l-0.456-0.859
	c0.25-1.82,0.509-3.756,0.776-5.788C370.195,410.824,370.754,412.036,371.253,413.135z M363.599,423.354
	c-0.827,0.934-1.684,1.854-2.568,2.761l-2.248-5.204l1.193-7.601c0.208-1.326,0.409-2.788,0.604-4.368
	c1.525,2.563,2.91,4.966,4.094,7.127C364.288,418.834,363.927,421.29,363.599,423.354z M357.961,429.101l-0.547,0.501l0.205-1.296
	L357.961,429.101z M352.187,433.955c-1.188,0.902-2.362,1.734-3.52,2.502l0.643-8.637
	C350.361,429.928,351.331,431.986,352.187,433.955z M344.461,439.008c-1.117,0.616-2.218,1.174-3.301,1.679
	c0.351-2.293,0.654-4.789,0.918-7.413c0.921,1.819,1.743,3.592,2.42,5.263L344.461,439.008z M336.81,442.48l-0.783,0.273
	c-0.804-2.39-1.912-4.771-3.093-6.969c0.777-4.699,1.338-9.867,1.707-15.332c1.332,2.076,2.685,4.27,3.975,6.484
	C338.186,432.712,337.602,438.128,336.81,442.48z M332.181,443.891l-0.998,0.24c0.15-0.572,0.296-1.155,0.438-1.75
	C331.822,442.889,332.01,443.393,332.181,443.891z M326.806,444.931c-4.345,0.601-8.151,0.574-11.318,0.569
	c3.268-4.812,6.118-10.53,8.548-16.348c1.566,2.141,3.238,4.681,4.724,7.328C328.21,439.557,327.562,442.392,326.806,444.931z
	 M329.762,413.194l1.184,1.698c-0.24,5.458-0.653,10.663-1.26,15.453c-1.687-2.581-3.194-4.583-3.922-5.521
	c1.188-3.109,2.255-6.188,3.202-9.115C329.24,414.859,329.506,414.02,329.762,413.194z M334.994,413.763
	c0.133-3.414,0.201-6.911,0.209-10.452c1.376,2.164,2.813,4.472,4.26,6.862c-0.101,3.213-0.234,6.521-0.408,9.806
	C337.595,417.656,336.192,415.532,334.994,413.763z M342.691,426.016c0.219-3.113,0.395-6.304,0.535-9.467
	c0.867,1.511,1.723,3.031,2.554,4.549c-0.231,3.298-0.46,6.453-0.673,9.324C344.336,428.94,343.521,427.461,342.691,426.016z
	 M335.134,395.867c-0.061-2.969-0.159-5.95-0.294-8.923c1.472,2.421,3.149,5.196,4.899,8.117c-0.015,2.391-0.044,5.048-0.097,7.873
	C337.787,399.96,336.204,397.506,335.134,395.867z M343.494,409.233c0.077-2.623,0.133-5.167,0.172-7.567
	c1.042,1.768,2.072,3.528,3.064,5.242c-0.147,2.341-0.302,4.705-0.459,7.049c-0.583-1.01-1.164-2.003-1.737-2.974L343.494,409.233z
	 M349.844,420.329l0.485-7.106c1.888,3.38,3.422,6.27,4.319,8.227l-0.985,6.265C352.474,425.277,351.18,422.791,349.844,420.329z
	 M334.364,378.493c-0.266-3.935-0.589-7.818-0.963-11.597c1.657,2.445,3.616,5.353,5.752,8.55c0.248,4.611,0.424,8.629,0.518,11.75
	C337.461,383.546,335.571,380.458,334.364,378.493z M343.745,393.965l0.005-2.465c0-2.123-0.096-5.419-0.274-9.541l2.163,3.293
	l2.045,3.134c-0.054,1.955-0.113,3.646-0.182,5.016c-0.099,2.012-0.213,4.133-0.338,6.321c-0.984-1.669-1.974-3.336-2.947-4.966
	L343.745,393.965z M350.799,405.951c0.253-4.076,0.482-8.055,0.666-11.701c1.971,3.083,3.9,6.146,5.716,9.09
	c-0.359,3.562-0.745,6.724-1.156,9.35l-0.317,2.019C354.323,412.134,352.628,409.125,350.799,405.951z M332.43,358.367
	c-0.515-3.98-1.113-7.988-1.761-11.932c2.48,3.001,4.903,6.058,7.205,9.124c0.308,4.162,0.582,8.211,0.82,12.024
	C335.887,363.419,333.654,360.152,332.43,358.367z M343.086,374.134c-0.21-3.817-0.467-8.006-0.766-12.409l0.28,0.407
	c1.865,2.719,3.654,5.426,5.366,8.101c-0.035,3.973-0.079,7.712-0.134,11.071C346.2,378.819,344.604,376.41,343.086,374.134z
	 M351.714,387.248c0.075-3.077,0.136-6.708,0.186-10.707c2.361,3.886,4.547,7.664,6.553,11.266
	c-0.211,3.106-0.434,6.102-0.669,8.936C355.806,393.598,353.755,390.396,351.714,387.248z M361.289,402.385
	c0.244-2.529,0.475-5.236,0.694-8.077c1.632,3.079,3.108,5.974,4.427,8.634c-0.29,2.284-0.574,4.484-0.85,6.578
	C364.25,407.267,362.811,404.868,361.289,402.385z M367.298,395.837c-1.454-2.815-3.05-5.815-4.784-8.955
	c0.299-4.519,0.572-9.251,0.821-14.048c1.922,2.986,3.789,6.063,5.622,9.245C368.402,386.765,367.844,391.399,367.298,395.837z
	 M369.729,375.527c-1.965-3.24-3.977-6.375-6.061-9.42c0.146-3.082,0.281-6.162,0.408-9.202l1.123,1.357
	c1.611,1.979,3.588,4.49,5.68,7.328L369.729,375.527z M371.539,359.812c-1.023-1.32-2.102-2.678-3.238-4.075
	c-1.293-1.588-2.625-3.14-3.99-4.655l0.246-6.648c2.049,1.644,3.823,3.224,5.255,4.706l2.626,2.728L371.539,359.812z
	 M373.018,346.701l-0.329-0.34c-2.06-2.134-4.774-4.446-7.962-6.852l0.198-6.172c3.182,2.038,6.177,4.071,8.903,6.072
	L373.018,346.701z M358.912,380.521c-2.143-3.697-4.457-7.532-6.938-11.441c0.03-3.807,0.054-7.808,0.07-11.88
	c2.648,3.256,5.16,6.606,7.572,10.075C359.403,371.739,359.168,376.194,358.912,380.521z M359.914,360.825
	c-2.493-3.375-5.098-6.643-7.849-9.827l0.013-6.535c2.816,2.571,5.558,5.275,8.179,8.11
	C360.15,355.286,360.035,358.046,359.914,360.825z M360.469,346.997c-2.709-2.761-5.518-5.391-8.387-7.888v-3.452
	c3.085,1.963,5.978,3.915,8.582,5.811L360.469,346.997z M360.822,336.678c-2.704-1.891-5.646-3.818-8.742-5.742l-0.008-5.326
	c3.055,1.737,6.05,3.5,8.93,5.268L360.822,336.678z M361.133,326.345c-2.973-1.785-6.02-3.543-9.068-5.249l-0.014-4.976
	c3.118,1.793,6.207,3.623,9.211,5.474L361.133,326.345z M348.019,363c-0.695-1.042-1.401-2.085-2.119-3.132
	c-1.316-1.918-2.695-3.844-4.122-5.767c-0.224-2.981-0.463-6.015-0.717-9.057c2.445,2.439,4.773,4.918,7.003,7.45
	C348.053,356.042,348.038,359.57,348.019,363z M348.077,346.549c-2.397-2.575-4.906-5.101-7.546-7.59l-0.405-4.362
	c2.677,2.005,5.34,4.121,7.957,6.347L348.077,346.549z M348.084,335.741c-2.805-2.287-5.646-4.452-8.489-6.494l-0.114-1.095
	c2.94,1.648,5.828,3.33,8.603,5.018L348.084,335.741z M348.078,328.502c-2.961-1.765-6.025-3.515-9.127-5.218
	c-0.198-1.754-0.401-3.471-0.608-5.14c3.239,1.69,6.503,3.438,9.728,5.222L348.078,328.502z M348.06,318.884
	c-2.653-1.447-5.286-2.849-7.853-4.188l-2.482-1.288c-0.273-1.989-0.554-3.886-0.839-5.667c3.664,1.956,7.415,3.999,11.159,6.102
	L348.06,318.884z M334.031,315.921c0.214,1.629,0.424,3.316,0.629,5.049c-3.354-1.777-6.718-3.485-10.012-5.086
	c-0.432-1.909-0.838-3.66-1.207-5.22C326.847,312.311,330.406,314.073,334.031,315.921z M337.313,348.286
	c-2.591-3.271-5.28-6.501-7.994-9.638c-0.312-1.704-0.627-3.383-0.944-5.028c2.916,2.382,5.68,4.785,8.31,7.22
	C336.903,343.319,337.113,345.81,337.313,348.286z M336.144,334.962c-2.839-2.5-5.825-4.969-8.979-7.421l-0.431-2.08
	c2.984,1.855,6.022,3.854,9.067,5.996L336.144,334.962z M335.255,326.222c-1.025-0.694-2.049-1.372-3.067-2.034
	c1.009,0.532,2.017,1.07,3.021,1.613L335.255,326.222z M324.144,332.808c-2.599-2.865-5.176-5.614-7.669-8.198
	c2.45,1.727,4.804,3.456,7.069,5.191L324.144,332.808z M322.313,323.88c-2.25-1.65-4.581-3.295-7.002-4.94l-0.479-0.326
	c2.328,1.236,4.743,2.577,7.215,4.021L322.313,323.88z"/>
<path fill-rule="evenodd" clip-rule="evenodd" d="M414.875,217.375C411.375,218,403.257,218.52,399,234c-2.75,10,3,20.375,6.5,23.75
	s9.741,5.909,8.5,7.875c-1.5,2.375-4.25,1-6.5-1s-11.25-8.5-12.75-19.25s1.625-19.375,6.125-24.875s10.375-9.25,17.5-8.25
	s10.375,7.25,9.25,11.75s-5.25,10.75-11.5,11.875S408,231,409.375,228.5s3.25-5.25,7.875-4.375c3.224,0.61,4.859,0.171,4.75-2.125
	C421.875,219.375,418.375,216.75,414.875,217.375z"/>
<path fill="none" stroke="#000000" stroke-width="1.0001" stroke-linejoin="round" stroke-miterlimit="3.8636" d="M414.875,217.375
	C411.375,218,403.257,218.52,399,234c-2.75,10,3,20.375,6.5,23.75s9.741,5.909,8.5,7.875c-1.5,2.375-4.25,1-6.5-1
	s-11.25-8.5-12.75-19.25s1.625-19.375,6.125-24.875s10.375-9.25,17.5-8.25s10.375,7.25,9.25,11.75s-5.25,10.75-11.5,11.875
	S408,231,409.375,228.5s3.25-5.25,7.875-4.375c3.224,0.61,4.859,0.171,4.75-2.125C421.875,219.375,418.375,216.75,414.875,217.375z"
	/>
<path fill-rule="evenodd" clip-rule="evenodd" d="M303.614,187.111c-2.872,2.096-9.94,6.122-6.98,21.902
	c1.912,10.193,11.628,16.998,16.253,18.497c4.626,1.499,11.347,1.041,11.093,3.352c-0.308,2.792-3.382,2.762-6.281,1.951
	c-2.898-0.811-13.837-2.708-19.897-11.712c-6.061-9.005-7.033-18.127-5.399-25.043c1.633-6.916,5.27-12.862,12.112-15.086
	c6.842-2.225,12.503,1.968,13.465,6.506c0.961,4.537-0.007,11.963-5.131,15.714s-9.439-0.819-9.3-3.669
	c0.14-2.85,0.62-6.143,5.16-7.384c3.165-0.865,4.442-1.977,3.338-3.992C310.783,185.84,306.486,185.015,303.614,187.111z"/>
<path fill="none" stroke="#000000" stroke-width="1.0001" stroke-linejoin="round" stroke-miterlimit="3.8636" d="M303.614,187.111
	c-2.872,2.096-9.94,6.122-6.98,21.902c1.912,10.193,11.628,16.998,16.253,18.497c4.626,1.499,11.347,1.041,11.093,3.352
	c-0.308,2.792-3.382,2.762-6.281,1.951c-2.898-0.811-13.837-2.708-19.897-11.712c-6.061-9.005-7.033-18.127-5.399-25.043
	c1.633-6.916,5.27-12.862,12.112-15.086c6.842-2.225,12.503,1.968,13.465,6.506c0.961,4.537-0.007,11.963-5.131,15.714
	s-9.439-0.819-9.3-3.669c0.14-2.85,0.62-6.143,5.16-7.384c3.165-0.865,4.442-1.977,3.338-3.992
	C310.783,185.84,306.486,185.015,303.614,187.111z"/>
<path fill-rule="evenodd" clip-rule="evenodd" d="M177.001,211.044c-1.607,3.172-6.078,9.968,3.723,22.684
	c6.332,8.215,18.078,9.866,22.879,9.103c4.802-0.765,10.582-4.224,11.405-2.049c0.994,2.627-1.759,3.996-4.71,4.589
	s-13.559,3.869-23.047-1.402s-14.496-12.958-16.18-19.862c-1.685-6.903-1.144-13.853,3.943-18.941s12.034-3.922,14.951-0.316
	s5.426,10.662,2.563,16.331c-2.863,5.668-8.783,3.555-9.952,0.952c-1.169-2.603-2.237-5.755,1.245-8.922
	c2.427-2.208,3.061-3.778,1.162-5.073C182.811,206.657,178.608,207.873,177.001,211.044z"/>
<path fill="none" stroke="#000000" stroke-width="1.0001" stroke-linejoin="round" stroke-miterlimit="3.8636" d="M177.001,211.044
	c-1.607,3.172-6.078,9.968,3.723,22.684c6.332,8.215,18.078,9.866,22.879,9.103c4.802-0.765,10.582-4.224,11.405-2.049
	c0.994,2.627-1.759,3.996-4.71,4.589s-13.559,3.869-23.047-1.402s-14.496-12.958-16.18-19.862
	c-1.685-6.903-1.144-13.853,3.943-18.941s12.034-3.922,14.951-0.316s5.426,10.662,2.563,16.331
	c-2.863,5.668-8.783,3.555-9.952,0.952c-1.169-2.603-2.237-5.755,1.245-8.922c2.427-2.208,3.061-3.778,1.162-5.073
	C182.811,206.657,178.608,207.873,177.001,211.044z"/>
<path fill-rule="evenodd" clip-rule="evenodd" d="M79.174,301.75c0.379,3.535,0.332,11.67,15.477,16.996
	c9.784,3.441,20.535-1.571,24.146-4.827s6.574-9.306,8.449-7.93c2.265,1.662,0.701,4.31-1.451,6.414
	c-2.152,2.105-9.264,10.63-20.092,11.376c-10.829,0.747-19.215-2.973-24.387-7.845s-8.503-10.995-7.009-18.033
	c1.495-7.038,7.957-9.844,12.367-8.408c4.41,1.437,10.357,5.987,11.043,12.301c0.686,6.313-5.43,7.765-7.828,6.219
	c-2.398-1.546-5.011-3.608-3.815-8.161c0.833-3.173,0.509-4.835-1.788-4.887C81.658,294.907,78.795,298.215,79.174,301.75z"/>
<path fill="none" stroke="#000000" stroke-width="1.0001" stroke-linejoin="round" stroke-miterlimit="3.8636" d="M79.174,301.75
	c0.379,3.535,0.332,11.67,15.477,16.996c9.784,3.441,20.535-1.571,24.146-4.827s6.574-9.306,8.449-7.93
	c2.265,1.662,0.701,4.31-1.451,6.414c-2.152,2.105-9.264,10.63-20.092,11.376c-10.829,0.747-19.215-2.973-24.387-7.845
	s-8.503-10.995-7.009-18.033c1.495-7.038,7.957-9.844,12.367-8.408c4.41,1.437,10.357,5.987,11.043,12.301
	c0.686,6.313-5.43,7.765-7.828,6.219c-2.398-1.546-5.011-3.608-3.815-8.161c0.833-3.173,0.509-4.835-1.788-4.887
	C81.658,294.907,78.795,298.215,79.174,301.75z"/>
<path fill-rule="evenodd" clip-rule="evenodd" d="M40.619,421.977c1.994,2.943,5.771,10.148,21.645,7.74
	c10.254-1.555,17.393-11.027,19.053-15.597c1.66-4.57,1.436-11.303,3.737-10.968c2.779,0.404,2.642,3.476,1.73,6.345
	c-0.912,2.869-3.189,13.734-12.4,19.478c-9.211,5.742-18.361,6.396-25.216,4.521c-6.855-1.874-12.67-5.716-14.654-12.631
	c-1.984-6.916,2.403-12.427,6.972-13.229c4.568-0.803,11.956,0.424,15.526,5.676c3.57,5.252-1.149,9.406-3.992,9.167
	s-6.118-0.834-7.2-5.415c-0.754-3.193-1.82-4.509-3.873-3.475C39.599,414.769,38.625,419.033,40.619,421.977z"/>
<path fill="none" stroke="#000000" stroke-width="1.0001" stroke-linejoin="round" stroke-miterlimit="3.8636" d="M40.619,421.977
	c1.994,2.943,5.771,10.148,21.645,7.74c10.254-1.555,17.393-11.027,19.053-15.597c1.66-4.57,1.436-11.303,3.737-10.968
	c2.779,0.404,2.642,3.476,1.73,6.345c-0.912,2.869-3.189,13.734-12.4,19.478c-9.211,5.742-18.361,6.396-25.216,4.521
	c-6.855-1.874-12.67-5.716-14.654-12.631c-1.984-6.916,2.403-12.427,6.972-13.229c4.568-0.803,11.956,0.424,15.526,5.676
	c3.57,5.252-1.149,9.406-3.992,9.167s-6.118-0.834-7.2-5.415c-0.754-3.193-1.82-4.509-3.873-3.475
	C39.599,414.769,38.625,419.033,40.619,421.977z"/>
<path fill-rule="evenodd" clip-rule="evenodd" d="M54.248,532.206c2.917,2.033,9.024,7.406,22.981-0.53
	c9.016-5.126,12.286-16.527,12.198-21.389c-0.088-4.861-2.71-11.067-0.442-11.579c2.74-0.619,3.712,2.298,3.889,5.304
	c0.177,3.005,1.944,13.965-4.597,22.627s-14.85,12.551-21.921,13.258c-7.071,0.707-13.877-0.796-18.208-6.542
	c-4.331-5.745-2.209-12.462,1.769-14.849s11.313-3.889,16.528-0.265s2.298,9.192-0.442,9.987c-2.74,0.796-6.011,1.414-8.662-2.475
	c-1.848-2.711-3.315-3.557-4.861-1.856C50.712,525.842,51.331,530.173,54.248,532.206z"/>
<path fill="none" stroke="#000000" stroke-width="1.0001" stroke-linejoin="round" stroke-miterlimit="3.8636" d="M54.248,532.206
	c2.917,2.033,9.024,7.406,22.981-0.53c9.016-5.126,12.286-16.527,12.198-21.389c-0.088-4.861-2.71-11.067-0.442-11.579
	c2.74-0.619,3.712,2.298,3.889,5.304c0.177,3.005,1.944,13.965-4.597,22.627s-14.85,12.551-21.921,13.258
	c-7.071,0.707-13.877-0.796-18.208-6.542c-4.331-5.745-2.209-12.462,1.769-14.849s11.313-3.889,16.528-0.265
	s2.298,9.192-0.442,9.987c-2.74,0.796-6.011,1.414-8.662-2.475c-1.848-2.711-3.315-3.557-4.861-1.856
	C50.712,525.842,51.331,530.173,54.248,532.206z"/>
<path fill-rule="evenodd" clip-rule="evenodd" d="M120.777,629.769c3.492,0.671,11.257,3.095,20.779-9.832
	c6.151-8.351,4.501-20.097,2.443-24.502s-6.977-9.008-5.113-10.398c2.251-1.68,4.326,0.59,5.71,3.264
	c1.384,2.673,7.457,11.967,5.005,22.54c-2.452,10.574-8.461,17.506-14.633,21.028c-6.172,3.522-13.001,4.918-19.294,1.431
	s-7.088-10.486-4.425-14.284c2.663-3.798,8.754-8.155,14.992-6.966s5.838,7.463,3.659,9.305c-2.18,1.841-4.916,3.736-8.919,1.262
	c-2.791-1.725-4.476-1.9-5.196,0.282C114.959,625.393,117.286,629.098,120.777,629.769z"/>
<path fill="none" stroke="#000000" stroke-width="1.0001" stroke-linejoin="round" stroke-miterlimit="3.8636" d="M120.777,629.769
	c3.492,0.671,11.257,3.095,20.779-9.832c6.151-8.351,4.501-20.097,2.443-24.502s-6.977-9.008-5.113-10.398
	c2.251-1.68,4.326,0.59,5.71,3.264c1.384,2.673,7.457,11.967,5.005,22.54c-2.452,10.574-8.461,17.506-14.633,21.028
	c-6.172,3.522-13.001,4.918-19.294,1.431s-7.088-10.486-4.425-14.284c2.663-3.798,8.754-8.155,14.992-6.966s5.838,7.463,3.659,9.305
	c-2.18,1.841-4.916,3.736-8.919,1.262c-2.791-1.725-4.476-1.9-5.196,0.282C114.959,625.393,117.286,629.098,120.777,629.769z"/>
<path fill-rule="evenodd" clip-rule="evenodd" d="M246.623,682.722c3.219-1.51,10.926-4.113,11.031-20.168
	c0.068-10.371-8.171-18.904-12.426-21.259c-4.254-2.354-10.939-3.187-10.249-5.406c0.834-2.683,3.846-2.066,6.538-0.717
	c2.69,1.35,13.066,5.299,17.298,15.295c4.231,9.995,3.445,19.136,0.522,25.612c-2.923,6.478-7.627,11.621-14.769,12.499
	c-7.141,0.878-11.898-4.318-11.976-8.956c-0.078-4.638,2.289-11.742,8.035-14.446c5.746-2.705,9.11,2.605,8.429,5.376
	s-1.78,5.913-6.474,6.265c-3.272,0.245-4.738,1.093-4.039,3.282C239.344,682.602,243.404,684.231,246.623,682.722z"/>
<path fill="none" stroke="#000000" stroke-width="1.0001" stroke-linejoin="round" stroke-miterlimit="3.8636" d="M246.623,682.722
	c3.219-1.51,10.926-4.113,11.031-20.168c0.068-10.371-8.171-18.904-12.426-21.259c-4.254-2.354-10.939-3.187-10.249-5.406
	c0.834-2.683,3.846-2.066,6.538-0.717c2.69,1.35,13.066,5.299,17.298,15.295c4.231,9.995,3.445,19.136,0.522,25.612
	c-2.923,6.478-7.627,11.621-14.769,12.499c-7.141,0.878-11.898-4.318-11.976-8.956c-0.078-4.638,2.289-11.742,8.035-14.446
	c5.746-2.705,9.11,2.605,8.429,5.376s-1.78,5.913-6.474,6.265c-3.272,0.245-4.738,1.093-4.039,3.282
	C239.344,682.602,243.404,684.231,246.623,682.722z"/>
<path fill-rule="evenodd" clip-rule="evenodd" d="M362.844,679.438c2.326-2.688,8.309-8.201,1.875-22.91
	c-4.156-9.503-15.154-13.947-19.998-14.367c-4.845-0.42-11.29,1.538-11.563-0.771c-0.329-2.789,2.674-3.451,5.682-3.313
	c3.007,0.138,14.092-0.475,22.023,6.936c7.931,7.41,10.93,16.08,10.895,23.187c-0.036,7.106-2.242,13.718-8.408,17.425
	c-6.167,3.707-12.626,0.896-14.584-3.311c-1.957-4.205-2.686-11.658,1.464-16.466s9.383-1.324,9.888,1.483
	c0.504,2.809,0.777,6.126-3.367,8.356c-2.889,1.555-3.884,2.926-2.354,4.641C356.145,682.289,360.518,682.126,362.844,679.438z"/>
<path fill="none" stroke="#000000" stroke-width="1.0001" stroke-linejoin="round" stroke-miterlimit="3.8636" d="M362.844,679.438
	c2.326-2.688,8.309-8.201,1.875-22.91c-4.156-9.503-15.154-13.947-19.998-14.367c-4.845-0.42-11.29,1.538-11.563-0.771
	c-0.329-2.789,2.674-3.451,5.682-3.313c3.007,0.138,14.092-0.475,22.023,6.936c7.931,7.41,10.93,16.08,10.895,23.187
	c-0.036,7.106-2.242,13.718-8.408,17.425c-6.167,3.707-12.626,0.896-14.584-3.311c-1.957-4.205-2.686-11.658,1.464-16.466
	s9.383-1.324,9.888,1.483c0.504,2.809,0.777,6.126-3.367,8.356c-2.889,1.555-3.884,2.926-2.354,4.641
	C356.145,682.289,360.518,682.126,362.844,679.438z"/>
<path fill-rule="evenodd" clip-rule="evenodd" d="M474.578,614.119c0.486-3.521,2.501-11.403-10.906-20.235
	c-8.661-5.706-20.306-3.443-24.597-1.157c-4.292,2.286-8.63,7.439-10.116,5.65c-1.795-2.16,0.362-4.351,2.96-5.873
	c2.597-1.521,11.56-8.072,22.247-6.178c10.688,1.896,17.926,7.533,21.766,13.513c3.841,5.979,5.592,12.726,2.438,19.193
	c-3.152,6.467-10.101,7.627-14.033,5.166s-8.602-8.315-7.74-14.606c0.861-6.292,7.147-6.222,9.1-4.141
	c1.953,2.08,3.989,4.713,1.728,8.841c-1.576,2.878-1.664,4.569,0.553,5.175C470.512,620.159,474.09,617.642,474.578,614.119z"/>
<path fill="none" stroke="#000000" stroke-width="1.0001" stroke-linejoin="round" stroke-miterlimit="3.8636" d="M474.578,614.119
	c0.486-3.521,2.501-11.403-10.906-20.235c-8.661-5.706-20.306-3.443-24.597-1.157c-4.292,2.286-8.63,7.439-10.116,5.65
	c-1.795-2.16,0.362-4.351,2.96-5.873c2.597-1.521,11.56-8.072,22.247-6.178c10.688,1.896,17.926,7.533,21.766,13.513
	c3.841,5.979,5.592,12.726,2.438,19.193c-3.152,6.467-10.101,7.627-14.033,5.166s-8.602-8.315-7.74-14.606
	c0.861-6.292,7.147-6.222,9.1-4.141c1.953,2.08,3.989,4.713,1.728,8.841c-1.576,2.878-1.664,4.569,0.553,5.175
	C470.512,620.159,474.09,617.642,474.578,614.119z"/>
<path fill-rule="evenodd" clip-rule="evenodd" d="M539.493,517.057c-0.808-3.463-1.751-11.542-17.434-14.983
	c-10.13-2.223-20.19,4.063-23.378,7.734c-3.187,3.672-5.391,10.038-7.419,8.901c-2.45-1.374-1.221-4.192,0.659-6.544
	c1.879-2.352,7.898-11.68,18.556-13.74s19.435,0.608,25.162,4.814s9.78,9.877,9.155,17.044c-0.626,7.168-6.697,10.741-11.25,9.853
	c-4.553-0.888-11.011-4.68-12.461-10.862c-1.451-6.183,4.443-8.369,7.012-7.127s5.412,2.971,4.781,7.635
	c-0.44,3.252,0.084,4.862,2.37,4.633C537.862,524.151,540.301,520.52,539.493,517.057z"/>
<path fill="none" stroke="#000000" stroke-width="1.0001" stroke-linejoin="round" stroke-miterlimit="3.8636" d="M539.493,517.057
	c-0.808-3.463-1.751-11.542-17.434-14.983c-10.13-2.223-20.19,4.063-23.378,7.734c-3.187,3.672-5.391,10.038-7.419,8.901
	c-2.45-1.374-1.221-4.192,0.659-6.544c1.879-2.352,7.898-11.68,18.556-13.74s19.435,0.608,25.162,4.814s9.78,9.877,9.155,17.044
	c-0.626,7.168-6.697,10.741-11.25,9.853c-4.553-0.888-11.011-4.68-12.461-10.862c-1.451-6.183,4.443-8.369,7.012-7.127
	s5.412,2.971,4.781,7.635c-0.44,3.252,0.084,4.862,2.37,4.633C537.862,524.151,540.301,520.52,539.493,517.057z"/>
<path fill-rule="evenodd" clip-rule="evenodd" d="M554.727,411.307c-1.994-2.943-5.771-10.148-21.645-7.741
	c-10.254,1.555-17.394,11.028-19.053,15.598c-1.66,4.57-1.436,11.302-3.736,10.968c-2.78-0.404-2.643-3.476-1.73-6.345
	c0.911-2.869,3.188-13.735,12.398-19.478c9.211-5.743,18.361-6.396,25.216-4.522c6.855,1.874,12.671,5.715,14.655,12.631
	c1.984,6.916-2.402,12.427-6.972,13.229c-4.568,0.802-11.956-0.424-15.525-5.676c-3.57-5.252,1.148-9.405,3.991-9.166
	c2.844,0.239,6.118,0.833,7.2,5.415c0.754,3.193,1.82,4.508,3.873,3.475C555.747,418.515,556.721,414.25,554.727,411.307z"/>
<path fill="none" stroke="#000000" stroke-linejoin="round" stroke-miterlimit="3.8636" d="M554.727,411.307
	c-1.994-2.943-5.771-10.148-21.645-7.741c-10.254,1.555-17.394,11.028-19.053,15.598c-1.66,4.57-1.436,11.302-3.736,10.968
	c-2.78-0.404-2.643-3.476-1.73-6.345c0.911-2.869,3.188-13.735,12.398-19.478c9.211-5.743,18.361-6.396,25.216-4.522
	c6.855,1.874,12.671,5.715,14.655,12.631c1.984,6.916-2.402,12.427-6.972,13.229c-4.568,0.802-11.956-0.424-15.525-5.676
	c-3.57-5.252,1.148-9.405,3.991-9.166c2.844,0.239,6.118,0.833,7.2,5.415c0.754,3.193,1.82,4.508,3.873,3.475
	C555.747,418.515,556.721,414.25,554.727,411.307z"/>
<path fill-rule="evenodd" clip-rule="evenodd" d="M514.047,296.178c-3.226-1.495-10.174-5.726-22.54,4.513
	c-7.988,6.614-9.229,18.41-8.297,23.182c0.931,4.772,4.591,10.427,2.446,11.326c-2.591,1.085-4.055-1.619-4.751-4.547
	s-4.341-13.415,0.597-23.081c4.937-9.666,12.443-14.938,19.284-16.862c6.841-1.924,13.804-1.626,19.067,3.279
	c5.263,4.905,4.34,11.889,0.838,14.93c-3.503,3.041-10.467,5.794-16.231,3.131c-5.765-2.663-3.86-8.653-1.3-9.912
	c2.561-1.259,5.674-2.437,8.961,0.933c2.291,2.348,3.883,2.927,5.109,0.984C518.634,301.831,517.272,297.673,514.047,296.178z"/>
<path fill="none" stroke="#000000" stroke-linejoin="round" stroke-miterlimit="3.8636" d="M514.047,296.178
	c-3.226-1.495-10.174-5.726-22.54,4.513c-7.988,6.614-9.229,18.41-8.297,23.182c0.931,4.772,4.591,10.427,2.446,11.326
	c-2.591,1.085-4.055-1.619-4.751-4.547s-4.341-13.415,0.597-23.081c4.937-9.666,12.443-14.938,19.284-16.862
	c6.841-1.924,13.804-1.626,19.067,3.279c5.263,4.905,4.34,11.889,0.838,14.93c-3.503,3.041-10.467,5.794-16.231,3.131
	c-5.765-2.663-3.86-8.653-1.3-9.912c2.561-1.259,5.674-2.437,8.961,0.933c2.291,2.348,3.883,2.927,5.109,0.984
	C518.634,301.831,517.272,297.673,514.047,296.178z"/>
<path fill-rule="evenodd" clip-rule="evenodd" d="M364.331,193c2.464,2.563,8.726,7.755,3.071,22.781
	c-3.653,9.707-14.403,14.721-19.219,15.394c-4.815,0.674-11.354-0.945-11.506,1.375c-0.182,2.803,2.852,3.308,5.847,3.012
	c2.996-0.296,14.098-0.264,21.63-8.079c7.532-7.815,10.074-16.63,9.666-23.725s-2.957-13.582-9.309-16.961
	s-12.655-0.232-14.39,4.069c-1.735,4.302-2.071,11.783,2.323,16.366c4.396,4.584,9.439,0.832,9.796-1.999
	c0.357-2.831,0.457-6.157-3.8-8.168c-2.966-1.401-4.031-2.718-2.594-4.511C357.492,190.503,361.867,190.437,364.331,193z"/>
<path fill="none" stroke="#000000" stroke-width="1.0001" stroke-linejoin="round" stroke-miterlimit="3.8636" d="M364.331,193
	c2.464,2.563,8.726,7.755,3.071,22.781c-3.653,9.707-14.403,14.721-19.219,15.394c-4.815,0.674-11.354-0.945-11.506,1.375
	c-0.182,2.803,2.852,3.308,5.847,3.012c2.996-0.296,14.098-0.264,21.63-8.079c7.532-7.815,10.074-16.63,9.666-23.725
	s-2.957-13.582-9.309-16.961s-12.655-0.232-14.39,4.069c-1.735,4.302-2.071,11.783,2.323,16.366
	c4.396,4.584,9.439,0.832,9.796-1.999c0.357-2.831,0.457-6.157-3.8-8.168c-2.966-1.401-4.031-2.718-2.594-4.511
	C357.492,190.503,361.867,190.437,364.331,193z"/>
<path fill-rule="evenodd" clip-rule="evenodd" d="M241.649,190.195c3.106,1.73,10.612,4.865,9.598,20.888
	c-0.656,10.351-9.47,18.288-13.878,20.34s-11.135,2.416-10.601,4.679c0.645,2.734,3.693,2.329,6.471,1.171
	c2.779-1.159,13.404-4.375,18.322-14.051c4.918-9.676,4.771-18.848,2.307-25.514c-2.464-6.665-6.798-12.124-13.861-13.498
	c-7.062-1.374-12.17,3.478-12.571,8.099s1.464,11.874,7.008,14.972c5.543,3.099,9.27-1.964,8.783-4.775s-1.364-6.022-6.021-6.7
	c-3.247-0.473-4.65-1.421-3.8-3.556C234.379,189.808,238.543,188.465,241.649,190.195z"/>
<path fill="none" stroke="#000000" stroke-width="1.0001" stroke-linejoin="round" stroke-miterlimit="3.8636" d="M241.649,190.195
	c3.106,1.73,10.612,4.865,9.598,20.888c-0.656,10.351-9.47,18.288-13.878,20.34s-11.135,2.416-10.601,4.679
	c0.645,2.734,3.693,2.329,6.471,1.171c2.779-1.159,13.404-4.375,18.322-14.051c4.918-9.676,4.771-18.848,2.307-25.514
	c-2.464-6.665-6.798-12.124-13.861-13.498c-7.062-1.374-12.17,3.478-12.571,8.099s1.464,11.874,7.008,14.972
	c5.543,3.099,9.27-1.964,8.783-4.775s-1.364-6.022-6.021-6.7c-3.247-0.473-4.65-1.421-3.8-3.556
	C234.379,189.808,238.543,188.465,241.649,190.195z"/>
<path fill-rule="evenodd" clip-rule="evenodd" d="M123.442,245.583c3.543-0.302,11.519-1.901,19.637,11.949
	c5.245,8.947,2.376,20.457-0.131,24.623c-2.507,4.166-7.88,8.229-6.172,9.807c2.063,1.905,4.364-0.135,6.02-2.648
	c1.656-2.515,8.667-11.122,7.333-21.894c-1.334-10.772-6.584-18.294-12.354-22.442c-5.771-4.147-12.416-6.249-19.039-3.439
	s-8.145,9.688-5.894,13.744c2.251,4.056,7.854,9.024,14.182,8.494s6.586-6.812,4.611-8.871c-1.976-2.059-4.498-4.23-8.739-2.188
	c-2.956,1.423-4.649,1.422-5.138-0.823C117.199,249.327,119.9,245.885,123.442,245.583z"/>
<path fill="none" stroke="#000000" stroke-width="1.0001" stroke-linejoin="round" stroke-miterlimit="3.8636" d="M123.442,245.583
	c3.543-0.302,11.519-1.901,19.637,11.949c5.245,8.947,2.376,20.457-0.131,24.623c-2.507,4.166-7.88,8.229-6.172,9.807
	c2.063,1.905,4.364-0.135,6.02-2.648c1.656-2.515,8.667-11.122,7.333-21.894c-1.334-10.772-6.584-18.294-12.354-22.442
	c-5.771-4.147-12.416-6.249-19.039-3.439s-8.145,9.688-5.894,13.744c2.251,4.056,7.854,9.024,14.182,8.494s6.586-6.812,4.611-8.871
	c-1.976-2.059-4.498-4.23-8.739-2.188c-2.956,1.423-4.649,1.422-5.138-0.823C117.199,249.327,119.9,245.885,123.442,245.583z"/>
<path fill-rule="evenodd" clip-rule="evenodd" d="M50.411,362.716c2.768-2.231,8.485-8.017,22.961-1.074
	c9.351,4.485,13.409,15.63,13.661,20.486c0.251,4.855-1.931,11.229,0.368,11.581c2.776,0.426,3.542-2.552,3.509-5.562
	c-0.033-3.01,0.965-14.066-6.165-22.251c-7.129-8.184-15.688-11.483-22.792-11.696c-7.103-0.212-13.787,1.762-17.706,7.795
	c-3.919,6.033-1.334,12.586,2.8,14.689s11.557,3.09,16.506-0.889c4.949-3.979,1.65-9.33-1.138-9.932
	c-2.789-0.602-6.094-0.992-8.468,3.073c-1.654,2.833-3.059,3.779-4.72,2.191C47.328,369.311,47.643,364.948,50.411,362.716z"/>
<path fill="none" stroke="#000000" stroke-linejoin="round" stroke-miterlimit="3.8636" d="M50.411,362.716
	c2.768-2.231,8.485-8.017,22.961-1.074c9.351,4.485,13.409,15.63,13.661,20.486c0.251,4.855-1.931,11.229,0.368,11.581
	c2.776,0.426,3.542-2.552,3.509-5.562c-0.033-3.01,0.965-14.066-6.165-22.251c-7.129-8.184-15.688-11.483-22.792-11.696
	c-7.103-0.212-13.787,1.762-17.706,7.795c-3.919,6.033-1.334,12.586,2.8,14.689s11.557,3.09,16.506-0.889
	c4.949-3.979,1.65-9.33-1.138-9.932c-2.789-0.602-6.094-0.992-8.468,3.073c-1.654,2.833-3.059,3.779-4.72,2.191
	C47.328,369.311,47.643,364.948,50.411,362.716z"/>
<path fill-rule="evenodd" clip-rule="evenodd" d="M39.038,483.644c1.046-3.397,2.551-11.391,18.434-13.729
	c10.26-1.512,19.857,5.459,22.781,9.344s4.679,10.388,6.781,9.396c2.54-1.199,1.51-4.097-0.201-6.573
	c-1.711-2.477-7.066-12.2-17.553-14.998c-10.487-2.799-19.428-0.748-25.435,3.048S33.4,479.3,33.525,486.493
	c0.125,7.192,5.932,11.18,10.536,10.611s11.309-3.901,13.187-9.967c1.878-6.065-3.849-8.657-6.498-7.598
	c-2.648,1.061-5.606,2.586-5.301,7.283c0.212,3.273-0.423,4.843-2.688,4.455C40.17,490.834,37.991,487.041,39.038,483.644z"/>
<path fill="none" stroke="#000000" stroke-linejoin="round" stroke-miterlimit="3.8636" d="M39.038,483.644
	c1.046-3.397,2.551-11.391,18.434-13.729c10.26-1.512,19.857,5.459,22.781,9.344s4.679,10.388,6.781,9.396
	c2.54-1.199,1.51-4.097-0.201-6.573c-1.711-2.477-7.066-12.2-17.553-14.998c-10.487-2.799-19.428-0.748-25.435,3.048
	S33.4,479.3,33.525,486.493c0.125,7.192,5.932,11.18,10.536,10.611s11.309-3.901,13.187-9.967c1.878-6.065-3.849-8.657-6.498-7.598
	c-2.648,1.061-5.606,2.586-5.301,7.283c0.212,3.273-0.423,4.843-2.688,4.455C40.17,490.834,37.991,487.041,39.038,483.644z"/>
<path fill-rule="evenodd" clip-rule="evenodd" d="M79.911,586.496c0.008-3.555-0.891-11.639,13.613-18.52
	c9.369-4.444,20.585-0.584,24.516,2.275c3.932,2.86,7.511,8.566,9.231,7.002c2.078-1.889,0.247-4.358-2.114-6.227
	s-10.325-9.601-21.171-9.211c-10.846,0.391-18.796,4.965-23.431,10.352c-4.634,5.386-7.306,11.822-5.083,18.664
	c2.223,6.843,8.942,8.957,13.178,7.067c4.236-1.889,9.673-7.036,9.695-13.386s-6.212-7.153-8.435-5.365s-4.605,4.111-2.94,8.514
	c1.161,3.068,1.012,4.755-1.267,5.046C83.097,593.041,79.904,590.051,79.911,586.496z"/>
<path fill="none" stroke="#000000" stroke-linejoin="round" stroke-miterlimit="3.8636" d="M79.911,586.496
	c0.008-3.555-0.891-11.639,13.613-18.52c9.369-4.444,20.585-0.584,24.516,2.275c3.932,2.86,7.511,8.566,9.231,7.002
	c2.078-1.889,0.247-4.358-2.114-6.227s-10.325-9.601-21.171-9.211c-10.846,0.391-18.796,4.965-23.431,10.352
	c-4.634,5.386-7.306,11.822-5.083,18.664c2.223,6.843,8.942,8.957,13.178,7.067c4.236-1.889,9.673-7.036,9.695-13.386
	s-6.212-7.153-8.435-5.365s-4.605,4.111-2.94,8.514c1.161,3.068,1.012,4.755-1.267,5.046
	C83.097,593.041,79.904,590.051,79.911,586.496z"/>
<path fill-rule="evenodd" clip-rule="evenodd" d="M182.852,664.552c-1.717-3.112-6.423-9.746,2.926-22.794
	c6.039-8.429,17.719-10.49,22.544-9.895s10.722,3.85,11.468,1.648c0.901-2.66-1.897-3.932-4.868-4.421s-13.685-3.392-22.982,2.208
	c-9.296,5.599-14.031,13.453-15.473,20.41s-0.657,13.881,4.604,18.787s12.163,3.498,14.951-0.208
	c2.789-3.705,5.048-10.843,1.989-16.406c-3.06-5.563-8.902-3.244-9.979-0.603c-1.077,2.641-2.033,5.828,1.557,8.87
	c2.503,2.121,3.191,3.668,1.338,5.027C188.812,668.731,184.569,667.664,182.852,664.552z"/>
<path fill="none" stroke="#000000" stroke-linejoin="round" stroke-miterlimit="3.8636" d="M182.852,664.552
	c-1.717-3.112-6.423-9.746,2.926-22.794c6.039-8.429,17.719-10.49,22.544-9.895s10.722,3.85,11.468,1.648
	c0.901-2.66-1.897-3.932-4.868-4.421s-13.685-3.392-22.982,2.208c-9.296,5.599-14.031,13.453-15.473,20.41
	s-0.657,13.881,4.604,18.787s12.163,3.498,14.951-0.208c2.789-3.705,5.048-10.843,1.989-16.406c-3.06-5.563-8.902-3.244-9.979-0.603
	c-1.077,2.641-2.033,5.828,1.557,8.87c2.503,2.121,3.191,3.668,1.338,5.027C188.812,668.731,184.569,667.664,182.852,664.552z"/>
<path fill-rule="evenodd" clip-rule="evenodd" d="M306.334,691.255c-3.164-1.62-10.774-4.488-10.322-20.531
	c0.292-10.363,8.821-18.603,13.154-20.807s11.041-2.804,10.429-5.046c-0.741-2.708-3.772-2.197-6.508-0.942
	s-13.241,4.841-17.816,14.68s-4.107,18.997-1.411,25.569c2.696,6.572,7.218,11.874,14.323,12.999
	c7.104,1.125,12.038-3.901,12.277-8.531c0.239-4.631-1.879-11.811-7.526-14.712s-9.193,2.287-8.609,5.079s1.574,5.968,6.252,6.482
	c3.261,0.358,4.696,1.257,3.921,3.419C313.611,691.388,309.498,692.875,306.334,691.255z"/>
<path fill="none" stroke="#000000" stroke-linejoin="round" stroke-miterlimit="3.8636" d="M306.334,691.255
	c-3.164-1.62-10.774-4.488-10.322-20.531c0.292-10.363,8.821-18.603,13.154-20.807s11.041-2.804,10.429-5.046
	c-0.741-2.708-3.772-2.197-6.508-0.942s-13.241,4.841-17.816,14.68s-4.107,18.997-1.411,25.569
	c2.696,6.572,7.218,11.874,14.323,12.999c7.104,1.125,12.038-3.901,12.277-8.531c0.239-4.631-1.879-11.811-7.526-14.712
	s-9.193,2.287-8.609,5.079s1.574,5.968,6.252,6.482c3.261,0.358,4.696,1.257,3.921,3.419
	C313.611,691.388,309.498,692.875,306.334,691.255z"/>
<path fill-rule="evenodd" clip-rule="evenodd" d="M426.421,653.438c-3.552-0.131-11.661,0.485-18.032-14.244
	c-4.117-9.515,0.129-20.585,3.124-24.413c2.994-3.828,8.82-7.207,7.317-8.979c-1.816-2.142-4.348-0.397-6.296,1.896
	s-9.952,9.98-9.938,20.83s4.309,18.951,9.53,23.769c5.222,4.816,11.561,7.71,18.475,5.728s9.26-8.622,7.519-12.919
	c-1.74-4.298-6.695-9.909-13.039-10.152c-6.344-0.242-7.364,5.958-5.654,8.241c1.71,2.282,3.949,4.743,8.405,3.232
	c3.106-1.053,4.787-0.846,4.999,1.441C433.072,650.483,429.973,653.569,426.421,653.438z"/>
<path fill="none" stroke="#000000" stroke-linejoin="round" stroke-miterlimit="3.8636" d="M426.421,653.438
	c-3.552-0.131-11.661,0.485-18.032-14.244c-4.117-9.515,0.129-20.585,3.124-24.413c2.994-3.828,8.82-7.207,7.317-8.979
	c-1.816-2.142-4.348-0.397-6.296,1.896s-9.952,9.98-9.938,20.83s4.309,18.951,9.53,23.769c5.222,4.816,11.561,7.71,18.475,5.728
	s9.26-8.622,7.519-12.919c-1.74-4.298-6.695-9.909-13.039-10.152c-6.344-0.242-7.364,5.958-5.654,8.241
	c1.71,2.282,3.949,4.743,8.405,3.232c3.106-1.053,4.787-0.846,4.999,1.441C433.072,650.483,429.973,653.569,426.421,653.438z"/>
<path fill-rule="evenodd" clip-rule="evenodd" d="M512.675,569.463c-3.274,1.382-10.362,5.366-22.362-5.288
	c-7.753-6.884-8.585-18.709-7.49-23.443c1.096-4.734,4.946-10.257,2.835-11.229c-2.552-1.174-4.107,1.477-4.903,4.378
	c-0.797,2.901-4.8,13.249-0.201,23.075c4.6,9.825,11.917,15.353,18.685,17.511c6.769,2.159,13.735,2.103,19.163-2.615
	c5.427-4.718,4.746-11.726,1.353-14.884c-3.395-3.159-10.257-6.15-16.108-3.69c-5.852,2.461-4.154,8.511-1.641,9.856
	c2.515,1.347,5.584,2.63,8.984-0.621c2.369-2.267,3.98-2.789,5.139-0.806C517.452,563.975,515.949,568.08,512.675,569.463z"/>
<path fill="none" stroke="#000000" stroke-linejoin="round" stroke-miterlimit="3.8636" d="M512.675,569.463
	c-3.274,1.382-10.362,5.366-22.362-5.288c-7.753-6.884-8.585-18.709-7.49-23.443c1.096-4.734,4.946-10.257,2.835-11.229
	c-2.552-1.174-4.107,1.477-4.903,4.378c-0.797,2.901-4.8,13.249-0.201,23.075c4.6,9.825,11.917,15.353,18.685,17.511
	c6.769,2.159,13.735,2.103,19.163-2.615c5.427-4.718,4.746-11.726,1.353-14.884c-3.395-3.159-10.257-6.15-16.108-3.69
	c-5.852,2.461-4.154,8.511-1.641,9.856c2.515,1.347,5.584,2.63,8.984-0.621c2.369-2.267,3.98-2.789,5.139-0.806
	C517.452,563.975,515.949,568.08,512.675,569.463z"/>
<path fill-rule="evenodd" clip-rule="evenodd" d="M552.008,465.008c-2.383,2.637-7.121,9.242-22.501,4.657
	c-9.935-2.962-15.688-13.326-16.697-18.079s0.146-11.385-2.178-11.373c-2.808,0.015-3.098,3.073-2.593,6.039
	s1.252,14.034,9.573,20.995s17.288,8.877,24.335,7.974c7.045-0.903,13.335-3.898,16.259-10.467s-0.655-12.631-5.066-14.059
	c-4.411-1.429-11.895-1.24-16.157,3.462c-4.262,4.702-0.167,9.467,2.681,9.625c2.848,0.157,6.172,0.023,7.878-4.359
	c1.189-3.056,2.428-4.209,4.316-2.901C554.018,458.017,554.391,462.373,552.008,465.008z"/>
<path fill="none" stroke="#000000" stroke-linejoin="round" stroke-miterlimit="3.8636" d="M552.008,465.008
	c-2.383,2.637-7.121,9.242-22.501,4.657c-9.935-2.962-15.688-13.326-16.697-18.079s0.146-11.385-2.178-11.373
	c-2.808,0.015-3.098,3.073-2.593,6.039s1.252,14.034,9.573,20.995s17.288,8.877,24.335,7.974
	c7.045-0.903,13.335-3.898,16.259-10.467s-0.655-12.631-5.066-14.059c-4.411-1.429-11.895-1.24-16.157,3.462
	c-4.262,4.702-0.167,9.467,2.681,9.625c2.848,0.157,6.172,0.023,7.878-4.359c1.189-3.056,2.428-4.209,4.316-2.901
	C554.018,458.017,554.391,462.373,552.008,465.008z"/>
<path fill-rule="evenodd" clip-rule="evenodd" d="M537.35,351.647c-1.045,3.395-2.546,11.383-18.421,13.727
	c-10.255,1.514-19.851-5.447-22.774-9.328c-2.923-3.88-4.68-10.378-6.78-9.385c-2.539,1.199-1.509,4.093,0.203,6.567
	c1.711,2.474,7.067,12.188,17.55,14.98c10.483,2.792,19.42,0.74,25.423-3.056c6.003-3.795,10.437-9.167,10.31-16.354
	c-0.128-7.187-5.934-11.168-10.535-10.599c-4.601,0.569-11.303,3.902-13.177,9.964c-1.875,6.062,3.851,8.649,6.497,7.589
	c2.647-1.061,5.604-2.586,5.297-7.279c-0.214-3.271,0.42-4.84,2.685-4.453C536.215,344.463,538.395,348.252,537.35,351.647z"/>
<path fill="none" stroke="#000000" stroke-linejoin="round" stroke-miterlimit="3.8636" d="M537.35,351.647
	c-1.045,3.395-2.546,11.383-18.421,13.727c-10.255,1.514-19.851-5.447-22.774-9.328c-2.923-3.88-4.68-10.378-6.78-9.385
	c-2.539,1.199-1.509,4.093,0.203,6.567c1.711,2.474,7.067,12.188,17.55,14.98c10.483,2.792,19.42,0.74,25.423-3.056
	c6.003-3.795,10.437-9.167,10.31-16.354c-0.128-7.187-5.934-11.168-10.535-10.599c-4.601,0.569-11.303,3.902-13.177,9.964
	c-1.875,6.062,3.851,8.649,6.497,7.589c2.647-1.061,5.604-2.586,5.297-7.279c-0.214-3.271,0.42-4.84,2.685-4.453
	C536.215,344.463,538.395,348.252,537.35,351.647z"/>
<path fill-rule="evenodd" clip-rule="evenodd" d="M469.25,256.078c0.488,3.518,2.505,11.391-10.891,20.222
	c-8.652,5.705-20.29,3.451-24.58,1.169s-8.629-7.427-10.113-5.64c-1.793,2.16,0.365,4.347,2.961,5.866
	c2.597,1.519,11.557,8.059,22.237,6.159c10.68-1.899,17.91-7.535,21.745-13.511c3.836-5.976,5.582-12.716,2.429-19.176
	c-3.153-6.459-10.099-7.614-14.027-5.153c-3.929,2.46-8.593,8.312-7.729,14.597c0.863,6.285,7.146,6.211,9.097,4.132
	c1.95-2.08,3.983-4.711,1.722-8.834c-1.576-2.874-1.665-4.563,0.551-5.17C465.185,250.047,468.762,252.56,469.25,256.078z"/>
<path fill="none" stroke="#000000" stroke-linejoin="round" stroke-miterlimit="3.8636" d="M469.25,256.078
	c0.488,3.518,2.505,11.391-10.891,20.222c-8.652,5.705-20.29,3.451-24.58,1.169s-8.629-7.427-10.113-5.64
	c-1.793,2.16,0.365,4.347,2.961,5.866c2.597,1.519,11.557,8.059,22.237,6.159c10.68-1.899,17.91-7.535,21.745-13.511
	c3.836-5.976,5.582-12.716,2.429-19.176c-3.153-6.459-10.099-7.614-14.027-5.153c-3.929,2.46-8.593,8.312-7.729,14.597
	c0.863,6.285,7.146,6.211,9.097,4.132c1.95-2.08,3.983-4.711,1.722-8.834c-1.576-2.874-1.665-4.563,0.551-5.17
	C465.185,250.047,468.762,252.56,469.25,256.078z"/>
<path fill-rule="evenodd" clip-rule="evenodd" d="M70.625,334.5c1.25-2.625-2.125-10.125-10.25-13s-22.5-8.375-24.375-8
	s-2.75,1.5-2.75,1.5s0,2.125,0.75,3s18.125,15.875,22.875,17.5S69.375,337.125,70.625,334.5z"/>
<path fill="none" stroke="#000000" stroke-width="1.0001" stroke-linejoin="round" stroke-miterlimit="3.8636" d="M70.625,334.5
	c1.25-2.625-2.125-10.125-10.25-13s-22.5-8.375-24.375-8s-2.75,1.5-2.75,1.5s0,2.125,0.75,3s18.125,15.875,22.875,17.5
	S69.375,337.125,70.625,334.5z"/>
<path fill-rule="evenodd" clip-rule="evenodd" d="M77.75,336.625c1.125-2.125,5.875-4.125,11.125-2.25s12.875,8.875,13.5,11.125
	s-1.375,4.375-3.125,4.75s-12.128,1.058-17.625-4.125C77.25,342,76.625,338.75,77.75,336.625z"/>
<path fill="none" stroke="#000000" stroke-width="1.0001" stroke-linejoin="round" stroke-miterlimit="3.8636" d="M77.75,336.625
	c1.125-2.125,5.875-4.125,11.125-2.25s12.875,8.875,13.5,11.125s-1.375,4.375-3.125,4.75s-12.128,1.058-17.625-4.125
	C77.25,342,76.625,338.75,77.75,336.625z"/>
<path fill-rule="evenodd" clip-rule="evenodd" d="M51.316,450.763c-0.129-2.904-6.63-7.942-15.153-6.666
	c-8.523,1.275-23.798,3.168-25.277,4.379c-1.479,1.212-1.724,2.616-1.724,2.616s0.998,1.876,2.071,2.297
	c1.073,0.42,23.456,5.507,28.413,4.712C44.602,457.306,51.445,453.667,51.316,450.763z"/>
<path fill="none" stroke="#000000" stroke-width="1.0001" stroke-linejoin="round" stroke-miterlimit="3.8636" d="M51.316,450.763
	c-0.129-2.904-6.63-7.942-15.153-6.666c-8.523,1.275-23.798,3.168-25.277,4.379c-1.479,1.212-1.724,2.616-1.724,2.616
	s0.998,1.876,2.071,2.297c1.073,0.42,23.456,5.507,28.413,4.712C44.602,457.306,51.445,453.667,51.316,450.763z"/>
<path fill-rule="evenodd" clip-rule="evenodd" d="M58.605,449.294c-0.004-2.404,3.251-6.4,8.767-7.21
	c5.516-0.809,15.535,1.792,17.143,3.485c1.608,1.693,0.84,4.509-0.529,5.661s-10.212,6.628-17.499,4.633
	C60.687,454.274,58.609,451.698,58.605,449.294z"/>
<path fill="none" stroke="#000000" stroke-width="1.0001" stroke-linejoin="round" stroke-miterlimit="3.8636" d="M58.605,449.294
	c-0.004-2.404,3.251-6.4,8.767-7.21c5.516-0.809,15.535,1.792,17.143,3.485c1.608,1.693,0.84,4.509-0.529,5.661
	s-10.212,6.628-17.499,4.633C60.687,454.274,58.609,451.698,58.605,449.294z"/>
<path fill-rule="evenodd" clip-rule="evenodd" d="M74.955,554.731c-1.208-2.646-9.122-4.881-16.547-0.505
	c-7.425,4.376-20.878,11.853-21.796,13.53c-0.918,1.677-0.619,3.07-0.619,3.07s1.627,1.366,2.78,1.354
	c1.152-0.013,23.812-3.681,28.11-6.274C71.181,563.313,76.162,557.376,74.955,554.731z"/>
<path fill="none" stroke="#000000" stroke-linejoin="round" stroke-miterlimit="3.8636" d="M74.955,554.731
	c-1.208-2.646-9.122-4.881-16.547-0.505c-7.425,4.376-20.878,11.853-21.796,13.53c-0.918,1.677-0.619,3.07-0.619,3.07
	s1.627,1.366,2.78,1.354c1.152-0.013,23.812-3.681,28.11-6.274C71.181,563.313,76.162,557.376,74.955,554.731z"/>
<path fill-rule="evenodd" clip-rule="evenodd" d="M81.162,550.639c-0.904-2.228,0.617-7.151,5.428-9.968
	c4.811-2.817,15.074-4.158,17.2-3.191c2.125,0.968,2.468,3.866,1.63,5.447c-0.838,1.582-6.986,9.971-14.489,10.851
	C84.958,554.477,82.067,552.867,81.162,550.639z"/>
<path fill="none" stroke="#000000" stroke-linejoin="round" stroke-miterlimit="3.8636" d="M81.162,550.639
	c-0.904-2.228,0.617-7.151,5.428-9.968c4.811-2.817,15.074-4.158,17.2-3.191c2.125,0.968,2.468,3.866,1.63,5.447
	c-0.838,1.582-6.986,9.971-14.489,10.851C84.958,554.477,82.067,552.867,81.162,550.639z"/>
<path fill-rule="evenodd" clip-rule="evenodd" d="M160.248,638.722c-2.426-1.603-10.322,0.695-14.3,8.341
	s-11.425,21.115-11.314,23.023c0.11,1.909,1.103,2.932,1.103,2.932s2.104,0.296,3.075-0.324
	c0.971-0.621,18.243-15.739,20.513-20.217C161.595,648,162.673,640.325,160.248,638.722z"/>
<path fill="none" stroke="#000000" stroke-linejoin="round" stroke-miterlimit="3.8636" d="M160.248,638.722
	c-2.426-1.603-10.322,0.695-14.3,8.341s-11.425,21.115-11.314,23.023c0.11,1.909,1.103,2.932,1.103,2.932s2.104,0.296,3.075-0.324
	c0.971-0.621,18.243-15.739,20.513-20.217C161.595,648,162.673,640.325,160.248,638.722z"/>
<path fill-rule="evenodd" clip-rule="evenodd" d="M163.344,631.963c-1.948-1.41-3.267-6.393-0.68-11.33
	c2.587-4.938,10.58-11.514,12.895-11.819s4.141,1.97,4.269,3.755s-0.641,12.157-6.538,16.879
	C168.597,633.205,165.292,633.372,163.344,631.963z"/>
<path fill="none" stroke="#000000" stroke-linejoin="round" stroke-miterlimit="3.8636" d="M163.344,631.963
	c-1.948-1.41-3.267-6.393-0.68-11.33c2.587-4.938,10.58-11.514,12.895-11.819s4.141,1.97,4.269,3.755s-0.641,12.157-6.538,16.879
	C168.597,633.205,165.292,633.372,163.344,631.963z"/>
<path fill-rule="evenodd" clip-rule="evenodd" d="M278.521,673.933c-2.907-0.075-8.385,6.059-7.706,14.649s1.502,23.959,2.607,25.52
	c1.105,1.56,2.489,1.901,2.489,1.901s1.941-0.864,2.436-1.905s7.129-23.012,6.681-28.012S281.427,674.007,278.521,673.933z"/>
<path fill="none" stroke="#000000" stroke-linejoin="round" stroke-miterlimit="3.8636" d="M278.521,673.933
	c-2.907-0.075-8.385,6.059-7.706,14.649s1.502,23.959,2.607,25.52c1.105,1.56,2.489,1.901,2.489,1.901s1.941-0.864,2.436-1.905
	s7.129-23.012,6.681-28.012S281.427,674.007,278.521,673.933z"/>
<path fill-rule="evenodd" clip-rule="evenodd" d="M277.563,666.56c-2.399-0.163-6.158-3.688-6.581-9.247s2.87-15.37,4.671-16.856
	c1.801-1.485,4.556-0.522,5.61,0.923c1.054,1.446,5.899,10.648,3.401,17.777C282.677,664.83,279.962,666.723,277.563,666.56z"/>
<path fill="none" stroke="#000000" stroke-linejoin="round" stroke-miterlimit="3.8636" d="M277.563,666.56
	c-2.399-0.163-6.158-3.688-6.581-9.247s2.87-15.37,4.671-16.856c1.801-1.485,4.556-0.522,5.61,0.923
	c1.054,1.446,5.899,10.648,3.401,17.777C282.677,664.83,279.962,666.723,277.563,666.56z"/>
<path fill-rule="evenodd" clip-rule="evenodd" d="M389.442,654.757c-2.645,1.207-4.88,9.12-0.503,16.544
	c4.376,7.424,11.854,20.875,13.53,21.793c1.678,0.918,3.071,0.619,3.071,0.619s1.365-1.628,1.354-2.78
	c-0.013-1.151-3.682-23.808-6.276-28.104C398.023,658.53,392.087,653.55,389.442,654.757z"/>
<path fill="none" stroke="#000000" stroke-linejoin="round" stroke-miterlimit="3.8636" d="M389.442,654.757
	c-2.645,1.207-4.88,9.12-0.503,16.544c4.376,7.424,11.854,20.875,13.53,21.793c1.678,0.918,3.071,0.619,3.071,0.619
	s1.365-1.628,1.354-2.78c-0.013-1.151-3.682-23.808-6.276-28.104C398.023,658.53,392.087,653.55,389.442,654.757z"/>
<path fill-rule="evenodd" clip-rule="evenodd" d="M385.35,648.55c-2.228,0.905-7.151-0.616-9.968-5.427
	c-2.817-4.81-4.159-15.071-3.192-17.196c0.968-2.125,3.865-2.468,5.447-1.63s9.971,6.984,10.851,14.486
	C389.188,644.755,387.577,647.646,385.35,648.55z"/>
<path fill="none" stroke="#000000" stroke-linejoin="round" stroke-miterlimit="3.8636" d="M385.35,648.55
	c-2.228,0.905-7.151-0.616-9.968-5.427c-2.817-4.81-4.159-15.071-3.192-17.196c0.968-2.125,3.865-2.468,5.447-1.63
	s9.971,6.984,10.851,14.486C389.188,644.755,387.577,647.646,385.35,648.55z"/>
<path fill-rule="evenodd" clip-rule="evenodd" d="M484.059,586.576c-1.848,2.243-0.387,10.335,6.801,15.089
	s19.806,13.565,21.715,13.655c1.91,0.09,3.031-0.789,3.031-0.789s0.514-2.062-0.002-3.092c-0.517-1.03-13.747-19.783-17.963-22.508
	C493.425,586.206,485.905,584.332,484.059,586.576z"/>
<path fill="none" stroke="#000000" stroke-linejoin="round" stroke-miterlimit="3.8636" d="M484.059,586.576
	c-1.848,2.243-0.387,10.335,6.801,15.089s19.806,13.565,21.715,13.655c1.91,0.09,3.031-0.789,3.031-0.789s0.514-2.062-0.002-3.092
	c-0.517-1.03-13.747-19.783-17.963-22.508C493.425,586.206,485.905,584.332,484.059,586.576z"/>
<path fill-rule="evenodd" clip-rule="evenodd" d="M477.659,582.791c-1.605,1.789-6.698,2.58-11.339-0.508
	c-4.64-3.089-10.346-11.723-10.408-14.057c-0.062-2.334,2.393-3.911,4.182-3.852c1.788,0.059,12.022,1.907,16.103,8.264
	C479.443,577.698,479.265,581.002,477.659,582.791z"/>
<path fill="none" stroke="#000000" stroke-linejoin="round" stroke-miterlimit="3.8636" d="M477.659,582.791
	c-1.605,1.789-6.698,2.58-11.339-0.508c-4.64-3.089-10.346-11.723-10.408-14.057c-0.062-2.334,2.393-3.911,4.182-3.852
	c1.788,0.059,12.022,1.907,16.103,8.264C479.443,577.698,479.265,581.002,477.659,582.791z"/>
<path fill-rule="evenodd" clip-rule="evenodd" d="M535.188,486.448c-0.677,2.827,4.185,9.458,12.729,10.581
	c8.544,1.122,23.747,3.512,25.503,2.755s2.378-2.038,2.378-2.038s-0.442-2.078-1.357-2.777c-0.915-0.7-21.028-11.755-26.012-12.356
	S535.865,483.622,535.188,486.448z"/>
<path fill="none" stroke="#000000" stroke-linejoin="round" stroke-miterlimit="3.8636" d="M535.188,486.448
	c-0.677,2.827,4.185,9.458,12.729,10.581c8.544,1.122,23.747,3.512,25.503,2.755s2.378-2.038,2.378-2.038s-0.442-2.078-1.357-2.777
	c-0.915-0.7-21.028-11.755-26.012-12.356S535.865,483.622,535.188,486.448z"/>
<path fill-rule="evenodd" clip-rule="evenodd" d="M527.778,485.852c-0.658,2.312-4.888,5.255-10.413,4.513
	c-5.524-0.742-14.438-6.001-15.517-8.071s0.435-4.563,2.068-5.294s11.642-3.556,18.096,0.369
	C527.149,480.492,528.437,483.54,527.778,485.852z"/>
<path fill="none" stroke="#000000" stroke-linejoin="round" stroke-miterlimit="3.8636" d="M527.778,485.852
	c-0.658,2.312-4.888,5.255-10.413,4.513c-5.524-0.742-14.438-6.001-15.517-8.071s0.435-4.563,2.068-5.294s11.642-3.556,18.096,0.369
	C527.149,480.492,528.437,483.54,527.778,485.852z"/>
<path fill-rule="evenodd" clip-rule="evenodd" d="M531.604,384.276c0.631,2.837,7.907,6.667,16.078,3.931s22.882-7.252,24.129-8.701
	c1.246-1.449,1.242-2.874,1.242-2.874s-1.308-1.674-2.438-1.901c-1.129-0.228-24.052-1.348-28.794,0.296
	C537.078,376.67,530.973,381.439,531.604,384.276z"/>
<path fill="none" stroke="#000000" stroke-linejoin="round" stroke-miterlimit="3.8636" d="M531.604,384.276
	c0.631,2.837,7.907,6.667,16.078,3.931s22.882-7.252,24.129-8.701c1.246-1.449,1.242-2.874,1.242-2.874s-1.308-1.674-2.438-1.901
	c-1.129-0.228-24.052-1.348-28.794,0.296C537.078,376.67,530.973,381.439,531.604,384.276z"/>
<path fill-rule="evenodd" clip-rule="evenodd" d="M524.682,386.988c0.422,2.366-2.089,6.864-7.379,8.619
	c-5.291,1.754-15.607,0.934-17.484-0.454s-1.609-4.292-0.462-5.665c1.147-1.372,8.903-8.297,16.425-7.599
	C521.768,382.447,524.261,384.622,524.682,386.988z"/>
<path fill="none" stroke="#000000" stroke-linejoin="round" stroke-miterlimit="3.8636" d="M524.682,386.988
	c0.422,2.366-2.089,6.864-7.379,8.619c-5.291,1.754-15.607,0.934-17.484-0.454s-1.609-4.292-0.462-5.665
	c1.147-1.372,8.903-8.297,16.425-7.599C521.768,382.447,524.261,384.622,524.682,386.988z"/>
<path fill-rule="evenodd" clip-rule="evenodd" d="M483.904,281.719c1.811,2.273,10.029,2.526,16.173-3.514
	s17.386-16.546,17.87-18.395c0.484-1.849-0.143-3.127-0.143-3.127s-1.91-0.931-3.025-0.64c-1.114,0.29-22.207,9.33-25.748,12.886
	C485.489,272.483,482.094,279.446,483.904,281.719z"/>
<path fill="none" stroke="#000000" stroke-linejoin="round" stroke-miterlimit="3.8636" d="M483.904,281.719
	c1.811,2.273,10.029,2.526,16.173-3.514s17.386-16.546,17.87-18.395c0.484-1.849-0.143-3.127-0.143-3.127s-1.91-0.931-3.025-0.64
	c-1.114,0.29-22.207,9.33-25.748,12.886C485.489,272.483,482.094,279.446,483.904,281.719z"/>
<path fill-rule="evenodd" clip-rule="evenodd" d="M478.872,287.189c1.417,1.941,1.132,7.085-2.854,10.98s-13.616,7.68-15.912,7.256
	s-3.328-3.152-2.898-4.889c0.43-1.736,4.364-11.359,11.431-14.027C474.262,284.386,477.456,285.248,478.872,287.189z"/>
<path fill="none" stroke="#000000" stroke-linejoin="round" stroke-miterlimit="3.8636" d="M478.872,287.189
	c1.417,1.941,1.132,7.085-2.854,10.98s-13.616,7.68-15.912,7.256s-3.328-3.152-2.898-4.889c0.43-1.736,4.364-11.359,11.431-14.027
	C474.262,284.386,477.456,285.248,478.872,287.189z"/>
<path fill-rule="evenodd" clip-rule="evenodd" d="M385.899,216.726c2.624,1.249,10.121-2.125,12.994-10.247
	c2.874-8.122,8.37-22.49,7.995-24.364s-1.499-2.749-1.499-2.749s-2.124,0-2.999,0.75c-0.875,0.75-15.867,18.118-17.492,22.866
	C383.275,207.73,383.275,215.477,385.899,216.726z"/>
<path fill="none" stroke="#000000" stroke-linejoin="round" stroke-miterlimit="3.8636" d="M385.899,216.726
	c2.624,1.249,10.121-2.125,12.994-10.247c2.874-8.122,8.37-22.49,7.995-24.364s-1.499-2.749-1.499-2.749s-2.124,0-2.999,0.75
	c-0.875,0.75-15.867,18.118-17.492,22.866C383.275,207.73,383.275,215.477,385.899,216.726z"/>
<path fill-rule="evenodd" clip-rule="evenodd" d="M383.775,223.848c2.125,1.124,4.124,5.871,2.25,11.119
	c-1.874,5.248-8.871,12.87-11.119,13.495c-2.25,0.625-4.374-1.374-4.749-3.123s-1.058-12.122,4.122-17.617
	C378.402,223.349,381.651,222.724,383.775,223.848z"/>
<path fill="none" stroke="#000000" stroke-linejoin="round" stroke-miterlimit="3.8636" d="M383.775,223.848
	c2.125,1.124,4.124,5.871,2.25,11.119c-1.874,5.248-8.871,12.87-11.119,13.495c-2.25,0.625-4.374-1.374-4.749-3.123
	s-1.058-12.122,4.122-17.617C378.402,223.349,381.651,222.724,383.775,223.848z"/>
<path fill-rule="evenodd" clip-rule="evenodd" d="M273.045,198.717c2.906-0.027,8.165-6.346,7.186-14.904
	c-0.978-8.558-2.337-23.881-3.496-25.401c-1.159-1.52-2.553-1.813-2.553-1.813s-1.909,0.931-2.366,1.988
	c-0.458,1.057-6.317,23.237-5.695,28.216S270.139,198.745,273.045,198.717z"/>
<path fill="none" stroke="#000000" stroke-linejoin="round" stroke-miterlimit="3.8636" d="M273.045,198.717
	c2.906-0.027,8.165-6.346,7.186-14.904c-0.978-8.558-2.337-23.881-3.496-25.401c-1.159-1.52-2.553-1.813-2.553-1.813
	s-1.909,0.931-2.366,1.988c-0.458,1.057-6.317,23.237-5.695,28.216S270.139,198.745,273.045,198.717z"/>
<path fill-rule="evenodd" clip-rule="evenodd" d="M274.259,206.048c2.402,0.08,6.28,3.469,6.897,9.007
	c0.617,5.537-2.33,15.454-4.077,17.001c-1.748,1.547-4.533,0.682-5.637-0.726c-1.104-1.408-6.266-10.431-4.019-17.639
	C269.211,207.955,271.857,205.969,274.259,206.048z"/>
<path fill="none" stroke="#000000" stroke-linejoin="round" stroke-miterlimit="3.8636" d="M274.259,206.048
	c2.402,0.08,6.28,3.469,6.897,9.007c0.617,5.537-2.33,15.454-4.077,17.001c-1.748,1.547-4.533,0.682-5.637-0.726
	c-1.104-1.408-6.266-10.431-4.019-17.639C269.211,207.955,271.857,205.969,274.259,206.048z"/>
<path fill-rule="evenodd" clip-rule="evenodd" d="M156.127,233.821c2.304-1.771,2.701-9.98-3.231-16.226s-16.24-17.664-18.08-18.181
	c-1.84-0.517-3.129,0.089-3.129,0.089s-0.964,1.892-0.693,3.012c0.271,1.119,8.941,22.357,12.435,25.959
	C146.921,232.076,153.823,235.592,156.127,233.821z"/>
<path fill="none" stroke="#000000" stroke-linejoin="round" stroke-miterlimit="3.8636" d="M156.127,233.821
	c2.304-1.771,2.701-9.98-3.231-16.226s-16.24-17.664-18.08-18.181c-1.84-0.517-3.129,0.089-3.129,0.089s-0.964,1.892-0.693,3.012
	c0.271,1.119,8.941,22.357,12.435,25.959C146.921,232.076,153.823,235.592,156.127,233.821z"/>
<path fill-rule="evenodd" clip-rule="evenodd" d="M161.509,238.945c1.966-1.382,7.104-1.008,10.929,3.043
	c3.825,4.051,7.441,13.743,6.977,16.03c-0.464,2.287-3.209,3.272-4.938,2.812c-1.729-0.459-11.281-4.56-13.826-11.668
	C158.625,243.505,159.543,240.327,161.509,238.945z"/>
<path fill="none" stroke="#000000" stroke-linejoin="round" stroke-miterlimit="3.8636" d="M161.509,238.945
	c1.966-1.382,7.104-1.008,10.929,3.043c3.825,4.051,7.441,13.743,6.977,16.03c-0.464,2.287-3.209,3.272-4.938,2.812
	c-1.729-0.459-11.281-4.56-13.826-11.668C158.625,243.505,159.543,240.327,161.509,238.945z"/>
<path fill-rule="evenodd" clip-rule="evenodd" d="M331.875,204.125c-1.125-0.125-4.25-24.125-4.25-26s1-10.25,5.125-14.375
	s5.75-4.25,7.125-4s3.875,4.625,4.25,6.125S345.5,175,343.25,181.25S333,204.25,331.875,204.125z"/>
<path fill="none" stroke="#000000" stroke-width="1.0001" stroke-linejoin="round" stroke-miterlimit="3.8636" d="M331.875,204.125
	c-1.125-0.125-4.25-24.125-4.25-26s1-10.25,5.125-14.375s5.75-4.25,7.125-4s3.875,4.625,4.25,6.125S345.5,175,343.25,181.25
	S333,204.25,331.875,204.125z"/>
<path fill-rule="evenodd" clip-rule="evenodd" d="M211.723,216.052c-1.072,0.362-14.047-20.069-14.84-21.768
	c-0.792-1.7-3.425-9.712-1.43-15.194c1.995-5.482,3.415-6.282,4.767-6.637c1.352-0.354,5.466,2.554,6.44,3.755
	c0.974,1.201,5.103,7.689,5.705,14.305C212.967,197.128,212.795,215.689,211.723,216.052z"/>
<path fill="none" stroke="#000000" stroke-width="1.0001" stroke-linejoin="round" stroke-miterlimit="3.8636" d="M211.723,216.052
	c-1.072,0.362-14.047-20.069-14.84-21.768c-0.792-1.7-3.425-9.712-1.43-15.194c1.995-5.482,3.415-6.282,4.767-6.637
	c1.352-0.354,5.466,2.554,6.44,3.755c0.974,1.201,5.103,7.689,5.705,14.305C212.967,197.128,212.795,215.689,211.723,216.052z"/>
<path fill-rule="evenodd" clip-rule="evenodd" d="M112.713,286.265c-0.605,0.957-23.547-6.755-25.232-7.577
	c-1.686-0.822-8.774-5.392-10.674-10.908c-1.899-5.516-1.299-7.031-0.472-8.157c0.827-1.126,5.855-1.456,7.368-1.135
	c1.513,0.32,8.804,2.764,13.436,7.526C101.771,270.775,113.319,285.309,112.713,286.265z"/>
<path fill="none" stroke="#000000" stroke-linejoin="round" stroke-miterlimit="3.8636" d="M112.713,286.265
	c-0.605,0.957-23.547-6.755-25.232-7.577c-1.686-0.822-8.774-5.392-10.674-10.908c-1.899-5.516-1.299-7.031-0.472-8.157
	c0.827-1.126,5.855-1.456,7.368-1.135c1.513,0.32,8.804,2.764,13.436,7.526C101.771,270.775,113.319,285.309,112.713,286.265z"/>
<path fill-rule="evenodd" clip-rule="evenodd" d="M63.183,393.631c-0.006,1.132-23.548,6.749-25.413,6.945
	s-10.299,0.077-14.833-3.594c-4.534-3.671-4.828-5.274-4.723-6.667c0.105-1.394,4.194-4.337,5.647-4.867s8.932-2.321,15.383-0.737
	C45.694,386.294,63.189,392.499,63.183,393.631z"/>
<path fill="none" stroke="#000000" stroke-linejoin="round" stroke-miterlimit="3.8636" d="M63.183,393.631
	c-0.006,1.132-23.548,6.749-25.413,6.945s-10.299,0.077-14.833-3.594c-4.534-3.671-4.828-5.274-4.723-6.667
	c0.105-1.394,4.194-4.337,5.647-4.867s8.932-2.321,15.383-0.737C45.694,386.294,63.189,392.499,63.183,393.631z"/>
<path fill-rule="evenodd" clip-rule="evenodd" d="M57.636,503.405c0.508,1.012-17.917,16.704-19.49,17.726
	c-1.573,1.021-9.141,4.744-14.847,3.531c-5.707-1.213-6.697-2.508-7.236-3.797c-0.54-1.289,1.768-5.769,2.822-6.9
	c1.054-1.131,6.903-6.123,13.371-7.64C38.723,504.808,57.128,502.395,57.636,503.405z"/>
<path fill="none" stroke="#000000" stroke-linejoin="round" stroke-miterlimit="3.8636" d="M57.636,503.405
	c0.508,1.012-17.917,16.704-19.49,17.726c-1.573,1.021-9.141,4.744-14.847,3.531c-5.707-1.213-6.697-2.508-7.236-3.797
	c-0.54-1.289,1.768-5.769,2.822-6.9c1.054-1.131,6.903-6.123,13.371-7.64C38.723,504.808,57.128,502.395,57.636,503.405z"/>
<path fill-rule="evenodd" clip-rule="evenodd" d="M112.429,596.3c0.81,0.791-11.5,21.626-12.655,23.104
	c-1.154,1.478-7.097,7.462-12.888,8.173s-7.148-0.19-8.078-1.234c-0.93-1.043-0.207-6.029,0.42-7.442
	c0.628-1.413,4.533-8.037,10.154-11.577C95.003,603.783,111.619,595.509,112.429,596.3z"/>
<path fill="none" stroke="#000000" stroke-linejoin="round" stroke-miterlimit="3.8636" d="M112.429,596.3
	c0.81,0.791-11.5,21.626-12.655,23.104c-1.154,1.478-7.097,7.462-12.888,8.173s-7.148-0.19-8.078-1.234
	c-0.93-1.043-0.207-6.029,0.42-7.442c0.628-1.413,4.533-8.037,10.154-11.577C95.003,603.783,111.619,595.509,112.429,596.3z"/>
<path fill-rule="evenodd" clip-rule="evenodd" d="M219.783,656.825c1.097,0.28,0.856,24.477,0.595,26.333s-2.415,10.01-7.074,13.521
	s-6.285,3.409-7.612,2.97c-1.327-0.438-3.195-5.117-3.358-6.654c-0.163-1.537-0.093-9.227,3.003-15.102
	C208.435,672.018,218.686,656.545,219.783,656.825z"/>
<path fill="none" stroke="#000000" stroke-linejoin="round" stroke-miterlimit="3.8636" d="M219.783,656.825
	c1.097,0.28,0.856,24.477,0.595,26.333s-2.415,10.01-7.074,13.521s-6.285,3.409-7.612,2.97c-1.327-0.438-3.195-5.117-3.358-6.654
	c-0.163-1.537-0.093-9.227,3.003-15.102C208.435,672.018,218.686,656.545,219.783,656.825z"/>
<path fill-rule="evenodd" clip-rule="evenodd" d="M331.009,671.905c1.09-0.306,12.981,20.768,13.685,22.505
	c0.703,1.738,2.914,9.875,0.637,15.245c-2.278,5.369-3.738,6.094-5.106,6.377c-1.369,0.284-5.326-2.834-6.236-4.084
	c-0.909-1.249-4.694-7.942-4.951-14.578S329.919,672.211,331.009,671.905z"/>
<path fill="none" stroke="#000000" stroke-linejoin="round" stroke-miterlimit="3.8636" d="M331.009,671.905
	c1.09-0.306,12.981,20.768,13.685,22.505c0.703,1.738,2.914,9.875,0.637,15.245c-2.278,5.369-3.738,6.094-5.106,6.377
	c-1.369,0.284-5.326-2.834-6.236-4.084c-0.909-1.249-4.694-7.942-4.951-14.578S329.919,672.211,331.009,671.905z"/>
<path fill-rule="evenodd" clip-rule="evenodd" d="M438.938,621.088c0.791-0.811,21.627,11.492,23.105,12.646
	c1.478,1.154,7.462,7.095,8.174,12.883c0.713,5.788-0.188,7.146-1.231,8.075c-1.044,0.931-6.029,0.209-7.442-0.419
	c-1.413-0.627-8.037-4.53-11.578-10.148S438.146,621.896,438.938,621.088z"/>
<path fill="none" stroke="#000000" stroke-linejoin="round" stroke-miterlimit="3.8636" d="M438.938,621.088
	c0.791-0.811,21.627,11.492,23.105,12.646c1.478,1.154,7.462,7.095,8.174,12.883c0.713,5.788-0.188,7.146-1.231,8.075
	c-1.044,0.931-6.029,0.209-7.442-0.419c-1.413-0.627-8.037-4.53-11.578-10.148S438.146,621.896,438.938,621.088z"/>
<path fill-rule="evenodd" clip-rule="evenodd" d="M505.125,535.469c0.355-1.074,24.477,0.849,26.311,1.238
	c1.833,0.389,9.816,3.104,12.995,7.994s2.963,6.505,2.434,7.798c-0.53,1.293-5.327,2.83-6.872,2.886
	c-1.545,0.055-9.21-0.549-14.855-4.046S504.77,536.543,505.125,535.469z"/>
<path fill="none" stroke="#000000" stroke-linejoin="round" stroke-miterlimit="3.8636" d="M505.125,535.469
	c0.355-1.074,24.477,0.849,26.311,1.238c1.833,0.389,9.816,3.104,12.995,7.994s2.963,6.505,2.434,7.798
	c-0.53,1.293-5.327,2.83-6.872,2.886c-1.545,0.055-9.21-0.549-14.855-4.046S504.77,536.543,505.125,535.469z"/>
<path fill-rule="evenodd" clip-rule="evenodd" d="M534.689,438.979c-0.073-1.129,23.01-8.38,24.855-8.706s10.264-0.799,15.043,2.544
	s5.185,4.921,5.178,6.317c-0.007,1.397-3.878,4.619-5.289,5.249c-1.412,0.63-8.744,2.941-15.289,1.813
	C552.644,445.068,534.762,440.107,534.689,438.979z"/>
<path fill="none" stroke="#000000" stroke-linejoin="round" stroke-miterlimit="3.8636" d="M534.689,438.979
	c-0.073-1.129,23.01-8.38,24.855-8.706s10.264-0.799,15.043,2.544s5.185,4.921,5.178,6.317c-0.007,1.397-3.878,4.619-5.289,5.249
	c-1.412,0.63-8.744,2.941-15.289,1.813C552.644,445.068,534.762,440.107,534.689,438.979z"/>
<path fill-rule="evenodd" clip-rule="evenodd" d="M507.014,331.617c-0.49-1.02,18.191-16.387,19.78-17.38
	c1.589-0.994,9.217-4.585,14.9-3.276c5.683,1.309,6.65,2.62,7.167,3.917c0.518,1.298-1.864,5.734-2.937,6.848
	c-1.072,1.112-7.004,6.001-13.493,7.406C525.941,330.539,507.505,332.637,507.014,331.617z"/>
<path fill="none" stroke="#000000" stroke-linejoin="round" stroke-miterlimit="3.8636" d="M507.014,331.617
	c-0.49-1.02,18.191-16.387,19.78-17.38c1.589-0.994,9.217-4.585,14.9-3.276c5.683,1.309,6.65,2.62,7.167,3.917
	c0.518,1.298-1.864,5.734-2.937,6.848c-1.072,1.112-7.004,6.001-13.493,7.406C525.941,330.539,507.505,332.637,507.014,331.617z"/>
<path fill-rule="evenodd" clip-rule="evenodd" d="M429.616,246.967c-0.837-0.762,10.725-22.005,11.825-23.521
	s6.826-7.702,12.586-8.617c5.759-0.915,7.146-0.063,8.113,0.947c0.965,1.009,0.42,6.015-0.157,7.448
	c-0.577,1.434-4.245,8.187-9.734,11.92C446.76,238.878,430.453,247.728,429.616,246.967z"/>
<path fill="none" stroke="#000000" stroke-linejoin="round" stroke-miterlimit="3.8636" d="M429.616,246.967
	c-0.837-0.762,10.725-22.005,11.825-23.521s6.826-7.702,12.586-8.617c5.759-0.915,7.146-0.063,8.113,0.947
	c0.965,1.009,0.42,6.015-0.157,7.448c-0.577,1.434-4.245,8.187-9.734,11.92C446.76,238.878,430.453,247.728,429.616,246.967z"/>
<path fill-rule="evenodd" clip-rule="evenodd" d="M278,305.5c0,0-0.75-14.25-3-18.75s-7-6.25-7-12.25c0-7.197,5.75-12,10-12.25
	c4.52-0.266,11.027,5.747,11.5,10c0.75,6.75-4,10.5-4.25,14s-0.25,18-0.25,18L278,305.5z"/>
<path fill="none" stroke="#000000" stroke-linejoin="round" stroke-miterlimit="3.8636" d="M278,305.5c0,0-0.75-14.25-3-18.75
	s-7-6.25-7-12.25c0-7.197,5.75-12,10-12.25c4.52-0.266,11.027,5.747,11.5,10c0.75,6.75-4,10.5-4.25,14s-0.25,18-0.25,18L278,305.5z"
	/>
<path fill-rule="evenodd" clip-rule="evenodd" d="M272.541,306.845c1.213,1.61,3.334,4.87-2.458,5.84
	c-1.087,0.874-2.998,2.435-5.472,4.552c-5.576,7.076-13.657,18.354-21.28,30.81c-0.021,6.013,0.076,12.296,0.365,18.477l0.4,0.18
	l-0.354,0.763c0.098,1.963,0.216,3.914,0.356,5.84c0.286,3.924,0.646,7.944,1.079,12.002l0.835,0.328l-0.628,1.559
	c0.509,4.55,1.109,9.136,1.795,13.676l0.276-0.107c5.651,14.095,17.239,36.256,28.994,47.021c8.851-1.963,19.624-5.301,19.624-5.301
	s-16.224-2.21-28.281-18.211s-21.099-40.818-16.653-64.458c4.445-23.64,13.855-33.817,18.909-36.957
	c5.054-3.139,11.987-8.614,11.987-8.614s-0.115-7.771-1.586-10.279s-14.928-4.948-18.598-8.332
	c-3.669-3.384-10.12-12.316-18.641-12.848c-8.52-0.531-15.657,5.231-14.784,10.105c0.873,4.875,4.339,8.545,10.616,7.958
	s9.38-4.644,17.448,0.49C264.858,306.661,271.201,305.066,272.541,306.845z M257.123,312.702c-2.463-0.192-4.903-0.446-7.337-0.68
	c-1.693,1.149-3.475,2.374-5.325,3.662c-0.097,1.497-0.207,3.291-0.318,5.331C248.78,317.826,253.204,314.988,257.123,312.702z
	 M240.728,311.396c-1.865-0.046-3.739-0.024-5.629,0.104c-1.526,1.15-3.09,2.333-4.68,3.545c-0.004,1.793,0.025,3.743,0.085,5.821
	c3.662-2.695,7.082-5.147,10.065-7.253L240.728,311.396z M226.422,312.914c-3.32,0.891-6.724,2.238-10.247,4.217
	c-0.391,0.22-0.78,0.449-1.166,0.688l0.68,3.897l0.797-0.645c3.604-2.907,7.008-5.595,9.93-7.875L226.422,312.914z M211.382,320.413
	c-2.901,2.356-5.613,5.259-8.08,8.56l0.529,2.596c2.742-2.349,5.543-4.688,8.288-6.941L211.382,320.413z M200.149,333.619
	c-0.481,0.779-0.949,1.574-1.405,2.383l1.604-1.417L200.149,333.619z M194.239,345.509c-0.347,0.881-0.679,1.77-0.996,2.665
	l0.835,2.82c2.508-2.489,5.242-5.025,8.108-7.562l-0.949-4.546C198.789,341.104,196.44,343.318,194.239,345.509z M189.75,361.596
	c-0.77,4.563-1.112,9.127-0.965,13.528c1.562-2.354,3.462-5.188,5.749-8.555l-2.341-7.836
	C191.325,359.705,190.509,360.66,189.75,361.596z M189.369,381.518c0.182,1.18,0.404,2.34,0.669,3.478
	c0.721,3.092,1.541,6.107,2.468,9.041c1.424-4.016,3.379-8.688,6.049-14.082l-2.539-8.436
	C193.098,375.843,190.928,379.127,189.369,381.518z M194.694,400.283c1.239,3.207,2.625,6.303,4.168,9.284
	c1.463-4.711,2.97-9.234,4.555-13.602l-3.129-10.284C198.131,390.367,196.084,395.443,194.694,400.283z M201.581,414.422
	c1.824,3.018,3.832,5.901,6.038,8.644c0.567-2.094,1.232-4.463,1.999-7.066c-1.351-4.297-2.772-8.876-4.217-13.57
	C204.087,406.292,202.822,410.282,201.581,414.422z M210.793,426.764c0.811,0.885,1.645,1.753,2.502,2.604l0.302-0.916
	c-0.566-1.731-1.161-3.574-1.779-5.509C211.437,424.328,211.096,425.605,210.793,426.764z M220.159,435.41
	c0.983,0.768,1.992,1.518,3.026,2.25l1.317-5.46l-2.509-7.205c-0.438-1.257-0.892-2.647-1.361-4.154
	c-1.063,2.761-2.015,5.341-2.811,7.652C218.686,431.121,219.473,433.453,220.159,435.41z M226.746,440.043l0.628,0.394l-0.428-1.228
	L226.746,440.043z M233.313,443.783c1.335,0.675,2.642,1.284,3.922,1.833l-2.144-8.31
	C234.417,439.542,233.816,441.716,233.313,443.783z M241.846,447.381c1.214,0.408,2.402,0.763,3.562,1.068
	c-0.747-2.175-1.484-4.556-2.204-7.069c-0.593,1.933-1.098,3.802-1.477,5.547L241.846,447.381z M250.03,449.45l0.824,0.132
	c0.378-2.468,1.06-4.979,1.846-7.326c-1.59-4.446-3.048-9.389-4.369-14.652c-0.957,2.253-1.913,4.623-2.804,7.005
	C246.961,440.163,248.486,445.343,250.03,449.45z M254.861,450.029l1.031,0.063c-0.249-0.531-0.496-1.075-0.74-1.631
	C255.041,448.991,254.943,449.515,254.861,450.029z M260.366,450.119c4.408-0.161,8.174-0.842,11.31-1.391
	c-4.077-4.129-7.898-9.215-11.321-14.468c-1.177,2.356-2.39,5.12-3.398,7.956C258.037,445.121,259.174,447.773,260.366,450.119z
	 M251.896,419.688l-0.875,1.858c1.191,5.28,2.508,10.284,3.946,14.849c1.22-2.807,2.363-5.017,2.92-6.057
	c-1.719-2.826-3.314-5.645-4.763-8.335C252.703,421.221,252.293,420.448,251.896,419.688z M246.813,421.142
	c-0.728-3.306-1.405-6.703-2.031-10.154c-0.985,2.347-2.005,4.844-3.021,7.422c0.661,3.115,1.37,6.317,2.116,9.489
	C244.918,425.385,245.936,423.072,246.813,421.142z M241.33,434.409c-0.761-2.997-1.492-6.076-2.183-9.136
	c-0.595,1.621-1.177,3.251-1.735,4.873c0.806,3.176,1.583,6.212,2.294,8.975C240.212,437.544,240.761,435.962,241.33,434.409z
	 M243.55,403.719c-0.458-2.904-0.881-5.828-1.268-8.749c-1.034,2.613-2.211,5.606-3.435,8.755c0.432,2.328,0.926,4.914,1.471,7.658
	C241.637,408.166,242.775,405.501,243.55,403.719z M237.604,418.188c-0.535-2.544-1.034-5.016-1.492-7.349
	c-0.724,1.903-1.437,3.796-2.12,5.638c0.555,2.256,1.121,4.535,1.686,6.793c0.401-1.085,0.803-2.153,1.202-3.198L237.604,418.188z
	 M233.253,430.096l-1.722-6.845c-1.279,3.62-2.294,6.7-2.841,8.763l2.071,5.938C231.513,435.372,232.359,432.726,233.253,430.096z
	 M241.277,386.649c-0.424-3.882-0.782-7.723-1.072-11.471c-1.214,2.669-2.647,5.84-4.203,9.324c0.56,4.539,1.087,8.486,1.539,11.544
	C239.093,392.107,240.425,388.773,241.277,386.649z M234.689,403.346l-0.436-2.402c-0.371-2.07-0.852-5.3-1.394-9.349l-1.568,3.583
	l-1.478,3.407c0.395,1.896,0.75,3.534,1.056,4.858c0.45,1.944,0.934,3.992,1.439,6.104c0.683-1.796,1.372-3.592,2.051-5.348
	L234.689,403.346z M229.797,416.243c-0.963-3.93-1.886-7.77-2.704-11.292c-1.413,3.344-2.79,6.662-4.073,9.844
	c0.978,3.41,1.912,6.427,2.778,8.916l0.667,1.913C227.386,422.877,228.539,419.652,229.797,416.243z M239.679,366.696
	c-0.186-3.969-0.292-7.979-0.34-11.935c-1.933,3.352-3.799,6.748-5.543,10.134c0.423,4.11,0.857,8.104,1.288,11.863
	C237.137,372.216,238.777,368.647,239.679,366.696z M231.878,383.899c-0.458-3.757-0.936-7.886-1.41-12.229l-0.206,0.445
	c-1.373,2.972-2.672,5.919-3.899,8.82c0.729,3.868,1.425,7.505,2.065,10.771C229.612,389.002,230.773,386.378,231.878,383.899z
	 M225.624,398.167c-0.612-2.986-1.307-6.516-2.053-10.406c-1.66,4.194-3.166,8.252-4.522,12.109
	c0.751,2.992,1.495,5.874,2.223,8.597C222.68,405.061,224.152,401.586,225.624,398.167z M218.783,414.57
	c-0.682-2.423-1.384-5.023-2.098-7.755c-1.078,3.282-2.035,6.358-2.876,9.178c0.686,2.177,1.352,4.273,1.99,6.266
	C216.704,419.838,217.71,417.252,218.783,414.57z M211.689,409.219c0.948-2.995,2.005-6.193,3.174-9.552
	c-1.085-4.354-2.182-8.921-3.267-13.554c-1.382,3.242-2.694,6.562-3.954,9.979C209.011,400.564,210.373,404.987,211.689,409.219z
	 M205.735,389.837c1.38-3.496,2.825-6.898,4.356-10.225c-0.682-2.979-1.355-5.959-2.011-8.9l-0.875,1.516
	c-1.25,2.207-2.77,4.994-4.345,8.121L205.735,389.837z M201.197,374.828c0.783-1.463,1.613-2.973,2.496-4.529
	c1.003-1.771,2.051-3.512,3.139-5.225l-1.405-6.438c-1.742,1.955-3.224,3.8-4.382,5.49l-2.125,3.111L201.197,374.828z
	 M197.444,362.3l0.266-0.388c1.668-2.435,3.953-5.155,6.689-8.048l-1.274-5.983c-2.795,2.533-5.406,5.031-7.757,7.45L197.444,362.3z
	 M217.319,392.846c1.477-3.973,3.1-8.109,4.874-12.347c-0.695-3.706-1.417-7.603-2.145-11.57c-2.055,3.63-3.958,7.328-5.74,11.125
	C215.3,384.37,216.31,388.672,217.319,392.846z M212.888,373.817c1.88-3.719,3.889-7.353,6.057-10.93l-1.154-6.369
	c-2.34,2.991-4.583,6.098-6.684,9.313C211.687,368.458,212.282,371.129,212.888,373.817z M209.923,360.432
	c2.2-3.157,4.523-6.203,6.928-9.132l-0.603-3.365c-2.712,2.444-5.236,4.844-7.484,7.14L209.923,360.432z M207.771,350.433
	c2.349-2.309,4.925-4.692,7.656-7.101l-0.923-5.193c-2.722,2.219-5.38,4.452-7.923,6.67L207.771,350.433z M205.658,340.412
	c2.633-2.252,5.343-4.488,8.065-6.676l-0.856-4.853c-2.774,2.284-5.514,4.599-8.166,6.92L205.658,340.412z M225.049,373.893
	c0.506-1.135,1.024-2.274,1.552-3.417c0.969-2.097,1.998-4.211,3.075-6.331c-0.3-2.945-0.592-5.943-0.871-8.953
	c-1.997,2.799-3.87,5.616-5.635,8.467C223.799,367.115,224.43,370.552,225.049,373.893z M222.118,357.865
	c1.924-2.923,3.968-5.816,6.148-8.697l-0.36-4.322c-2.301,2.415-4.569,4.936-6.772,7.556L222.118,357.865z M220.223,347.329
	c2.378-2.712,4.815-5.311,7.273-7.79l-0.079-1.087c-2.624,2.112-5.189,4.249-7.643,6.371L220.223,347.329z M218.964,340.271
	c2.625-2.23,5.354-4.462,8.128-6.656c-0.11-1.744-0.208-3.453-0.295-5.115c-2.913,2.205-5.84,4.469-8.722,6.763L218.964,340.271z
	 M217.303,330.891c2.375-1.867,4.738-3.686,7.046-5.433l2.234-1.682c-0.077-1.986-0.131-3.883-0.159-5.669
	c-3.287,2.537-6.646,5.173-9.986,7.867L217.303,330.891z M230.68,325.591c0.073,1.625,0.159,3.306,0.259,5.031
	c3.011-2.309,6.044-4.552,9.027-6.679c0.095-1.936,0.191-3.712,0.284-5.296C237.165,320.836,233.947,323.166,230.68,325.591z
	 M233.082,357.707c1.995-3.635,4.095-7.246,6.235-10.771c0.01-1.715,0.03-3.405,0.057-5.063c-2.472,2.823-4.79,5.64-6.969,8.467
	C232.62,352.795,232.847,355.259,233.082,357.707z M231.913,344.517c2.375-2.924,4.901-5.845,7.597-8.778l0.063-2.102
	c-2.632,2.322-5.292,4.793-7.933,7.404L231.913,344.517z M231.267,335.843c0.894-0.853,1.789-1.69,2.683-2.51
	c-0.906,0.692-1.811,1.39-2.711,2.093L231.267,335.843z M243.421,340.354c2.073-3.24,4.146-6.363,6.164-9.311
	c-2.125,2.104-4.154,4.195-6.095,6.276L243.421,340.354z M243.674,331.336c1.94-1.995,3.963-4,6.072-6.02l0.418-0.4
	c-2.089,1.605-4.247,3.328-6.443,5.161L243.674,331.336z"/>
<path fill="none" stroke="#000000" stroke-linejoin="round" stroke-miterlimit="3.8636" d="M272.541,306.845
	c1.213,1.61,3.334,4.87-2.458,5.84c-1.087,0.874-2.998,2.435-5.472,4.552c-5.576,7.076-13.657,18.354-21.28,30.81
	c-0.021,6.013,0.076,12.296,0.365,18.477l0.4,0.18l-0.354,0.763c0.098,1.963,0.216,3.914,0.356,5.84
	c0.286,3.924,0.646,7.944,1.079,12.002l0.835,0.328l-0.628,1.559c0.509,4.55,1.109,9.136,1.795,13.676l0.276-0.107
	c5.651,14.095,17.239,36.256,28.994,47.021c8.851-1.963,19.624-5.301,19.624-5.301s-16.224-2.21-28.281-18.211
	s-21.099-40.818-16.653-64.458c4.445-23.64,13.855-33.817,18.909-36.957c5.054-3.139,11.987-8.614,11.987-8.614
	s-0.115-7.771-1.586-10.279s-14.928-4.948-18.598-8.332c-3.669-3.384-10.12-12.316-18.641-12.848
	c-8.52-0.531-15.657,5.231-14.784,10.105c0.873,4.875,4.339,8.545,10.616,7.958s9.38-4.644,17.448,0.49
	C264.858,306.661,271.201,305.066,272.541,306.845z M257.123,312.702c-2.463-0.192-4.903-0.446-7.337-0.68
	c-1.693,1.149-3.475,2.374-5.325,3.662c-0.097,1.497-0.207,3.291-0.318,5.331C248.78,317.826,253.204,314.988,257.123,312.702z
	 M240.728,311.396c-1.865-0.046-3.739-0.024-5.629,0.104c-1.526,1.15-3.09,2.333-4.68,3.545c-0.004,1.793,0.025,3.743,0.085,5.821
	c3.662-2.695,7.082-5.147,10.065-7.253L240.728,311.396z M226.422,312.914c-3.32,0.891-6.724,2.238-10.247,4.217
	c-0.391,0.22-0.78,0.449-1.166,0.688l0.68,3.897l0.797-0.645c3.604-2.907,7.008-5.595,9.93-7.875L226.422,312.914z M211.382,320.413
	c-2.901,2.356-5.613,5.259-8.08,8.56l0.529,2.596c2.742-2.349,5.543-4.688,8.288-6.941L211.382,320.413z M200.149,333.619
	c-0.481,0.779-0.949,1.574-1.405,2.383l1.604-1.417L200.149,333.619z M194.239,345.509c-0.347,0.881-0.679,1.77-0.996,2.665
	l0.835,2.82c2.508-2.489,5.242-5.025,8.108-7.562l-0.949-4.546C198.789,341.104,196.44,343.318,194.239,345.509z M189.75,361.596
	c-0.77,4.563-1.112,9.127-0.965,13.528c1.562-2.354,3.462-5.188,5.749-8.555l-2.341-7.836
	C191.325,359.705,190.509,360.66,189.75,361.596z M189.369,381.518c0.182,1.18,0.404,2.34,0.669,3.478
	c0.721,3.092,1.541,6.107,2.468,9.041c1.424-4.016,3.379-8.688,6.049-14.082l-2.539-8.436
	C193.098,375.843,190.928,379.127,189.369,381.518z M194.694,400.283c1.239,3.207,2.625,6.303,4.168,9.284
	c1.463-4.711,2.97-9.234,4.555-13.602l-3.129-10.284C198.131,390.367,196.084,395.443,194.694,400.283z M201.581,414.422
	c1.824,3.018,3.832,5.901,6.038,8.644c0.567-2.094,1.232-4.463,1.999-7.066c-1.351-4.297-2.772-8.876-4.217-13.57
	C204.087,406.292,202.822,410.282,201.581,414.422z M210.793,426.764c0.811,0.885,1.645,1.753,2.502,2.604l0.302-0.916
	c-0.566-1.731-1.161-3.574-1.779-5.509C211.437,424.328,211.096,425.605,210.793,426.764z M220.159,435.41
	c0.983,0.768,1.992,1.518,3.026,2.25l1.317-5.46l-2.509-7.205c-0.438-1.257-0.892-2.647-1.361-4.154
	c-1.063,2.761-2.015,5.341-2.811,7.652C218.686,431.121,219.473,433.453,220.159,435.41z M226.746,440.043l0.628,0.394l-0.428-1.228
	L226.746,440.043z M233.313,443.783c1.335,0.675,2.642,1.284,3.922,1.833l-2.144-8.31
	C234.417,439.542,233.816,441.716,233.313,443.783z M241.846,447.381c1.214,0.408,2.402,0.763,3.562,1.068
	c-0.747-2.175-1.484-4.556-2.204-7.069c-0.593,1.933-1.098,3.802-1.477,5.547L241.846,447.381z M250.03,449.45l0.824,0.132
	c0.378-2.468,1.06-4.979,1.846-7.326c-1.59-4.446-3.048-9.389-4.369-14.652c-0.957,2.253-1.913,4.623-2.804,7.005
	C246.961,440.163,248.486,445.343,250.03,449.45z M254.861,450.029l1.031,0.063c-0.249-0.531-0.496-1.075-0.74-1.631
	C255.041,448.991,254.943,449.515,254.861,450.029z M260.366,450.119c4.408-0.161,8.174-0.842,11.31-1.391
	c-4.077-4.129-7.898-9.215-11.321-14.468c-1.177,2.356-2.39,5.12-3.398,7.956C258.037,445.121,259.174,447.773,260.366,450.119z
	 M251.896,419.688l-0.875,1.858c1.191,5.28,2.508,10.284,3.946,14.849c1.22-2.807,2.363-5.017,2.92-6.057
	c-1.719-2.826-3.314-5.645-4.763-8.335C252.703,421.221,252.293,420.448,251.896,419.688z M246.813,421.142
	c-0.728-3.306-1.405-6.703-2.031-10.154c-0.985,2.347-2.005,4.844-3.021,7.422c0.661,3.115,1.37,6.317,2.116,9.489
	C244.918,425.385,245.936,423.072,246.813,421.142z M241.33,434.409c-0.761-2.997-1.492-6.076-2.183-9.136
	c-0.595,1.621-1.177,3.251-1.735,4.873c0.806,3.176,1.583,6.212,2.294,8.975C240.212,437.544,240.761,435.962,241.33,434.409z
	 M243.55,403.719c-0.458-2.904-0.881-5.828-1.268-8.749c-1.034,2.613-2.211,5.606-3.435,8.755c0.432,2.328,0.926,4.914,1.471,7.658
	C241.637,408.166,242.775,405.501,243.55,403.719z M237.604,418.188c-0.535-2.544-1.034-5.016-1.492-7.349
	c-0.724,1.903-1.437,3.796-2.12,5.638c0.555,2.256,1.121,4.535,1.686,6.793c0.401-1.085,0.803-2.153,1.202-3.198L237.604,418.188z
	 M233.253,430.096l-1.722-6.845c-1.279,3.62-2.294,6.7-2.841,8.763l2.071,5.938C231.513,435.372,232.359,432.726,233.253,430.096z
	 M241.277,386.649c-0.424-3.882-0.782-7.723-1.072-11.471c-1.214,2.669-2.647,5.84-4.203,9.324c0.56,4.539,1.087,8.486,1.539,11.544
	C239.093,392.107,240.425,388.773,241.277,386.649z M234.689,403.346l-0.436-2.402c-0.371-2.07-0.852-5.3-1.394-9.349l-1.568,3.583
	l-1.478,3.407c0.395,1.896,0.75,3.534,1.056,4.858c0.45,1.944,0.934,3.992,1.439,6.104c0.683-1.796,1.372-3.592,2.051-5.348
	L234.689,403.346z M229.797,416.243c-0.963-3.93-1.886-7.77-2.704-11.292c-1.413,3.344-2.79,6.662-4.073,9.844
	c0.978,3.41,1.912,6.427,2.778,8.916l0.667,1.913C227.386,422.877,228.539,419.652,229.797,416.243z M239.679,366.696
	c-0.186-3.969-0.292-7.979-0.34-11.935c-1.933,3.352-3.799,6.748-5.543,10.134c0.423,4.11,0.857,8.104,1.288,11.863
	C237.137,372.216,238.777,368.647,239.679,366.696z M231.878,383.899c-0.458-3.757-0.936-7.886-1.41-12.229l-0.206,0.445
	c-1.373,2.972-2.672,5.919-3.899,8.82c0.729,3.868,1.425,7.505,2.065,10.771C229.612,389.002,230.773,386.378,231.878,383.899z
	 M225.624,398.167c-0.612-2.986-1.307-6.516-2.053-10.406c-1.66,4.194-3.166,8.252-4.522,12.109
	c0.751,2.992,1.495,5.874,2.223,8.597C222.68,405.061,224.152,401.586,225.624,398.167z M218.783,414.57
	c-0.682-2.423-1.384-5.023-2.098-7.755c-1.078,3.282-2.035,6.358-2.876,9.178c0.686,2.177,1.352,4.273,1.99,6.266
	C216.704,419.838,217.71,417.252,218.783,414.57z M211.689,409.219c0.948-2.995,2.005-6.193,3.174-9.552
	c-1.085-4.354-2.182-8.921-3.267-13.554c-1.382,3.242-2.694,6.562-3.954,9.979C209.011,400.564,210.373,404.987,211.689,409.219z
	 M205.735,389.837c1.38-3.496,2.825-6.898,4.356-10.225c-0.682-2.979-1.355-5.959-2.011-8.9l-0.875,1.516
	c-1.25,2.207-2.77,4.994-4.345,8.121L205.735,389.837z M201.197,374.828c0.783-1.463,1.613-2.973,2.496-4.529
	c1.003-1.771,2.051-3.512,3.139-5.225l-1.405-6.438c-1.742,1.955-3.224,3.8-4.382,5.49l-2.125,3.111L201.197,374.828z
	 M197.444,362.3l0.266-0.388c1.668-2.435,3.953-5.155,6.689-8.048l-1.274-5.983c-2.795,2.533-5.406,5.031-7.757,7.45L197.444,362.3z
	 M217.319,392.846c1.477-3.973,3.1-8.109,4.874-12.347c-0.695-3.706-1.417-7.603-2.145-11.57c-2.055,3.63-3.958,7.328-5.74,11.125
	C215.3,384.37,216.31,388.672,217.319,392.846z M212.888,373.817c1.88-3.719,3.889-7.353,6.057-10.93l-1.154-6.369
	c-2.34,2.991-4.583,6.098-6.684,9.313C211.687,368.458,212.282,371.129,212.888,373.817z M209.923,360.432
	c2.2-3.157,4.523-6.203,6.928-9.132l-0.603-3.365c-2.712,2.444-5.236,4.844-7.484,7.14L209.923,360.432z M207.771,350.433
	c2.349-2.309,4.925-4.692,7.656-7.101l-0.923-5.193c-2.722,2.219-5.38,4.452-7.923,6.67L207.771,350.433z M205.658,340.412
	c2.633-2.252,5.343-4.488,8.065-6.676l-0.856-4.853c-2.774,2.284-5.514,4.599-8.166,6.92L205.658,340.412z M225.049,373.893
	c0.506-1.135,1.024-2.274,1.552-3.417c0.969-2.097,1.998-4.211,3.075-6.331c-0.3-2.945-0.592-5.943-0.871-8.953
	c-1.997,2.799-3.87,5.616-5.635,8.467C223.799,367.115,224.43,370.552,225.049,373.893z M222.118,357.865
	c1.924-2.923,3.968-5.816,6.148-8.697l-0.36-4.322c-2.301,2.415-4.569,4.936-6.772,7.556L222.118,357.865z M220.223,347.329
	c2.378-2.712,4.815-5.311,7.273-7.79l-0.079-1.087c-2.624,2.112-5.189,4.249-7.643,6.371L220.223,347.329z M218.964,340.271
	c2.625-2.23,5.354-4.462,8.128-6.656c-0.11-1.744-0.208-3.453-0.295-5.115c-2.913,2.205-5.84,4.469-8.722,6.763L218.964,340.271z
	 M217.303,330.891c2.375-1.867,4.738-3.686,7.046-5.433l2.234-1.682c-0.077-1.986-0.131-3.883-0.159-5.669
	c-3.287,2.537-6.646,5.173-9.986,7.867L217.303,330.891z M230.68,325.591c0.073,1.625,0.159,3.306,0.259,5.031
	c3.011-2.309,6.044-4.552,9.027-6.679c0.095-1.936,0.191-3.712,0.284-5.296C237.165,320.836,233.947,323.166,230.68,325.591z
	 M233.082,357.707c1.995-3.635,4.095-7.246,6.235-10.771c0.01-1.715,0.03-3.405,0.057-5.063c-2.472,2.823-4.79,5.64-6.969,8.467
	C232.62,352.795,232.847,355.259,233.082,357.707z M231.913,344.517c2.375-2.924,4.901-5.845,7.597-8.778l0.063-2.102
	c-2.632,2.322-5.292,4.793-7.933,7.404L231.913,344.517z M231.267,335.843c0.894-0.853,1.789-1.69,2.683-2.51
	c-0.906,0.692-1.811,1.39-2.711,2.093L231.267,335.843z M243.421,340.354c2.073-3.24,4.146-6.363,6.164-9.311
	c-2.125,2.104-4.154,4.195-6.095,6.276L243.421,340.354z M243.674,331.336c1.94-1.995,3.963-4,6.072-6.02l0.418-0.4
	c-2.089,1.605-4.247,3.328-6.443,5.161L243.674,331.336z"/>
<path fill-rule="evenodd" clip-rule="evenodd" d="M285.375,320.5c-3.875,0.125-8.543,8.867-8.375,11c0.375,4.75,8.25,10.875,12,10.5
	c2.363-0.236,6.718-9.39,6.5-11C294.875,326.375,288.757,320.391,285.375,320.5z"/>
<path fill="none" stroke="#000000" stroke-linejoin="round" stroke-miterlimit="3.8636" d="M285.375,320.5
	c-3.875,0.125-8.543,8.867-8.375,11c0.375,4.75,8.25,10.875,12,10.5c2.363-0.236,6.718-9.39,6.5-11
	C294.875,326.375,288.757,320.391,285.375,320.5z"/>
<path fill-rule="evenodd" clip-rule="evenodd" d="M290.5,362c-2.744,0.22-7.412,7.631-7.625,11.25c-0.125,2.125,5.625,8.25,10.75,8
	c4.311-0.21,7.107-6.855,6.625-10.875C299.875,367.25,293.625,361.75,290.5,362z"/>
<path fill="none" stroke="#000000" stroke-linejoin="round" stroke-miterlimit="3.8636" d="M290.5,362
	c-2.744,0.22-7.412,7.631-7.625,11.25c-0.125,2.125,5.625,8.25,10.75,8c4.311-0.21,7.107-6.855,6.625-10.875
	C299.875,367.25,293.625,361.75,290.5,362z"/>
<path fill-rule="evenodd" clip-rule="evenodd" d="M274.5,341.75c1.858-0.279,8.375,4.875,9.375,8.875
	c0.678,2.712-3.277,8.83-6.5,9.25c-2.875,0.375-9.566-5.122-9.625-7.125C267.625,348.5,272,342.125,274.5,341.75z"/>
<path fill="none" stroke="#000000" stroke-linejoin="round" stroke-miterlimit="3.8636" d="M274.5,341.75
	c1.858-0.279,8.375,4.875,9.375,8.875c0.678,2.712-3.277,8.83-6.5,9.25c-2.875,0.375-9.566-5.122-9.625-7.125
	C267.625,348.5,272,342.125,274.5,341.75z"/>
<path fill-rule="evenodd" clip-rule="evenodd" d="M301.75,339.875c-3.75-0.25-7.14,8.186-7.25,12.5
	c-0.125,4.875,6.875,10.75,10.25,10.75c2.672,0,6.375-10.75,5.875-12.875S305,339.25,301.75,339.875z"/>
<path fill="none" stroke="#000000" stroke-linejoin="round" stroke-miterlimit="3.8636" d="M301.75,339.875
	c-3.75-0.25-7.14,8.186-7.25,12.5c-0.125,4.875,6.875,10.75,10.25,10.75c2.672,0,6.375-10.75,5.875-12.875
	S305,339.25,301.75,339.875z"/>
<path fill-rule="evenodd" clip-rule="evenodd" d="M265.25,362.625c3.5-0.5,8.875,5.375,9,9.25c0.133,4.131-5.875,9.755-7.375,9.875
	c-3.125,0.25-7.375-5.125-7.875-9.875C258.859,370.536,262.125,362.625,265.25,362.625z"/>
<path fill="none" stroke="#000000" stroke-linejoin="round" stroke-miterlimit="3.8636" d="M265.25,362.625
	c3.5-0.5,8.875,5.375,9,9.25c0.133,4.131-5.875,9.755-7.375,9.875c-3.125,0.25-7.375-5.125-7.875-9.875
	C258.859,370.536,262.125,362.625,265.25,362.625z"/>
<path fill-rule="evenodd" clip-rule="evenodd" d="M282.375,382.5c-3,0.125-6.375,6.25-6.25,8.625c0.163,3.088,7.75,10.125,10.375,10
	c3.371-0.161,6.228-8.976,5.5-11.25C291,386.75,285.25,382.125,282.375,382.5z"/>
<path fill="none" stroke="#000000" stroke-linejoin="round" stroke-miterlimit="3.8636" d="M282.375,382.5
	c-3,0.125-6.375,6.25-6.25,8.625c0.163,3.088,7.75,10.125,10.375,10c3.371-0.161,6.228-8.976,5.5-11.25
	C291,386.75,285.25,382.125,282.375,382.5z"/>
<path fill-rule="evenodd" clip-rule="evenodd" d="M301.75,393.75c-2.875,0.375-7.39,7.306-6.75,10.375c0.625,3,6.875,10,9.875,10
	c4.527,0,7.501-10.538,7-12.375C311.125,399,305,393.625,301.75,393.75z"/>
<path fill="none" stroke="#000000" stroke-linejoin="round" stroke-miterlimit="3.8636" d="M301.75,393.75
	c-2.875,0.375-7.39,7.306-6.75,10.375c0.625,3,6.875,10,9.875,10c4.527,0,7.501-10.538,7-12.375
	C311.125,399,305,393.625,301.75,393.75z"/>
<path fill-rule="evenodd" clip-rule="evenodd" d="M310.75,370.375c-2.5,0.375-7,7.25-6,10.625c1.232,4.16,7.625,8.5,9.75,8.25
	c3.043-0.358,5.765-9.186,5.125-12C319,374.5,313.5,370,310.75,370.375z"/>
<path fill="none" stroke="#000000" stroke-linejoin="round" stroke-miterlimit="3.8636" d="M310.75,370.375
	c-2.5,0.375-7,7.25-6,10.625c1.232,4.16,7.625,8.5,9.75,8.25c3.043-0.358,5.765-9.186,5.125-12C319,374.5,313.5,370,310.75,370.375z
	"/>
<path fill-rule="evenodd" clip-rule="evenodd" d="M270.875,398.875c2.625-1.125,9.833,3.851,10.75,7.125
	c0.875,3.125-3.25,10.5-5.5,10.875c-2.022,0.337-9.345-5.067-10.125-8.5C265.375,405.625,267.5,399.875,270.875,398.875z"/>
<path fill="none" stroke="#000000" stroke-linejoin="round" stroke-miterlimit="3.8636" d="M270.875,398.875
	c2.625-1.125,9.833,3.851,10.75,7.125c0.875,3.125-3.25,10.5-5.5,10.875c-2.022,0.337-9.345-5.067-10.125-8.5
	C265.375,405.625,267.5,399.875,270.875,398.875z"/>
<path fill-rule="evenodd" clip-rule="evenodd" d="M290.875,415.875c-3.375-0.125-8.331,6.269-8,8.75
	c0.5,3.75,6.528,11.18,9.75,10.75c3.75-0.5,8.386-8.502,8-10.625C300.125,422,295,415.625,290.875,415.875z"/>
<path fill="none" stroke="#000000" stroke-linejoin="round" stroke-miterlimit="3.8636" d="M290.875,415.875
	c-3.375-0.125-8.331,6.269-8,8.75c0.5,3.75,6.528,11.18,9.75,10.75c3.75-0.5,8.386-8.502,8-10.625
	C300.125,422,295,415.625,290.875,415.875z"/>
</svg>
